<?xml version="1.0" encoding="utf-8" standalone="no"?>
<!DOCTYPE svg PUBLIC "-//W3C//DTD SVG 1.1//EN"
  "http://www.w3.org/Graphics/SVG/1.1/DTD/svg11.dtd">
<svg xmlns:xlink="http://www.w3.org/1999/xlink" width="576pt" height="360pt" viewBox="0 0 576 360" xmlns="http://www.w3.org/2000/svg" version="1.1">
 <metadata>
  <rdf:RDF xmlns:dc="http://purl.org/dc/elements/1.1/" xmlns:cc="http://creativecommons.org/ns#" xmlns:rdf="http://www.w3.org/1999/02/22-rdf-syntax-ns#">
   <cc:Work>
    <dc:type rdf:resource="http://purl.org/dc/dcmitype/StillImage"/>
    <dc:date>2026-01-20T07:59:45.061784</dc:date>
    <dc:format>image/svg+xml</dc:format>
    <dc:creator>
     <cc:Agent>
      <dc:title>Matplotlib v3.10.0, https://matplotlib.org/</dc:title>
     </cc:Agent>
    </dc:creator>
   </cc:Work>
  </rdf:RDF>
 </metadata>
 <defs>
  <style type="text/css">*{stroke-linejoin: round; stroke-linecap: butt}</style>
 </defs>
 <g id="figure_1">
  <g id="patch_1">
   <path d="M 0 360 
L 576 360 
L 576 0 
L 0 0 
z
" style="fill: #ffffff"/>
  </g>
  <g id="axes_1">
   <g id="patch_2">
    <path d="M 44.93 307.550464 
L 565.2 307.550464 
L 565.2 10.8 
L 44.93 10.8 
z
" style="fill: #ffffff"/>
   </g>
   <g id="FillBetweenPolyCollection_1">
    <defs>
     <path id="ma42765798d" d="M 97.524291 -65.938194 
L 96.389709 -65.938194 
L 96.266751 -68.417489 
L 96.125562 -70.896785 
L 95.965529 -73.376081 
L 95.786528 -75.855377 
L 95.589029 -78.334673 
L 95.374173 -80.813968 
L 95.143833 -83.293264 
L 94.900645 -85.77256 
L 94.647995 -88.251856 
L 94.389972 -90.731152 
L 94.131268 -93.210447 
L 93.877042 -95.689743 
L 93.632737 -98.169039 
L 93.403868 -100.648335 
L 93.195788 -103.127631 
L 93.013446 -105.606926 
L 92.861145 -108.086222 
L 92.742326 -110.565518 
L 92.659391 -113.044814 
L 92.613557 -115.524109 
L 92.604785 -118.003405 
L 92.631757 -120.482701 
L 92.691912 -122.961997 
L 92.78155 -125.441293 
L 92.895966 -127.920588 
L 93.029632 -130.399884 
L 93.176392 -132.87918 
L 93.329664 -135.358476 
L 93.482632 -137.837772 
L 93.628412 -140.317067 
L 93.760195 -142.796363 
L 93.87135 -145.275659 
L 93.955492 -147.754955 
L 94.006525 -150.234251 
L 94.018665 -152.713546 
L 93.986458 -155.192842 
L 93.9048 -157.672138 
L 93.768994 -160.151434 
L 93.574823 -162.63073 
L 93.318684 -165.110025 
L 92.997751 -167.589321 
L 92.610188 -170.068617 
L 92.155389 -172.547913 
L 91.634228 -175.027209 
L 91.049297 -177.506504 
L 90.405099 -179.9858 
L 89.708186 -182.465096 
L 88.967179 -184.944392 
L 88.192688 -187.423688 
L 87.397091 -189.902983 
L 86.594169 -192.382279 
L 85.79862 -194.861575 
L 85.025458 -197.340871 
L 84.289335 -199.820167 
L 83.603828 -202.299462 
L 82.980743 -204.778758 
L 82.429491 -207.258054 
L 81.956584 -209.73735 
L 81.565305 -212.216646 
L 81.255579 -214.695941 
L 81.024068 -217.175237 
L 80.864495 -219.654533 
L 80.768183 -222.133829 
L 80.724758 -224.613125 
L 80.722985 -227.09242 
L 80.751662 -229.571716 
L 80.800504 -232.051012 
L 80.860946 -234.530308 
L 80.92681 -237.009604 
L 80.994758 -239.488899 
L 81.06453 -241.968195 
L 81.138911 -244.447491 
L 81.223463 -246.926787 
L 81.326024 -249.406083 
L 81.456034 -251.885378 
L 81.623728 -254.364674 
L 81.839274 -256.84397 
L 82.111925 -259.323266 
L 82.449245 -261.802562 
L 82.856464 -264.281857 
L 83.336024 -266.761153 
L 83.887315 -269.240449 
L 84.506643 -271.719745 
L 85.187394 -274.199041 
L 85.920392 -276.678336 
L 86.6944 -279.157632 
L 87.496729 -281.636928 
L 88.313895 -284.116224 
L 89.132288 -286.59552 
L 89.938797 -289.074815 
L 90.721353 -291.554111 
L 91.469375 -294.033407 
L 92.174086 -296.512703 
L 92.828699 -298.991999 
L 93.428485 -301.471294 
L 93.970718 -303.95059 
L 94.454532 -306.429886 
L 94.880705 -308.909182 
L 95.251392 -311.388478 
L 98.662608 -311.388478 
L 98.662608 -311.388478 
L 99.033295 -308.909182 
L 99.459468 -306.429886 
L 99.943282 -303.95059 
L 100.485515 -301.471294 
L 101.085301 -298.991999 
L 101.739914 -296.512703 
L 102.444625 -294.033407 
L 103.192647 -291.554111 
L 103.975203 -289.074815 
L 104.781712 -286.59552 
L 105.600105 -284.116224 
L 106.417271 -281.636928 
L 107.2196 -279.157632 
L 107.993608 -276.678336 
L 108.726606 -274.199041 
L 109.407357 -271.719745 
L 110.026685 -269.240449 
L 110.577976 -266.761153 
L 111.057536 -264.281857 
L 111.464755 -261.802562 
L 111.802075 -259.323266 
L 112.074726 -256.84397 
L 112.290272 -254.364674 
L 112.457966 -251.885378 
L 112.587976 -249.406083 
L 112.690537 -246.926787 
L 112.775089 -244.447491 
L 112.84947 -241.968195 
L 112.919242 -239.488899 
L 112.98719 -237.009604 
L 113.053054 -234.530308 
L 113.113496 -232.051012 
L 113.162338 -229.571716 
L 113.191015 -227.09242 
L 113.189242 -224.613125 
L 113.145817 -222.133829 
L 113.049505 -219.654533 
L 112.889932 -217.175237 
L 112.658421 -214.695941 
L 112.348695 -212.216646 
L 111.957416 -209.73735 
L 111.484509 -207.258054 
L 110.933257 -204.778758 
L 110.310172 -202.299462 
L 109.624665 -199.820167 
L 108.888542 -197.340871 
L 108.11538 -194.861575 
L 107.319831 -192.382279 
L 106.516909 -189.902983 
L 105.721312 -187.423688 
L 104.946821 -184.944392 
L 104.205814 -182.465096 
L 103.508901 -179.9858 
L 102.864703 -177.506504 
L 102.279772 -175.027209 
L 101.758611 -172.547913 
L 101.303812 -170.068617 
L 100.916249 -167.589321 
L 100.595316 -165.110025 
L 100.339177 -162.63073 
L 100.145006 -160.151434 
L 100.0092 -157.672138 
L 99.927542 -155.192842 
L 99.895335 -152.713546 
L 99.907475 -150.234251 
L 99.958508 -147.754955 
L 100.04265 -145.275659 
L 100.153805 -142.796363 
L 100.285588 -140.317067 
L 100.431368 -137.837772 
L 100.584336 -135.358476 
L 100.737608 -132.87918 
L 100.884368 -130.399884 
L 101.018034 -127.920588 
L 101.13245 -125.441293 
L 101.222088 -122.961997 
L 101.282243 -120.482701 
L 101.309215 -118.003405 
L 101.300443 -115.524109 
L 101.254609 -113.044814 
L 101.171674 -110.565518 
L 101.052855 -108.086222 
L 100.900554 -105.606926 
L 100.718212 -103.127631 
L 100.510132 -100.648335 
L 100.281263 -98.169039 
L 100.036958 -95.689743 
L 99.782732 -93.210447 
L 99.524028 -90.731152 
L 99.266005 -88.251856 
L 99.013355 -85.77256 
L 98.770167 -83.293264 
L 98.539827 -80.813968 
L 98.324971 -78.334673 
L 98.127472 -75.855377 
L 97.948471 -73.376081 
L 97.788438 -70.896785 
L 97.647249 -68.417489 
L 97.524291 -65.938194 
z
" style="stroke: #303030; stroke-width: 1.5"/>
    </defs>
    <g clip-path="url(#pe1fc3de04f)">
     <use xlink:href="#ma42765798d" x="0" y="360" style="fill: #176d9c; stroke: #303030; stroke-width: 1.5"/>
    </g>
   </g>
   <g id="FillBetweenPolyCollection_2">
    <defs>
     <path id="mb81ac35da1" d="M 305.290208 -84.218829 
L 304.839792 -84.218829 
L 304.772133 -86.328819 
L 304.691125 -88.438809 
L 304.596452 -90.548799 
L 304.488561 -92.658789 
L 304.368817 -94.768779 
L 304.2396 -96.878769 
L 304.104325 -98.988759 
L 303.96736 -101.098749 
L 303.833841 -103.208739 
L 303.709374 -105.318729 
L 303.599667 -107.428719 
L 303.510094 -109.538709 
L 303.445269 -111.648699 
L 303.408647 -113.758689 
L 303.402223 -115.868679 
L 303.42635 -117.978669 
L 303.479707 -120.088659 
L 303.55942 -122.198649 
L 303.661316 -124.308639 
L 303.780286 -126.418629 
L 303.910711 -128.528619 
L 304.046891 -130.63861 
L 304.18345 -132.7486 
L 304.315667 -134.85859 
L 304.439708 -136.96858 
L 304.552749 -139.07857 
L 304.652994 -141.18856 
L 304.739602 -143.29855 
L 304.812551 -145.40854 
L 304.872444 -147.51853 
L 304.920309 -149.62852 
L 304.95739 -151.73851 
L 304.984955 -153.8485 
L 305.004121 -155.95849 
L 305.015704 -158.06848 
L 305.020085 -160.17847 
L 305.017093 -162.28846 
L 305.005899 -164.39845 
L 304.984918 -166.50844 
L 304.951731 -168.61843 
L 304.903034 -170.72842 
L 304.834628 -172.83841 
L 304.741487 -174.9484 
L 304.617913 -177.05839 
L 304.457819 -179.16838 
L 304.255137 -181.27837 
L 304.004371 -183.38836 
L 303.701266 -185.49835 
L 303.34355 -187.608341 
L 302.931679 -189.718331 
L 302.469496 -191.828321 
L 301.964686 -193.938311 
L 301.428931 -196.048301 
L 300.877657 -198.158291 
L 300.329315 -200.268281 
L 299.80418 -202.378271 
L 299.322702 -204.488261 
L 298.903513 -206.598251 
L 298.561239 -208.708241 
L 298.304301 -210.818231 
L 298.132922 -212.928221 
L 298.037533 -215.038211 
L 297.997768 -217.148201 
L 297.982185 -219.258191 
L 297.948825 -221.368181 
L 297.846657 -223.478171 
L 297.617922 -225.588161 
L 297.201353 -227.698151 
L 296.536194 -229.808141 
L 295.56687 -231.918131 
L 294.24811 -234.028121 
L 292.550209 -236.138111 
L 290.464029 -238.248101 
L 288.005238 -240.358091 
L 285.21723 -242.468082 
L 282.172183 -244.578072 
L 278.969784 -246.688062 
L 275.733331 -248.798052 
L 272.603225 -250.908042 
L 269.728132 -253.018032 
L 267.254508 -255.128022 
L 265.315419 -257.238012 
L 264.019807 -259.348002 
L 263.4434 -261.457992 
L 263.622319 -263.567982 
L 264.550155 -265.677972 
L 266.178869 -267.787962 
L 268.423394 -269.897952 
L 271.169374 -272.007942 
L 274.28307 -274.117932 
L 277.622295 -276.227922 
L 281.047149 -278.337912 
L 284.429463 -280.447902 
L 287.660136 -282.557892 
L 290.653871 -284.667882 
L 293.351211 -286.777872 
L 295.71808 -288.887862 
L 297.743314 -290.997852 
L 299.434784 -293.107842 
L 310.695216 -293.107842 
L 310.695216 -293.107842 
L 312.386686 -290.997852 
L 314.41192 -288.887862 
L 316.778789 -286.777872 
L 319.476129 -284.667882 
L 322.469864 -282.557892 
L 325.700537 -280.447902 
L 329.082851 -278.337912 
L 332.507705 -276.227922 
L 335.84693 -274.117932 
L 338.960626 -272.007942 
L 341.706606 -269.897952 
L 343.951131 -267.787962 
L 345.579845 -265.677972 
L 346.507681 -263.567982 
L 346.6866 -261.457992 
L 346.110193 -259.348002 
L 344.814581 -257.238012 
L 342.875492 -255.128022 
L 340.401868 -253.018032 
L 337.526775 -250.908042 
L 334.396669 -248.798052 
L 331.160216 -246.688062 
L 327.957817 -244.578072 
L 324.91277 -242.468082 
L 322.124762 -240.358091 
L 319.665971 -238.248101 
L 317.579791 -236.138111 
L 315.88189 -234.028121 
L 314.56313 -231.918131 
L 313.593806 -229.808141 
L 312.928647 -227.698151 
L 312.512078 -225.588161 
L 312.283343 -223.478171 
L 312.181175 -221.368181 
L 312.147815 -219.258191 
L 312.132232 -217.148201 
L 312.092467 -215.038211 
L 311.997078 -212.928221 
L 311.825699 -210.818231 
L 311.568761 -208.708241 
L 311.226487 -206.598251 
L 310.807298 -204.488261 
L 310.32582 -202.378271 
L 309.800685 -200.268281 
L 309.252343 -198.158291 
L 308.701069 -196.048301 
L 308.165314 -193.938311 
L 307.660504 -191.828321 
L 307.198321 -189.718331 
L 306.78645 -187.608341 
L 306.428734 -185.49835 
L 306.125629 -183.38836 
L 305.874863 -181.27837 
L 305.672181 -179.16838 
L 305.512087 -177.05839 
L 305.388513 -174.9484 
L 305.295372 -172.83841 
L 305.226966 -170.72842 
L 305.178269 -168.61843 
L 305.145082 -166.50844 
L 305.124101 -164.39845 
L 305.112907 -162.28846 
L 305.109915 -160.17847 
L 305.114296 -158.06848 
L 305.125879 -155.95849 
L 305.145045 -153.8485 
L 305.17261 -151.73851 
L 305.209691 -149.62852 
L 305.257556 -147.51853 
L 305.317449 -145.40854 
L 305.390398 -143.29855 
L 305.477006 -141.18856 
L 305.577251 -139.07857 
L 305.690292 -136.96858 
L 305.814333 -134.85859 
L 305.94655 -132.7486 
L 306.083109 -130.63861 
L 306.219289 -128.528619 
L 306.349714 -126.418629 
L 306.468684 -124.308639 
L 306.57058 -122.198649 
L 306.650293 -120.088659 
L 306.70365 -117.978669 
L 306.727777 -115.868679 
L 306.721353 -113.758689 
L 306.684731 -111.648699 
L 306.619906 -109.538709 
L 306.530333 -107.428719 
L 306.420626 -105.318729 
L 306.296159 -103.208739 
L 306.16264 -101.098749 
L 306.025675 -98.988759 
L 305.8904 -96.878769 
L 305.761183 -94.768779 
L 305.641439 -92.658789 
L 305.533548 -90.548799 
L 305.438875 -88.438809 
L 305.357867 -86.328819 
L 305.290208 -84.218829 
z
" style="stroke: #303030; stroke-width: 1.5"/>
    </defs>
    <g clip-path="url(#pe1fc3de04f)">
     <use xlink:href="#mb81ac35da1" x="0" y="360" style="fill: #158b6a; stroke: #303030; stroke-width: 1.5"/>
    </g>
   </g>
   <g id="FillBetweenPolyCollection_3">
    <defs>
     <path id="m9c0f9f99ae" d="M 414.212391 -237.369646 
L 404.025609 -237.369646 
L 403.156047 -238.362997 
L 402.183042 -239.356347 
L 401.103287 -240.349698 
L 399.915169 -241.343048 
L 398.619085 -242.336399 
L 397.217721 -243.329749 
L 395.716303 -244.3231 
L 394.122791 -245.31645 
L 392.448006 -246.309801 
L 390.705672 -247.303151 
L 388.912372 -248.296501 
L 387.08739 -249.289852 
L 385.252458 -250.283202 
L 383.431389 -251.276553 
L 381.649613 -252.269903 
L 379.933616 -253.263254 
L 378.310311 -254.256604 
L 376.806344 -255.249955 
L 375.447376 -256.243305 
L 374.257349 -257.236656 
L 373.257788 -258.230006 
L 372.46714 -259.223357 
L 371.900197 -260.216707 
L 371.567625 -261.210058 
L 371.47561 -262.203408 
L 371.625641 -263.196758 
L 372.014446 -264.190109 
L 372.634067 -265.183459 
L 373.472091 -266.17681 
L 374.512001 -267.17016 
L 375.733656 -268.163511 
L 377.11386 -269.156861 
L 378.627 -270.150212 
L 380.245728 -271.143562 
L 381.941659 -272.136913 
L 383.686056 -273.130263 
L 385.45048 -274.123614 
L 387.207375 -275.116964 
L 388.930585 -276.110315 
L 390.595783 -277.103665 
L 392.180807 -278.097015 
L 393.665899 -279.090366 
L 395.033856 -280.083716 
L 396.270101 -281.077067 
L 397.362681 -282.070417 
L 398.302211 -283.063768 
L 399.081772 -284.057118 
L 399.696791 -285.050469 
L 400.144906 -286.043819 
L 400.425829 -287.03717 
L 400.541227 -288.03052 
L 400.494621 -289.023871 
L 400.291299 -290.017221 
L 399.938261 -291.010572 
L 399.444174 -292.003922 
L 398.819343 -292.997272 
L 398.075683 -293.990623 
L 397.226683 -294.983973 
L 396.28735 -295.977324 
L 395.274128 -296.970674 
L 394.20477 -297.964025 
L 393.098169 -298.957375 
L 391.974136 -299.950726 
L 390.853123 -300.944076 
L 389.755893 -301.937427 
L 388.703151 -302.930777 
L 387.715132 -303.924128 
L 386.81117 -304.917478 
L 386.009258 -305.910829 
L 385.325617 -306.904179 
L 384.77429 -307.897529 
L 384.366788 -308.89088 
L 384.111786 -309.88423 
L 384.014907 -310.877581 
L 384.078585 -311.870931 
L 384.302021 -312.864282 
L 384.681245 -313.857632 
L 385.209262 -314.850983 
L 385.8763 -315.844333 
L 386.670127 -316.837684 
L 387.576445 -317.831034 
L 388.57933 -318.824385 
L 389.661703 -319.817735 
L 390.805819 -320.811086 
L 391.993752 -321.804436 
L 393.207854 -322.797786 
L 394.431181 -323.791137 
L 395.647862 -324.784487 
L 396.843413 -325.777838 
L 398.004981 -326.771188 
L 399.121512 -327.764539 
L 400.183859 -328.757889 
L 401.184808 -329.75124 
L 402.119053 -330.74459 
L 402.98311 -331.737941 
L 403.775189 -332.731291 
L 404.495027 -333.724642 
L 405.143698 -334.717992 
L 405.723406 -335.711343 
L 412.514594 -335.711343 
L 412.514594 -335.711343 
L 413.094302 -334.717992 
L 413.742973 -333.724642 
L 414.462811 -332.731291 
L 415.25489 -331.737941 
L 416.118947 -330.74459 
L 417.053192 -329.75124 
L 418.054141 -328.757889 
L 419.116488 -327.764539 
L 420.233019 -326.771188 
L 421.394587 -325.777838 
L 422.590138 -324.784487 
L 423.806819 -323.791137 
L 425.030146 -322.797786 
L 426.244248 -321.804436 
L 427.432181 -320.811086 
L 428.576297 -319.817735 
L 429.65867 -318.824385 
L 430.661555 -317.831034 
L 431.567873 -316.837684 
L 432.3617 -315.844333 
L 433.028738 -314.850983 
L 433.556755 -313.857632 
L 433.935979 -312.864282 
L 434.159415 -311.870931 
L 434.223093 -310.877581 
L 434.126214 -309.88423 
L 433.871212 -308.89088 
L 433.46371 -307.897529 
L 432.912383 -306.904179 
L 432.228742 -305.910829 
L 431.42683 -304.917478 
L 430.522868 -303.924128 
L 429.534849 -302.930777 
L 428.482107 -301.937427 
L 427.384877 -300.944076 
L 426.263864 -299.950726 
L 425.139831 -298.957375 
L 424.03323 -297.964025 
L 422.963872 -296.970674 
L 421.95065 -295.977324 
L 421.011317 -294.983973 
L 420.162317 -293.990623 
L 419.418657 -292.997272 
L 418.793826 -292.003922 
L 418.299739 -291.010572 
L 417.946701 -290.017221 
L 417.743379 -289.023871 
L 417.696773 -288.03052 
L 417.812171 -287.03717 
L 418.093094 -286.043819 
L 418.541209 -285.050469 
L 419.156228 -284.057118 
L 419.935789 -283.063768 
L 420.875319 -282.070417 
L 421.967899 -281.077067 
L 423.204144 -280.083716 
L 424.572101 -279.090366 
L 426.057193 -278.097015 
L 427.642217 -277.103665 
L 429.307415 -276.110315 
L 431.030625 -275.116964 
L 432.78752 -274.123614 
L 434.551944 -273.130263 
L 436.296341 -272.136913 
L 437.992272 -271.143562 
L 439.611 -270.150212 
L 441.12414 -269.156861 
L 442.504344 -268.163511 
L 443.725999 -267.17016 
L 444.765909 -266.17681 
L 445.603933 -265.183459 
L 446.223554 -264.190109 
L 446.612359 -263.196758 
L 446.76239 -262.203408 
L 446.670375 -261.210058 
L 446.337803 -260.216707 
L 445.77086 -259.223357 
L 444.980212 -258.230006 
L 443.980651 -257.236656 
L 442.790624 -256.243305 
L 441.431656 -255.249955 
L 439.927689 -254.256604 
L 438.304384 -253.263254 
L 436.588387 -252.269903 
L 434.806611 -251.276553 
L 432.985542 -250.283202 
L 431.15061 -249.289852 
L 429.325628 -248.296501 
L 427.532328 -247.303151 
L 425.789994 -246.309801 
L 424.115209 -245.31645 
L 422.521697 -244.3231 
L 421.020279 -243.329749 
L 419.618915 -242.336399 
L 418.322831 -241.343048 
L 417.134713 -240.349698 
L 416.054958 -239.356347 
L 415.081953 -238.362997 
L 414.212391 -237.369646 
z
" style="stroke: #303030; stroke-width: 1.5"/>
    </defs>
    <g clip-path="url(#pe1fc3de04f)">
     <use xlink:href="#m9c0f9f99ae" x="0" y="360" style="fill: #ba611b; stroke: #303030; stroke-width: 1.5"/>
    </g>
   </g>
   <g id="FillBetweenPolyCollection_4">
    <defs>
     <path id="mf7b9edf574" d="M 516.568594 -237.369646 
L 509.777406 -237.369646 
L 509.197698 -238.362997 
L 508.549027 -239.356347 
L 507.829189 -240.349698 
L 507.03711 -241.343048 
L 506.173053 -242.336399 
L 505.238808 -243.329749 
L 504.237859 -244.3231 
L 503.175512 -245.31645 
L 502.058981 -246.309801 
L 500.897413 -247.303151 
L 499.701862 -248.296501 
L 498.485181 -249.289852 
L 497.261854 -250.283202 
L 496.047752 -251.276553 
L 494.859819 -252.269903 
L 493.715703 -253.263254 
L 492.63333 -254.256604 
L 491.630445 -255.249955 
L 490.724127 -256.243305 
L 489.9303 -257.236656 
L 489.263262 -258.230006 
L 488.735245 -259.223357 
L 488.356021 -260.216707 
L 488.132585 -261.210058 
L 488.068907 -262.203408 
L 488.165786 -263.196758 
L 488.420788 -264.190109 
L 488.82829 -265.183459 
L 489.379617 -266.17681 
L 490.063258 -267.17016 
L 490.86517 -268.163511 
L 491.769132 -269.156861 
L 492.757151 -270.150212 
L 493.809893 -271.143562 
L 494.907123 -272.136913 
L 496.028136 -273.130263 
L 497.152169 -274.123614 
L 498.25877 -275.116964 
L 499.328128 -276.110315 
L 500.34135 -277.103665 
L 501.280683 -278.097015 
L 502.129683 -279.090366 
L 502.873343 -280.083716 
L 503.498174 -281.077067 
L 503.992261 -282.070417 
L 504.345299 -283.063768 
L 504.548621 -284.057118 
L 504.595227 -285.050469 
L 504.479829 -286.043819 
L 504.198906 -287.03717 
L 503.750791 -288.03052 
L 503.135772 -289.023871 
L 502.356211 -290.017221 
L 501.416681 -291.010572 
L 500.324101 -292.003922 
L 499.087856 -292.997272 
L 497.719899 -293.990623 
L 496.234807 -294.983973 
L 494.649783 -295.977324 
L 492.984585 -296.970674 
L 491.261375 -297.964025 
L 489.50448 -298.957375 
L 487.740056 -299.950726 
L 485.995659 -300.944076 
L 484.299728 -301.937427 
L 482.681 -302.930777 
L 481.16786 -303.924128 
L 479.787656 -304.917478 
L 478.566001 -305.910829 
L 477.526091 -306.904179 
L 476.688067 -307.897529 
L 476.068446 -308.89088 
L 475.679641 -309.88423 
L 475.52961 -310.877581 
L 475.621625 -311.870931 
L 475.954197 -312.864282 
L 476.52114 -313.857632 
L 477.311788 -314.850983 
L 478.311349 -315.844333 
L 479.501376 -316.837684 
L 480.860344 -317.831034 
L 482.364311 -318.824385 
L 483.987616 -319.817735 
L 485.703613 -320.811086 
L 487.485389 -321.804436 
L 489.306458 -322.797786 
L 491.14139 -323.791137 
L 492.966372 -324.784487 
L 494.759672 -325.777838 
L 496.502006 -326.771188 
L 498.176791 -327.764539 
L 499.770303 -328.757889 
L 501.271721 -329.75124 
L 502.673085 -330.74459 
L 503.969169 -331.737941 
L 505.157287 -332.731291 
L 506.237042 -333.724642 
L 507.210047 -334.717992 
L 508.079609 -335.711343 
L 518.266391 -335.711343 
L 518.266391 -335.711343 
L 519.135953 -334.717992 
L 520.108958 -333.724642 
L 521.188713 -332.731291 
L 522.376831 -331.737941 
L 523.672915 -330.74459 
L 525.074279 -329.75124 
L 526.575697 -328.757889 
L 528.169209 -327.764539 
L 529.843994 -326.771188 
L 531.586328 -325.777838 
L 533.379628 -324.784487 
L 535.20461 -323.791137 
L 537.039542 -322.797786 
L 538.860611 -321.804436 
L 540.642387 -320.811086 
L 542.358384 -319.817735 
L 543.981689 -318.824385 
L 545.485656 -317.831034 
L 546.844624 -316.837684 
L 548.034651 -315.844333 
L 549.034212 -314.850983 
L 549.82486 -313.857632 
L 550.391803 -312.864282 
L 550.724375 -311.870931 
L 550.81639 -310.877581 
L 550.666359 -309.88423 
L 550.277554 -308.89088 
L 549.657933 -307.897529 
L 548.819909 -306.904179 
L 547.779999 -305.910829 
L 546.558344 -304.917478 
L 545.17814 -303.924128 
L 543.665 -302.930777 
L 542.046272 -301.937427 
L 540.350341 -300.944076 
L 538.605944 -299.950726 
L 536.84152 -298.957375 
L 535.084625 -297.964025 
L 533.361415 -296.970674 
L 531.696217 -295.977324 
L 530.111193 -294.983973 
L 528.626101 -293.990623 
L 527.258144 -292.997272 
L 526.021899 -292.003922 
L 524.929319 -291.010572 
L 523.989789 -290.017221 
L 523.210228 -289.023871 
L 522.595209 -288.03052 
L 522.147094 -287.03717 
L 521.866171 -286.043819 
L 521.750773 -285.050469 
L 521.797379 -284.057118 
L 522.000701 -283.063768 
L 522.353739 -282.070417 
L 522.847826 -281.077067 
L 523.472657 -280.083716 
L 524.216317 -279.090366 
L 525.065317 -278.097015 
L 526.00465 -277.103665 
L 527.017872 -276.110315 
L 528.08723 -275.116964 
L 529.193831 -274.123614 
L 530.317864 -273.130263 
L 531.438877 -272.136913 
L 532.536107 -271.143562 
L 533.588849 -270.150212 
L 534.576868 -269.156861 
L 535.48083 -268.163511 
L 536.282742 -267.17016 
L 536.966383 -266.17681 
L 537.51771 -265.183459 
L 537.925212 -264.190109 
L 538.180214 -263.196758 
L 538.277093 -262.203408 
L 538.213415 -261.210058 
L 537.989979 -260.216707 
L 537.610755 -259.223357 
L 537.082738 -258.230006 
L 536.4157 -257.236656 
L 535.621873 -256.243305 
L 534.715555 -255.249955 
L 533.71267 -254.256604 
L 532.630297 -253.263254 
L 531.486181 -252.269903 
L 530.298248 -251.276553 
L 529.084146 -250.283202 
L 527.860819 -249.289852 
L 526.644138 -248.296501 
L 525.448587 -247.303151 
L 524.287019 -246.309801 
L 523.170488 -245.31645 
L 522.108141 -244.3231 
L 521.107192 -243.329749 
L 520.172947 -242.336399 
L 519.30889 -241.343048 
L 518.516811 -240.349698 
L 517.796973 -239.356347 
L 517.148302 -238.362997 
L 516.568594 -237.369646 
z
" style="stroke: #303030; stroke-width: 1.5"/>
    </defs>
    <g clip-path="url(#pe1fc3de04f)">
     <use xlink:href="#mf7b9edf574" x="0" y="360" style="fill: #c282b5; stroke: #303030; stroke-width: 1.5"/>
    </g>
   </g>
   <g id="matplotlib.axis_1">
    <g id="xtick_1">
     <g id="line2d_1">
      <defs>
       <path id="m4dfaaa6ab6" d="M 0 0 
L 0 3.5 
" style="stroke: #000000; stroke-width: 0.8"/>
      </defs>
      <g>
       <use xlink:href="#m4dfaaa6ab6" x="96.957" y="307.550464" style="stroke: #000000; stroke-width: 0.8"/>
      </g>
     </g>
     <g id="text_1">
      <!-- Feng Cha -->
      <g transform="translate(78.129203 344.464498) rotate(-30) scale(0.1 -0.1)">
       <defs>
        <path id="DejaVuSans-46" d="M 628 4666 
L 3309 4666 
L 3309 4134 
L 1259 4134 
L 1259 2759 
L 3109 2759 
L 3109 2228 
L 1259 2228 
L 1259 0 
L 628 0 
L 628 4666 
z
" transform="scale(0.015625)"/>
        <path id="DejaVuSans-65" d="M 3597 1894 
L 3597 1613 
L 953 1613 
Q 991 1019 1311 708 
Q 1631 397 2203 397 
Q 2534 397 2845 478 
Q 3156 559 3463 722 
L 3463 178 
Q 3153 47 2828 -22 
Q 2503 -91 2169 -91 
Q 1331 -91 842 396 
Q 353 884 353 1716 
Q 353 2575 817 3079 
Q 1281 3584 2069 3584 
Q 2775 3584 3186 3129 
Q 3597 2675 3597 1894 
z
M 3022 2063 
Q 3016 2534 2758 2815 
Q 2500 3097 2075 3097 
Q 1594 3097 1305 2825 
Q 1016 2553 972 2059 
L 3022 2063 
z
" transform="scale(0.015625)"/>
        <path id="DejaVuSans-6e" d="M 3513 2113 
L 3513 0 
L 2938 0 
L 2938 2094 
Q 2938 2591 2744 2837 
Q 2550 3084 2163 3084 
Q 1697 3084 1428 2787 
Q 1159 2491 1159 1978 
L 1159 0 
L 581 0 
L 581 3500 
L 1159 3500 
L 1159 2956 
Q 1366 3272 1645 3428 
Q 1925 3584 2291 3584 
Q 2894 3584 3203 3211 
Q 3513 2838 3513 2113 
z
" transform="scale(0.015625)"/>
        <path id="DejaVuSans-67" d="M 2906 1791 
Q 2906 2416 2648 2759 
Q 2391 3103 1925 3103 
Q 1463 3103 1205 2759 
Q 947 2416 947 1791 
Q 947 1169 1205 825 
Q 1463 481 1925 481 
Q 2391 481 2648 825 
Q 2906 1169 2906 1791 
z
M 3481 434 
Q 3481 -459 3084 -895 
Q 2688 -1331 1869 -1331 
Q 1566 -1331 1297 -1286 
Q 1028 -1241 775 -1147 
L 775 -588 
Q 1028 -725 1275 -790 
Q 1522 -856 1778 -856 
Q 2344 -856 2625 -561 
Q 2906 -266 2906 331 
L 2906 616 
Q 2728 306 2450 153 
Q 2172 0 1784 0 
Q 1141 0 747 490 
Q 353 981 353 1791 
Q 353 2603 747 3093 
Q 1141 3584 1784 3584 
Q 2172 3584 2450 3431 
Q 2728 3278 2906 2969 
L 2906 3500 
L 3481 3500 
L 3481 434 
z
" transform="scale(0.015625)"/>
        <path id="DejaVuSans-20" transform="scale(0.015625)"/>
        <path id="DejaVuSans-43" d="M 4122 4306 
L 4122 3641 
Q 3803 3938 3442 4084 
Q 3081 4231 2675 4231 
Q 1875 4231 1450 3742 
Q 1025 3253 1025 2328 
Q 1025 1406 1450 917 
Q 1875 428 2675 428 
Q 3081 428 3442 575 
Q 3803 722 4122 1019 
L 4122 359 
Q 3791 134 3420 21 
Q 3050 -91 2638 -91 
Q 1578 -91 968 557 
Q 359 1206 359 2328 
Q 359 3453 968 4101 
Q 1578 4750 2638 4750 
Q 3056 4750 3426 4639 
Q 3797 4528 4122 4306 
z
" transform="scale(0.015625)"/>
        <path id="DejaVuSans-68" d="M 3513 2113 
L 3513 0 
L 2938 0 
L 2938 2094 
Q 2938 2591 2744 2837 
Q 2550 3084 2163 3084 
Q 1697 3084 1428 2787 
Q 1159 2491 1159 1978 
L 1159 0 
L 581 0 
L 581 4863 
L 1159 4863 
L 1159 2956 
Q 1366 3272 1645 3428 
Q 1925 3584 2291 3584 
Q 2894 3584 3203 3211 
Q 3513 2838 3513 2113 
z
" transform="scale(0.015625)"/>
        <path id="DejaVuSans-61" d="M 2194 1759 
Q 1497 1759 1228 1600 
Q 959 1441 959 1056 
Q 959 750 1161 570 
Q 1363 391 1709 391 
Q 2188 391 2477 730 
Q 2766 1069 2766 1631 
L 2766 1759 
L 2194 1759 
z
M 3341 1997 
L 3341 0 
L 2766 0 
L 2766 531 
Q 2569 213 2275 61 
Q 1981 -91 1556 -91 
Q 1019 -91 701 211 
Q 384 513 384 1019 
Q 384 1609 779 1909 
Q 1175 2209 1959 2209 
L 2766 2209 
L 2766 2266 
Q 2766 2663 2505 2880 
Q 2244 3097 1772 3097 
Q 1472 3097 1187 3025 
Q 903 2953 641 2809 
L 641 3341 
Q 956 3463 1253 3523 
Q 1550 3584 1831 3584 
Q 2591 3584 2966 3190 
Q 3341 2797 3341 1997 
z
" transform="scale(0.015625)"/>
       </defs>
       <use xlink:href="#DejaVuSans-46"/>
       <use xlink:href="#DejaVuSans-65" transform="translate(52.019531 0)"/>
       <use xlink:href="#DejaVuSans-6e" transform="translate(113.542969 0)"/>
       <use xlink:href="#DejaVuSans-67" transform="translate(176.921875 0)"/>
       <use xlink:href="#DejaVuSans-20" transform="translate(240.398438 0)"/>
       <use xlink:href="#DejaVuSans-43" transform="translate(272.185547 0)"/>
       <use xlink:href="#DejaVuSans-68" transform="translate(342.009766 0)"/>
       <use xlink:href="#DejaVuSans-61" transform="translate(405.388672 0)"/>
      </g>
     </g>
    </g>
    <g id="xtick_2">
     <g id="line2d_2">
      <g>
       <use xlink:href="#m4dfaaa6ab6" x="201.011" y="307.550464" style="stroke: #000000; stroke-width: 0.8"/>
      </g>
     </g>
     <g id="text_2">
      <!-- Sharetea -->
      <g transform="translate(182.881436 343.658248) rotate(-30) scale(0.1 -0.1)">
       <defs>
        <path id="DejaVuSans-53" d="M 3425 4513 
L 3425 3897 
Q 3066 4069 2747 4153 
Q 2428 4238 2131 4238 
Q 1616 4238 1336 4038 
Q 1056 3838 1056 3469 
Q 1056 3159 1242 3001 
Q 1428 2844 1947 2747 
L 2328 2669 
Q 3034 2534 3370 2195 
Q 3706 1856 3706 1288 
Q 3706 609 3251 259 
Q 2797 -91 1919 -91 
Q 1588 -91 1214 -16 
Q 841 59 441 206 
L 441 856 
Q 825 641 1194 531 
Q 1563 422 1919 422 
Q 2459 422 2753 634 
Q 3047 847 3047 1241 
Q 3047 1584 2836 1778 
Q 2625 1972 2144 2069 
L 1759 2144 
Q 1053 2284 737 2584 
Q 422 2884 422 3419 
Q 422 4038 858 4394 
Q 1294 4750 2059 4750 
Q 2388 4750 2728 4690 
Q 3069 4631 3425 4513 
z
" transform="scale(0.015625)"/>
        <path id="DejaVuSans-72" d="M 2631 2963 
Q 2534 3019 2420 3045 
Q 2306 3072 2169 3072 
Q 1681 3072 1420 2755 
Q 1159 2438 1159 1844 
L 1159 0 
L 581 0 
L 581 3500 
L 1159 3500 
L 1159 2956 
Q 1341 3275 1631 3429 
Q 1922 3584 2338 3584 
Q 2397 3584 2469 3576 
Q 2541 3569 2628 3553 
L 2631 2963 
z
" transform="scale(0.015625)"/>
        <path id="DejaVuSans-74" d="M 1172 4494 
L 1172 3500 
L 2356 3500 
L 2356 3053 
L 1172 3053 
L 1172 1153 
Q 1172 725 1289 603 
Q 1406 481 1766 481 
L 2356 481 
L 2356 0 
L 1766 0 
Q 1100 0 847 248 
Q 594 497 594 1153 
L 594 3053 
L 172 3053 
L 172 3500 
L 594 3500 
L 594 4494 
L 1172 4494 
z
" transform="scale(0.015625)"/>
       </defs>
       <use xlink:href="#DejaVuSans-53"/>
       <use xlink:href="#DejaVuSans-68" transform="translate(63.476562 0)"/>
       <use xlink:href="#DejaVuSans-61" transform="translate(126.855469 0)"/>
       <use xlink:href="#DejaVuSans-72" transform="translate(188.134766 0)"/>
       <use xlink:href="#DejaVuSans-65" transform="translate(226.998047 0)"/>
       <use xlink:href="#DejaVuSans-74" transform="translate(288.521484 0)"/>
       <use xlink:href="#DejaVuSans-65" transform="translate(327.730469 0)"/>
       <use xlink:href="#DejaVuSans-61" transform="translate(389.253906 0)"/>
      </g>
     </g>
    </g>
    <g id="xtick_3">
     <g id="line2d_3">
      <g>
       <use xlink:href="#m4dfaaa6ab6" x="305.065" y="307.550464" style="stroke: #000000; stroke-width: 0.8"/>
      </g>
     </g>
     <g id="text_3">
      <!-- Bear Cup -->
      <g transform="translate(286.482802 344.180904) rotate(-30) scale(0.1 -0.1)">
       <defs>
        <path id="DejaVuSans-42" d="M 1259 2228 
L 1259 519 
L 2272 519 
Q 2781 519 3026 730 
Q 3272 941 3272 1375 
Q 3272 1813 3026 2020 
Q 2781 2228 2272 2228 
L 1259 2228 
z
M 1259 4147 
L 1259 2741 
L 2194 2741 
Q 2656 2741 2882 2914 
Q 3109 3088 3109 3444 
Q 3109 3797 2882 3972 
Q 2656 4147 2194 4147 
L 1259 4147 
z
M 628 4666 
L 2241 4666 
Q 2963 4666 3353 4366 
Q 3744 4066 3744 3513 
Q 3744 3084 3544 2831 
Q 3344 2578 2956 2516 
Q 3422 2416 3680 2098 
Q 3938 1781 3938 1306 
Q 3938 681 3513 340 
Q 3088 0 2303 0 
L 628 0 
L 628 4666 
z
" transform="scale(0.015625)"/>
        <path id="DejaVuSans-75" d="M 544 1381 
L 544 3500 
L 1119 3500 
L 1119 1403 
Q 1119 906 1312 657 
Q 1506 409 1894 409 
Q 2359 409 2629 706 
Q 2900 1003 2900 1516 
L 2900 3500 
L 3475 3500 
L 3475 0 
L 2900 0 
L 2900 538 
Q 2691 219 2414 64 
Q 2138 -91 1772 -91 
Q 1169 -91 856 284 
Q 544 659 544 1381 
z
M 1991 3584 
L 1991 3584 
z
" transform="scale(0.015625)"/>
        <path id="DejaVuSans-70" d="M 1159 525 
L 1159 -1331 
L 581 -1331 
L 581 3500 
L 1159 3500 
L 1159 2969 
Q 1341 3281 1617 3432 
Q 1894 3584 2278 3584 
Q 2916 3584 3314 3078 
Q 3713 2572 3713 1747 
Q 3713 922 3314 415 
Q 2916 -91 2278 -91 
Q 1894 -91 1617 61 
Q 1341 213 1159 525 
z
M 3116 1747 
Q 3116 2381 2855 2742 
Q 2594 3103 2138 3103 
Q 1681 3103 1420 2742 
Q 1159 2381 1159 1747 
Q 1159 1113 1420 752 
Q 1681 391 2138 391 
Q 2594 391 2855 752 
Q 3116 1113 3116 1747 
z
" transform="scale(0.015625)"/>
       </defs>
       <use xlink:href="#DejaVuSans-42"/>
       <use xlink:href="#DejaVuSans-65" transform="translate(68.603516 0)"/>
       <use xlink:href="#DejaVuSans-61" transform="translate(130.126953 0)"/>
       <use xlink:href="#DejaVuSans-72" transform="translate(191.40625 0)"/>
       <use xlink:href="#DejaVuSans-20" transform="translate(232.519531 0)"/>
       <use xlink:href="#DejaVuSans-43" transform="translate(264.306641 0)"/>
       <use xlink:href="#DejaVuSans-75" transform="translate(334.130859 0)"/>
       <use xlink:href="#DejaVuSans-70" transform="translate(397.509766 0)"/>
      </g>
     </g>
    </g>
    <g id="xtick_4">
     <g id="line2d_4">
      <g>
       <use xlink:href="#m4dfaaa6ab6" x="409.119" y="307.550464" style="stroke: #000000; stroke-width: 0.8"/>
      </g>
     </g>
     <g id="text_4">
      <!-- Wushiland -->
      <g transform="translate(388.077425 347.020748) rotate(-30) scale(0.1 -0.1)">
       <defs>
        <path id="DejaVuSans-57" d="M 213 4666 
L 850 4666 
L 1831 722 
L 2809 4666 
L 3519 4666 
L 4500 722 
L 5478 4666 
L 6119 4666 
L 4947 0 
L 4153 0 
L 3169 4050 
L 2175 0 
L 1381 0 
L 213 4666 
z
" transform="scale(0.015625)"/>
        <path id="DejaVuSans-73" d="M 2834 3397 
L 2834 2853 
Q 2591 2978 2328 3040 
Q 2066 3103 1784 3103 
Q 1356 3103 1142 2972 
Q 928 2841 928 2578 
Q 928 2378 1081 2264 
Q 1234 2150 1697 2047 
L 1894 2003 
Q 2506 1872 2764 1633 
Q 3022 1394 3022 966 
Q 3022 478 2636 193 
Q 2250 -91 1575 -91 
Q 1294 -91 989 -36 
Q 684 19 347 128 
L 347 722 
Q 666 556 975 473 
Q 1284 391 1588 391 
Q 1994 391 2212 530 
Q 2431 669 2431 922 
Q 2431 1156 2273 1281 
Q 2116 1406 1581 1522 
L 1381 1569 
Q 847 1681 609 1914 
Q 372 2147 372 2553 
Q 372 3047 722 3315 
Q 1072 3584 1716 3584 
Q 2034 3584 2315 3537 
Q 2597 3491 2834 3397 
z
" transform="scale(0.015625)"/>
        <path id="DejaVuSans-69" d="M 603 3500 
L 1178 3500 
L 1178 0 
L 603 0 
L 603 3500 
z
M 603 4863 
L 1178 4863 
L 1178 4134 
L 603 4134 
L 603 4863 
z
" transform="scale(0.015625)"/>
        <path id="DejaVuSans-6c" d="M 603 4863 
L 1178 4863 
L 1178 0 
L 603 0 
L 603 4863 
z
" transform="scale(0.015625)"/>
        <path id="DejaVuSans-64" d="M 2906 2969 
L 2906 4863 
L 3481 4863 
L 3481 0 
L 2906 0 
L 2906 525 
Q 2725 213 2448 61 
Q 2172 -91 1784 -91 
Q 1150 -91 751 415 
Q 353 922 353 1747 
Q 353 2572 751 3078 
Q 1150 3584 1784 3584 
Q 2172 3584 2448 3432 
Q 2725 3281 2906 2969 
z
M 947 1747 
Q 947 1113 1208 752 
Q 1469 391 1925 391 
Q 2381 391 2643 752 
Q 2906 1113 2906 1747 
Q 2906 2381 2643 2742 
Q 2381 3103 1925 3103 
Q 1469 3103 1208 2742 
Q 947 2381 947 1747 
z
" transform="scale(0.015625)"/>
       </defs>
       <use xlink:href="#DejaVuSans-57"/>
       <use xlink:href="#DejaVuSans-75" transform="translate(95.251953 0)"/>
       <use xlink:href="#DejaVuSans-73" transform="translate(158.630859 0)"/>
       <use xlink:href="#DejaVuSans-68" transform="translate(210.730469 0)"/>
       <use xlink:href="#DejaVuSans-69" transform="translate(274.109375 0)"/>
       <use xlink:href="#DejaVuSans-6c" transform="translate(301.892578 0)"/>
       <use xlink:href="#DejaVuSans-61" transform="translate(329.675781 0)"/>
       <use xlink:href="#DejaVuSans-6e" transform="translate(390.955078 0)"/>
       <use xlink:href="#DejaVuSans-64" transform="translate(454.333984 0)"/>
      </g>
     </g>
    </g>
    <g id="xtick_5">
     <g id="line2d_5">
      <g>
       <use xlink:href="#m4dfaaa6ab6" x="513.173" y="307.550464" style="stroke: #000000; stroke-width: 0.8"/>
      </g>
     </g>
     <g id="text_5">
      <!-- Sunright -->
      <g transform="translate(496.141529 342.390279) rotate(-30) scale(0.1 -0.1)">
       <use xlink:href="#DejaVuSans-53"/>
       <use xlink:href="#DejaVuSans-75" transform="translate(63.476562 0)"/>
       <use xlink:href="#DejaVuSans-6e" transform="translate(126.855469 0)"/>
       <use xlink:href="#DejaVuSans-72" transform="translate(190.234375 0)"/>
       <use xlink:href="#DejaVuSans-69" transform="translate(231.347656 0)"/>
       <use xlink:href="#DejaVuSans-67" transform="translate(259.130859 0)"/>
       <use xlink:href="#DejaVuSans-68" transform="translate(322.607422 0)"/>
       <use xlink:href="#DejaVuSans-74" transform="translate(385.986328 0)"/>
      </g>
     </g>
    </g>
   </g>
   <g id="matplotlib.axis_2">
    <g id="ytick_1">
     <g id="line2d_6">
      <defs>
       <path id="mdbd0df6e12" d="M 0 0 
L -3.5 0 
" style="stroke: #000000; stroke-width: 0.8"/>
      </defs>
      <g>
       <use xlink:href="#mdbd0df6e12" x="44.93" y="293.683113" style="stroke: #000000; stroke-width: 0.8"/>
      </g>
     </g>
     <g id="text_6">
      <!-- 18 -->
      <g transform="translate(25.205 297.482332) scale(0.1 -0.1)">
       <defs>
        <path id="DejaVuSans-31" d="M 794 531 
L 1825 531 
L 1825 4091 
L 703 3866 
L 703 4441 
L 1819 4666 
L 2450 4666 
L 2450 531 
L 3481 531 
L 3481 0 
L 794 0 
L 794 531 
z
" transform="scale(0.015625)"/>
        <path id="DejaVuSans-38" d="M 2034 2216 
Q 1584 2216 1326 1975 
Q 1069 1734 1069 1313 
Q 1069 891 1326 650 
Q 1584 409 2034 409 
Q 2484 409 2743 651 
Q 3003 894 3003 1313 
Q 3003 1734 2745 1975 
Q 2488 2216 2034 2216 
z
M 1403 2484 
Q 997 2584 770 2862 
Q 544 3141 544 3541 
Q 544 4100 942 4425 
Q 1341 4750 2034 4750 
Q 2731 4750 3128 4425 
Q 3525 4100 3525 3541 
Q 3525 3141 3298 2862 
Q 3072 2584 2669 2484 
Q 3125 2378 3379 2068 
Q 3634 1759 3634 1313 
Q 3634 634 3220 271 
Q 2806 -91 2034 -91 
Q 1263 -91 848 271 
Q 434 634 434 1313 
Q 434 1759 690 2068 
Q 947 2378 1403 2484 
z
M 1172 3481 
Q 1172 3119 1398 2916 
Q 1625 2713 2034 2713 
Q 2441 2713 2670 2916 
Q 2900 3119 2900 3481 
Q 2900 3844 2670 4047 
Q 2441 4250 2034 4250 
Q 1625 4250 1398 4047 
Q 1172 3844 1172 3481 
z
" transform="scale(0.015625)"/>
       </defs>
       <use xlink:href="#DejaVuSans-31"/>
       <use xlink:href="#DejaVuSans-38" transform="translate(63.623047 0)"/>
      </g>
     </g>
    </g>
    <g id="ytick_2">
     <g id="line2d_7">
      <g>
       <use xlink:href="#mdbd0df6e12" x="44.93" y="244.744534" style="stroke: #000000; stroke-width: 0.8"/>
      </g>
     </g>
     <g id="text_7">
      <!-- 19 -->
      <g transform="translate(25.205 248.543752) scale(0.1 -0.1)">
       <defs>
        <path id="DejaVuSans-39" d="M 703 97 
L 703 672 
Q 941 559 1184 500 
Q 1428 441 1663 441 
Q 2288 441 2617 861 
Q 2947 1281 2994 2138 
Q 2813 1869 2534 1725 
Q 2256 1581 1919 1581 
Q 1219 1581 811 2004 
Q 403 2428 403 3163 
Q 403 3881 828 4315 
Q 1253 4750 1959 4750 
Q 2769 4750 3195 4129 
Q 3622 3509 3622 2328 
Q 3622 1225 3098 567 
Q 2575 -91 1691 -91 
Q 1453 -91 1209 -44 
Q 966 3 703 97 
z
M 1959 2075 
Q 2384 2075 2632 2365 
Q 2881 2656 2881 3163 
Q 2881 3666 2632 3958 
Q 2384 4250 1959 4250 
Q 1534 4250 1286 3958 
Q 1038 3666 1038 3163 
Q 1038 2656 1286 2365 
Q 1534 2075 1959 2075 
z
" transform="scale(0.015625)"/>
       </defs>
       <use xlink:href="#DejaVuSans-31"/>
       <use xlink:href="#DejaVuSans-39" transform="translate(63.623047 0)"/>
      </g>
     </g>
    </g>
    <g id="ytick_3">
     <g id="line2d_8">
      <g>
       <use xlink:href="#mdbd0df6e12" x="44.93" y="195.805954" style="stroke: #000000; stroke-width: 0.8"/>
      </g>
     </g>
     <g id="text_8">
      <!-- 20 -->
      <g transform="translate(25.205 199.605173) scale(0.1 -0.1)">
       <defs>
        <path id="DejaVuSans-32" d="M 1228 531 
L 3431 531 
L 3431 0 
L 469 0 
L 469 531 
Q 828 903 1448 1529 
Q 2069 2156 2228 2338 
Q 2531 2678 2651 2914 
Q 2772 3150 2772 3378 
Q 2772 3750 2511 3984 
Q 2250 4219 1831 4219 
Q 1534 4219 1204 4116 
Q 875 4013 500 3803 
L 500 4441 
Q 881 4594 1212 4672 
Q 1544 4750 1819 4750 
Q 2544 4750 2975 4387 
Q 3406 4025 3406 3419 
Q 3406 3131 3298 2873 
Q 3191 2616 2906 2266 
Q 2828 2175 2409 1742 
Q 1991 1309 1228 531 
z
" transform="scale(0.015625)"/>
        <path id="DejaVuSans-30" d="M 2034 4250 
Q 1547 4250 1301 3770 
Q 1056 3291 1056 2328 
Q 1056 1369 1301 889 
Q 1547 409 2034 409 
Q 2525 409 2770 889 
Q 3016 1369 3016 2328 
Q 3016 3291 2770 3770 
Q 2525 4250 2034 4250 
z
M 2034 4750 
Q 2819 4750 3233 4129 
Q 3647 3509 3647 2328 
Q 3647 1150 3233 529 
Q 2819 -91 2034 -91 
Q 1250 -91 836 529 
Q 422 1150 422 2328 
Q 422 3509 836 4129 
Q 1250 4750 2034 4750 
z
" transform="scale(0.015625)"/>
       </defs>
       <use xlink:href="#DejaVuSans-32"/>
       <use xlink:href="#DejaVuSans-30" transform="translate(63.623047 0)"/>
      </g>
     </g>
    </g>
    <g id="ytick_4">
     <g id="line2d_9">
      <g>
       <use xlink:href="#mdbd0df6e12" x="44.93" y="146.867375" style="stroke: #000000; stroke-width: 0.8"/>
      </g>
     </g>
     <g id="text_9">
      <!-- 21 -->
      <g transform="translate(25.205 150.666593) scale(0.1 -0.1)">
       <use xlink:href="#DejaVuSans-32"/>
       <use xlink:href="#DejaVuSans-31" transform="translate(63.623047 0)"/>
      </g>
     </g>
    </g>
    <g id="ytick_5">
     <g id="line2d_10">
      <g>
       <use xlink:href="#mdbd0df6e12" x="44.93" y="97.928795" style="stroke: #000000; stroke-width: 0.8"/>
      </g>
     </g>
     <g id="text_10">
      <!-- 22 -->
      <g transform="translate(25.205 101.728014) scale(0.1 -0.1)">
       <use xlink:href="#DejaVuSans-32"/>
       <use xlink:href="#DejaVuSans-32" transform="translate(63.623047 0)"/>
      </g>
     </g>
    </g>
    <g id="ytick_6">
     <g id="line2d_11">
      <g>
       <use xlink:href="#mdbd0df6e12" x="44.93" y="48.990216" style="stroke: #000000; stroke-width: 0.8"/>
      </g>
     </g>
     <g id="text_11">
      <!-- 23 -->
      <g transform="translate(25.205 52.789435) scale(0.1 -0.1)">
       <defs>
        <path id="DejaVuSans-33" d="M 2597 2516 
Q 3050 2419 3304 2112 
Q 3559 1806 3559 1356 
Q 3559 666 3084 287 
Q 2609 -91 1734 -91 
Q 1441 -91 1130 -33 
Q 819 25 488 141 
L 488 750 
Q 750 597 1062 519 
Q 1375 441 1716 441 
Q 2309 441 2620 675 
Q 2931 909 2931 1356 
Q 2931 1769 2642 2001 
Q 2353 2234 1838 2234 
L 1294 2234 
L 1294 2753 
L 1863 2753 
Q 2328 2753 2575 2939 
Q 2822 3125 2822 3475 
Q 2822 3834 2567 4026 
Q 2313 4219 1838 4219 
Q 1578 4219 1281 4162 
Q 984 4106 628 3988 
L 628 4550 
Q 988 4650 1302 4700 
Q 1616 4750 1894 4750 
Q 2613 4750 3031 4423 
Q 3450 4097 3450 3541 
Q 3450 3153 3228 2886 
Q 3006 2619 2597 2516 
z
" transform="scale(0.015625)"/>
       </defs>
       <use xlink:href="#DejaVuSans-32"/>
       <use xlink:href="#DejaVuSans-33" transform="translate(63.623047 0)"/>
      </g>
     </g>
    </g>
    <g id="text_12">
     <!-- clear_raw -->
     <g transform="translate(18.847188 183.218201) rotate(-90) scale(0.1 -0.1)">
      <defs>
       <path id="DejaVuSans-63" d="M 3122 3366 
L 3122 2828 
Q 2878 2963 2633 3030 
Q 2388 3097 2138 3097 
Q 1578 3097 1268 2742 
Q 959 2388 959 1747 
Q 959 1106 1268 751 
Q 1578 397 2138 397 
Q 2388 397 2633 464 
Q 2878 531 3122 666 
L 3122 134 
Q 2881 22 2623 -34 
Q 2366 -91 2075 -91 
Q 1284 -91 818 406 
Q 353 903 353 1747 
Q 353 2603 823 3093 
Q 1294 3584 2113 3584 
Q 2378 3584 2631 3529 
Q 2884 3475 3122 3366 
z
" transform="scale(0.015625)"/>
       <path id="DejaVuSans-5f" d="M 3263 -1063 
L 3263 -1509 
L -63 -1509 
L -63 -1063 
L 3263 -1063 
z
" transform="scale(0.015625)"/>
       <path id="DejaVuSans-77" d="M 269 3500 
L 844 3500 
L 1563 769 
L 2278 3500 
L 2956 3500 
L 3675 769 
L 4391 3500 
L 4966 3500 
L 4050 0 
L 3372 0 
L 2619 2869 
L 1863 0 
L 1184 0 
L 269 3500 
z
" transform="scale(0.015625)"/>
      </defs>
      <use xlink:href="#DejaVuSans-63"/>
      <use xlink:href="#DejaVuSans-6c" transform="translate(54.980469 0)"/>
      <use xlink:href="#DejaVuSans-65" transform="translate(82.763672 0)"/>
      <use xlink:href="#DejaVuSans-61" transform="translate(144.287109 0)"/>
      <use xlink:href="#DejaVuSans-72" transform="translate(205.566406 0)"/>
      <use xlink:href="#DejaVuSans-5f" transform="translate(246.679688 0)"/>
      <use xlink:href="#DejaVuSans-72" transform="translate(296.679688 0)"/>
      <use xlink:href="#DejaVuSans-61" transform="translate(337.792969 0)"/>
      <use xlink:href="#DejaVuSans-77" transform="translate(399.072266 0)"/>
     </g>
    </g>
   </g>
   <g id="line2d_12">
    <path d="M 96.957 195.805954 
L 96.957 97.928795 
" clip-path="url(#pe1fc3de04f)" style="fill: none; stroke: #303030; stroke-width: 1.5; stroke-linecap: square"/>
   </g>
   <g id="line2d_13">
    <path d="M 96.957 146.867375 
L 96.957 97.928795 
" clip-path="url(#pe1fc3de04f)" style="fill: none; stroke: #303030; stroke-width: 4.5; stroke-linecap: square"/>
   </g>
   <g id="line2d_14">
    <path d="M 159.3894 48.990216 
L 242.6326 48.990216 
" clip-path="url(#pe1fc3de04f)" style="fill: none; stroke: #303030; stroke-width: 1.5; stroke-linecap: square"/>
   </g>
   <g id="line2d_15">
    <path d="M 305.065 97.928795 
L 305.065 97.928795 
" clip-path="url(#pe1fc3de04f)" style="fill: none; stroke: #303030; stroke-width: 1.5; stroke-linecap: square"/>
   </g>
   <g id="line2d_16">
    <path d="M 305.065 97.928795 
L 305.065 97.928795 
" clip-path="url(#pe1fc3de04f)" style="fill: none; stroke: #303030; stroke-width: 4.5; stroke-linecap: square"/>
   </g>
   <g id="line2d_17">
    <path d="M 409.119 97.928795 
L 409.119 48.990216 
" clip-path="url(#pe1fc3de04f)" style="fill: none; stroke: #303030; stroke-width: 1.5; stroke-linecap: square"/>
   </g>
   <g id="line2d_18">
    <path d="M 409.119 97.928795 
L 409.119 48.990216 
" clip-path="url(#pe1fc3de04f)" style="fill: none; stroke: #303030; stroke-width: 4.5; stroke-linecap: square"/>
   </g>
   <g id="line2d_19">
    <path d="M 513.173 97.928795 
L 513.173 48.990216 
" clip-path="url(#pe1fc3de04f)" style="fill: none; stroke: #303030; stroke-width: 1.5; stroke-linecap: square"/>
   </g>
   <g id="line2d_20">
    <path d="M 513.173 97.928795 
L 513.173 48.990216 
" clip-path="url(#pe1fc3de04f)" style="fill: none; stroke: #303030; stroke-width: 4.5; stroke-linecap: square"/>
   </g>
   <g id="patch_3">
    <path d="M 44.93 307.550464 
L 44.93 10.8 
" style="fill: none; stroke: #000000; stroke-width: 0.8; stroke-linejoin: miter; stroke-linecap: square"/>
   </g>
   <g id="patch_4">
    <path d="M 565.2 307.550464 
L 565.2 10.8 
" style="fill: none; stroke: #000000; stroke-width: 0.8; stroke-linejoin: miter; stroke-linecap: square"/>
   </g>
   <g id="patch_5">
    <path d="M 44.93 307.550464 
L 565.2 307.550464 
" style="fill: none; stroke: #000000; stroke-width: 0.8; stroke-linejoin: miter; stroke-linecap: square"/>
   </g>
   <g id="patch_6">
    <path d="M 44.93 10.8 
L 565.2 10.8 
" style="fill: none; stroke: #000000; stroke-width: 0.8; stroke-linejoin: miter; stroke-linecap: square"/>
   </g>
   <g id="PathCollection_1">
    <defs>
     <path id="m9b4e6ba104" d="M 0 1.5 
C 0.397805 1.5 0.77937 1.341951 1.06066 1.06066 
C 1.341951 0.77937 1.5 0.397805 1.5 0 
C 1.5 -0.397805 1.341951 -0.77937 1.06066 -1.06066 
C 0.77937 -1.341951 0.397805 -1.5 0 -1.5 
C -0.397805 -1.5 -0.77937 -1.341951 -1.06066 -1.06066 
C -1.341951 -0.77937 -1.5 -0.397805 -1.5 0 
C -1.5 0.397805 -1.341951 0.77937 -1.06066 1.06066 
C -0.77937 1.341951 -0.397805 1.5 0 1.5 
z
" style="stroke: #303030"/>
    </defs>
    <g clip-path="url(#pe1fc3de04f)">
     <use xlink:href="#m9b4e6ba104" x="96.957" y="146.867375" style="fill: #ffffff; stroke: #303030"/>
    </g>
   </g>
   <g id="PathCollection_2">
    <g clip-path="url(#pe1fc3de04f)">
     <use xlink:href="#m9b4e6ba104" x="305.065" y="97.928795" style="fill: #ffffff; stroke: #303030"/>
    </g>
   </g>
   <g id="PathCollection_3">
    <g clip-path="url(#pe1fc3de04f)">
     <use xlink:href="#m9b4e6ba104" x="409.119" y="97.928795" style="fill: #ffffff; stroke: #303030"/>
    </g>
   </g>
   <g id="PathCollection_4">
    <g clip-path="url(#pe1fc3de04f)">
     <use xlink:href="#m9b4e6ba104" x="513.173" y="48.990216" style="fill: #ffffff; stroke: #303030"/>
    </g>
   </g>
  </g>
 </g>
 <defs>
  <clipPath id="pe1fc3de04f">
   <rect x="44.93" y="10.8" width="520.27" height="296.750464"/>
  </clipPath>
 </defs>
</svg>
