<?xml version="1.0" encoding="utf-8" standalone="no"?>
<!DOCTYPE svg PUBLIC "-//W3C//DTD SVG 1.1//EN"
  "http://www.w3.org/Graphics/SVG/1.1/DTD/svg11.dtd">
<svg xmlns:xlink="http://www.w3.org/1999/xlink" width="576pt" height="360pt" viewBox="0 0 576 360" xmlns="http://www.w3.org/2000/svg" version="1.1">
 <metadata>
  <rdf:RDF xmlns:dc="http://purl.org/dc/elements/1.1/" xmlns:cc="http://creativecommons.org/ns#" xmlns:rdf="http://www.w3.org/1999/02/22-rdf-syntax-ns#">
   <cc:Work>
    <dc:type rdf:resource="http://purl.org/dc/dcmitype/StillImage"/>
    <dc:date>2026-01-20T07:59:46.144575</dc:date>
    <dc:format>image/svg+xml</dc:format>
    <dc:creator>
     <cc:Agent>
      <dc:title>Matplotlib v3.10.0, https://matplotlib.org/</dc:title>
     </cc:Agent>
    </dc:creator>
   </cc:Work>
  </rdf:RDF>
 </metadata>
 <defs>
  <style type="text/css">*{stroke-linejoin: round; stroke-linecap: butt}</style>
 </defs>
 <g id="figure_1">
  <g id="patch_1">
   <path d="M 0 360 
L 576 360 
L 576 0 
L 0 0 
z
" style="fill: #ffffff"/>
  </g>
  <g id="axes_1">
   <g id="patch_2">
    <path d="M 44.93 307.550464 
L 565.2 307.550464 
L 565.2 12.109525 
L 44.93 12.109525 
z
" style="fill: #ffffff"/>
   </g>
   <g id="FillBetweenPolyCollection_1">
    <defs>
     <path id="mc72fe2b641" d="M 97.082625 -76.522311 
L 96.831375 -76.522311 
L 96.803128 -77.98019 
L 96.770379 -79.438068 
L 96.732856 -80.895947 
L 96.690375 -82.353825 
L 96.642849 -83.811704 
L 96.590309 -85.269583 
L 96.532911 -86.727461 
L 96.470943 -88.18534 
L 96.40482 -89.643218 
L 96.335079 -91.101097 
L 96.262357 -92.558975 
L 96.187374 -94.016854 
L 96.110901 -95.474732 
L 96.033735 -96.932611 
L 95.956667 -98.39049 
L 95.880457 -99.848368 
L 95.805814 -101.306247 
L 95.733381 -102.764125 
L 95.663731 -104.222004 
L 95.597373 -105.679882 
L 95.534764 -107.137761 
L 95.476328 -108.595639 
L 95.42248 -110.053518 
L 95.37365 -111.511397 
L 95.330301 -112.969275 
L 95.292943 -114.427154 
L 95.262134 -115.885032 
L 95.238469 -117.342911 
L 95.222557 -118.800789 
L 95.214983 -120.258668 
L 95.216257 -121.716546 
L 95.226765 -123.174425 
L 95.246703 -124.632304 
L 95.276028 -126.090182 
L 95.314401 -127.548061 
L 95.361155 -129.005939 
L 95.415269 -130.463818 
L 95.475365 -131.921696 
L 95.539721 -133.379575 
L 95.606305 -134.837453 
L 95.672822 -136.295332 
L 95.736777 -137.753211 
L 95.795547 -139.211089 
L 95.846453 -140.668968 
L 95.88684 -142.126846 
L 95.914139 -143.584725 
L 95.925934 -145.042603 
L 95.920002 -146.500482 
L 95.894351 -147.95836 
L 95.847227 -149.416239 
L 95.777116 -150.874118 
L 95.682727 -152.331996 
L 95.562963 -153.789875 
L 95.416885 -155.247753 
L 95.243671 -156.705632 
L 95.04259 -158.16351 
L 94.812979 -159.621389 
L 94.554241 -161.079267 
L 94.265878 -162.537146 
L 93.947548 -163.995025 
L 93.599159 -165.452903 
L 93.220997 -166.910782 
L 92.813884 -168.36866 
L 92.379358 -169.826539 
L 91.919854 -171.284417 
L 91.438885 -172.742296 
L 90.941181 -174.200174 
L 90.432796 -175.658053 
L 89.921126 -177.115932 
L 89.41486 -178.57381 
L 88.923822 -180.031689 
L 88.458722 -181.489567 
L 88.030807 -182.947446 
L 87.651437 -184.405324 
L 87.33159 -185.863203 
L 87.08135 -187.321081 
L 86.909392 -188.77896 
L 86.822508 -190.236839 
L 86.825211 -191.694717 
L 86.91944 -193.152596 
L 87.104405 -194.610474 
L 87.376566 -196.068353 
L 87.729763 -197.526231 
L 88.155484 -198.98411 
L 88.643259 -200.441988 
L 89.181135 -201.899867 
L 89.756223 -203.357746 
L 90.355263 -204.815624 
L 90.965173 -206.273503 
L 91.573559 -207.731381 
L 92.169146 -209.18926 
L 92.742119 -210.647138 
L 93.284355 -212.105017 
L 93.789554 -213.562895 
L 94.253256 -215.020774 
L 94.672774 -216.478653 
L 95.047052 -217.936531 
L 95.376456 -219.39441 
L 95.662541 -220.852288 
L 98.251459 -220.852288 
L 98.251459 -220.852288 
L 98.537544 -219.39441 
L 98.866948 -217.936531 
L 99.241226 -216.478653 
L 99.660744 -215.020774 
L 100.124446 -213.562895 
L 100.629645 -212.105017 
L 101.171881 -210.647138 
L 101.744854 -209.18926 
L 102.340441 -207.731381 
L 102.948827 -206.273503 
L 103.558737 -204.815624 
L 104.157777 -203.357746 
L 104.732865 -201.899867 
L 105.270741 -200.441988 
L 105.758516 -198.98411 
L 106.184237 -197.526231 
L 106.537434 -196.068353 
L 106.809595 -194.610474 
L 106.99456 -193.152596 
L 107.088789 -191.694717 
L 107.091492 -190.236839 
L 107.004608 -188.77896 
L 106.83265 -187.321081 
L 106.58241 -185.863203 
L 106.262563 -184.405324 
L 105.883193 -182.947446 
L 105.455278 -181.489567 
L 104.990178 -180.031689 
L 104.49914 -178.57381 
L 103.992874 -177.115932 
L 103.481204 -175.658053 
L 102.972819 -174.200174 
L 102.475115 -172.742296 
L 101.994146 -171.284417 
L 101.534642 -169.826539 
L 101.100116 -168.36866 
L 100.693003 -166.910782 
L 100.314841 -165.452903 
L 99.966452 -163.995025 
L 99.648122 -162.537146 
L 99.359759 -161.079267 
L 99.101021 -159.621389 
L 98.87141 -158.16351 
L 98.670329 -156.705632 
L 98.497115 -155.247753 
L 98.351037 -153.789875 
L 98.231273 -152.331996 
L 98.136884 -150.874118 
L 98.066773 -149.416239 
L 98.019649 -147.95836 
L 97.993998 -146.500482 
L 97.988066 -145.042603 
L 97.999861 -143.584725 
L 98.02716 -142.126846 
L 98.067547 -140.668968 
L 98.118453 -139.211089 
L 98.177223 -137.753211 
L 98.241178 -136.295332 
L 98.307695 -134.837453 
L 98.374279 -133.379575 
L 98.438635 -131.921696 
L 98.498731 -130.463818 
L 98.552845 -129.005939 
L 98.599599 -127.548061 
L 98.637972 -126.090182 
L 98.667297 -124.632304 
L 98.687235 -123.174425 
L 98.697743 -121.716546 
L 98.699017 -120.258668 
L 98.691443 -118.800789 
L 98.675531 -117.342911 
L 98.651866 -115.885032 
L 98.621057 -114.427154 
L 98.583699 -112.969275 
L 98.54035 -111.511397 
L 98.49152 -110.053518 
L 98.437672 -108.595639 
L 98.379236 -107.137761 
L 98.316627 -105.679882 
L 98.250269 -104.222004 
L 98.180619 -102.764125 
L 98.108186 -101.306247 
L 98.033543 -99.848368 
L 97.957333 -98.39049 
L 97.880265 -96.932611 
L 97.803099 -95.474732 
L 97.726626 -94.016854 
L 97.651643 -92.558975 
L 97.578921 -91.101097 
L 97.50918 -89.643218 
L 97.443057 -88.18534 
L 97.381089 -86.727461 
L 97.323691 -85.269583 
L 97.271151 -83.811704 
L 97.223625 -82.353825 
L 97.181144 -80.895947 
L 97.143621 -79.438068 
L 97.110872 -77.98019 
L 97.082625 -76.522311 
z
" style="stroke: #303030; stroke-width: 1.5"/>
    </defs>
    <g clip-path="url(#p2ef36aaa6c)">
     <use xlink:href="#mc72fe2b641" x="0" y="360" style="fill: #176d9c; stroke: #303030; stroke-width: 1.5"/>
    </g>
   </g>
   <g id="FillBetweenPolyCollection_2">
    <defs>
     <path id="m2fa4920381" d="M 203.51248 -290.210405 
L 198.50952 -290.210405 
L 198.086511 -290.657384 
L 197.613622 -291.104363 
L 197.089261 -291.551342 
L 196.51264 -291.998321 
L 195.883913 -292.445301 
L 195.204318 -292.89228 
L 194.476291 -293.339259 
L 193.703557 -293.786238 
L 192.891197 -294.233217 
L 192.045664 -294.680196 
L 191.174771 -295.127175 
L 190.287618 -295.574155 
L 189.394479 -296.021134 
L 188.506633 -296.468113 
L 187.636155 -296.915092 
L 186.795652 -297.362071 
L 185.997975 -297.80905 
L 185.255895 -298.25603 
L 184.581765 -298.703009 
L 183.987177 -299.149988 
L 183.482627 -299.596967 
L 183.077201 -300.043946 
L 182.778294 -300.490925 
L 182.591378 -300.937904 
L 182.519818 -301.384884 
L 182.564757 -301.831863 
L 182.725065 -302.278842 
L 182.997357 -302.725821 
L 183.37608 -303.1728 
L 183.853661 -303.619779 
L 184.420712 -304.066759 
L 185.066283 -304.513738 
L 185.778149 -304.960717 
L 186.543122 -305.407696 
L 187.347372 -305.854675 
L 188.176749 -306.301654 
L 189.017091 -306.748633 
L 189.854509 -307.195613 
L 190.675641 -307.642592 
L 191.467874 -308.089571 
L 192.219515 -308.53655 
L 192.919936 -308.983529 
L 193.559671 -309.430508 
L 194.130473 -309.877488 
L 194.625354 -310.324467 
L 195.038587 -310.771446 
L 195.365694 -311.218425 
L 195.603426 -311.665404 
L 195.749734 -312.112383 
L 195.803737 -312.559362 
L 195.765703 -313.006342 
L 195.637027 -313.453321 
L 195.420219 -313.9003 
L 195.118901 -314.347279 
L 194.7378 -314.794258 
L 194.282747 -315.241237 
L 193.760667 -315.688217 
L 193.179554 -316.135196 
L 192.54843 -316.582175 
L 191.877284 -317.029154 
L 191.176979 -317.476133 
L 190.459126 -317.923112 
L 189.735927 -318.370091 
L 189.019988 -318.817071 
L 188.324096 -319.26405 
L 187.660974 -319.711029 
L 187.043014 -320.158008 
L 186.482003 -320.604987 
L 185.988845 -321.051966 
L 185.573293 -321.498946 
L 185.243702 -321.945925 
L 185.006815 -322.392904 
L 184.867584 -322.839883 
L 184.829045 -323.286862 
L 184.892245 -323.733841 
L 185.056231 -324.18082 
L 185.318095 -324.6278 
L 185.673078 -325.074779 
L 186.114731 -325.521758 
L 186.635119 -325.968737 
L 187.225072 -326.415716 
L 187.874456 -326.862695 
L 188.572468 -327.309675 
L 189.30794 -327.756654 
L 190.06963 -328.203633 
L 190.846511 -328.650612 
L 191.628018 -329.097591 
L 192.404285 -329.54457 
L 193.166321 -329.991549 
L 193.906166 -330.438529 
L 194.616983 -330.885508 
L 195.293126 -331.332487 
L 195.930151 -331.779466 
L 196.524798 -332.226445 
L 197.074934 -332.673424 
L 197.579478 -333.120403 
L 198.038294 -333.567383 
L 198.452072 -334.014362 
L 198.822205 -334.461341 
L 203.199795 -334.461341 
L 203.199795 -334.461341 
L 203.569928 -334.014362 
L 203.983706 -333.567383 
L 204.442522 -333.120403 
L 204.947066 -332.673424 
L 205.497202 -332.226445 
L 206.091849 -331.779466 
L 206.728874 -331.332487 
L 207.405017 -330.885508 
L 208.115834 -330.438529 
L 208.855679 -329.991549 
L 209.617715 -329.54457 
L 210.393982 -329.097591 
L 211.175489 -328.650612 
L 211.95237 -328.203633 
L 212.71406 -327.756654 
L 213.449532 -327.309675 
L 214.147544 -326.862695 
L 214.796928 -326.415716 
L 215.386881 -325.968737 
L 215.907269 -325.521758 
L 216.348922 -325.074779 
L 216.703905 -324.6278 
L 216.965769 -324.18082 
L 217.129755 -323.733841 
L 217.192955 -323.286862 
L 217.154416 -322.839883 
L 217.015185 -322.392904 
L 216.778298 -321.945925 
L 216.448707 -321.498946 
L 216.033155 -321.051966 
L 215.539997 -320.604987 
L 214.978986 -320.158008 
L 214.361026 -319.711029 
L 213.697904 -319.26405 
L 213.002012 -318.817071 
L 212.286073 -318.370091 
L 211.562874 -317.923112 
L 210.845021 -317.476133 
L 210.144716 -317.029154 
L 209.47357 -316.582175 
L 208.842446 -316.135196 
L 208.261333 -315.688217 
L 207.739253 -315.241237 
L 207.2842 -314.794258 
L 206.903099 -314.347279 
L 206.601781 -313.9003 
L 206.384973 -313.453321 
L 206.256297 -313.006342 
L 206.218263 -312.559362 
L 206.272266 -312.112383 
L 206.418574 -311.665404 
L 206.656306 -311.218425 
L 206.983413 -310.771446 
L 207.396646 -310.324467 
L 207.891527 -309.877488 
L 208.462329 -309.430508 
L 209.102064 -308.983529 
L 209.802485 -308.53655 
L 210.554126 -308.089571 
L 211.346359 -307.642592 
L 212.167491 -307.195613 
L 213.004909 -306.748633 
L 213.845251 -306.301654 
L 214.674628 -305.854675 
L 215.478878 -305.407696 
L 216.243851 -304.960717 
L 216.955717 -304.513738 
L 217.601288 -304.066759 
L 218.168339 -303.619779 
L 218.64592 -303.1728 
L 219.024643 -302.725821 
L 219.296935 -302.278842 
L 219.457243 -301.831863 
L 219.502182 -301.384884 
L 219.430622 -300.937904 
L 219.243706 -300.490925 
L 218.944799 -300.043946 
L 218.539373 -299.596967 
L 218.034823 -299.149988 
L 217.440235 -298.703009 
L 216.766105 -298.25603 
L 216.024025 -297.80905 
L 215.226348 -297.362071 
L 214.385845 -296.915092 
L 213.515367 -296.468113 
L 212.627521 -296.021134 
L 211.734382 -295.574155 
L 210.847229 -295.127175 
L 209.976336 -294.680196 
L 209.130803 -294.233217 
L 208.318443 -293.786238 
L 207.545709 -293.339259 
L 206.817682 -292.89228 
L 206.138087 -292.445301 
L 205.50936 -291.998321 
L 204.932739 -291.551342 
L 204.408378 -291.104363 
L 203.935489 -290.657384 
L 203.51248 -290.210405 
z
" style="stroke: #303030; stroke-width: 1.5"/>
    </defs>
    <g clip-path="url(#p2ef36aaa6c)">
     <use xlink:href="#m2fa4920381" x="0" y="360" style="fill: #c38820; stroke: #303030; stroke-width: 1.5"/>
    </g>
   </g>
   <g id="FillBetweenPolyCollection_3">
    <defs>
     <path id="m73dde1f90a" d="M 305.166069 -65.87867 
L 304.963931 -65.87867 
L 304.925694 -67.331169 
L 304.8783 -68.783669 
L 304.8217 -70.236168 
L 304.756707 -71.688668 
L 304.685153 -73.141167 
L 304.60993 -74.593667 
L 304.534884 -76.046166 
L 304.464536 -77.498666 
L 304.403657 -78.951165 
L 304.356744 -80.403665 
L 304.327473 -81.856164 
L 304.318227 -83.308664 
L 304.32977 -84.761163 
L 304.361148 -86.213663 
L 304.409816 -87.666162 
L 304.471981 -89.118662 
L 304.543087 -90.571161 
L 304.618367 -92.023661 
L 304.693356 -93.47616 
L 304.764304 -94.92866 
L 304.828435 -96.381159 
L 304.884034 -97.833659 
L 304.930393 -99.286158 
L 304.967644 -100.738658 
L 304.996533 -102.191157 
L 305.018181 -103.643657 
L 305.033869 -105.096156 
L 305.044873 -106.548656 
L 305.052347 -108.001155 
L 305.057266 -109.453655 
L 305.060403 -110.906154 
L 305.062343 -112.358654 
L 305.063507 -113.811153 
L 305.064184 -115.263653 
L 305.064566 -116.716152 
L 305.064776 -118.168652 
L 305.064887 -119.621151 
L 305.064943 -121.073651 
L 305.064969 -122.52615 
L 305.064977 -123.97865 
L 305.064967 -125.431149 
L 305.064933 -126.883649 
L 305.06485 -128.336148 
L 305.064668 -129.788648 
L 305.064283 -131.241147 
L 305.063492 -132.693647 
L 305.061915 -134.146146 
L 305.058862 -135.598646 
L 305.053127 -137.051145 
L 305.042667 -138.503645 
L 305.024154 -139.956144 
L 304.992362 -141.408644 
L 304.939394 -142.861143 
L 304.853806 -144.313643 
L 304.719718 -145.766142 
L 304.516103 -147.218642 
L 304.21654 -148.671141 
L 303.789748 -150.123641 
L 303.201261 -151.57614 
L 302.416506 -153.02864 
L 301.405364 -154.481139 
L 300.14797 -155.933639 
L 298.641156 -157.386138 
L 296.90451 -158.838638 
L 294.984793 -160.291137 
L 292.957375 -161.743637 
L 290.923633 -163.196136 
L 289.003843 -164.648636 
L 287.325938 -166.101135 
L 286.011436 -167.553635 
L 285.160598 -169.006134 
L 284.839304 -170.458634 
L 285.070004 -171.911133 
L 285.828454 -173.363633 
L 287.046909 -174.816132 
L 288.623211 -176.268632 
L 290.43412 -177.721131 
L 292.350547 -179.173631 
L 294.252136 -180.62613 
L 296.039009 -182.07863 
L 297.639234 -183.531129 
L 299.011489 -184.983629 
L 300.143321 -186.436128 
L 301.046042 -187.888628 
L 301.747683 -189.341127 
L 302.285446 -190.793627 
L 302.698844 -192.246126 
L 303.024368 -193.698625 
L 303.292045 -195.151125 
L 303.523885 -196.603624 
L 303.733919 -198.056124 
L 303.92936 -199.508623 
L 304.112378 -200.961123 
L 304.282034 -202.413622 
L 304.436019 -203.866122 
L 304.57198 -205.318621 
L 304.688367 -206.771121 
L 304.784805 -208.22362 
L 304.862108 -209.67612 
L 305.267892 -209.67612 
L 305.267892 -209.67612 
L 305.345195 -208.22362 
L 305.441633 -206.771121 
L 305.55802 -205.318621 
L 305.693981 -203.866122 
L 305.847966 -202.413622 
L 306.017622 -200.961123 
L 306.20064 -199.508623 
L 306.396081 -198.056124 
L 306.606115 -196.603624 
L 306.837955 -195.151125 
L 307.105632 -193.698625 
L 307.431156 -192.246126 
L 307.844554 -190.793627 
L 308.382317 -189.341127 
L 309.083958 -187.888628 
L 309.986679 -186.436128 
L 311.118511 -184.983629 
L 312.490766 -183.531129 
L 314.090991 -182.07863 
L 315.877864 -180.62613 
L 317.779453 -179.173631 
L 319.69588 -177.721131 
L 321.506789 -176.268632 
L 323.083091 -174.816132 
L 324.301546 -173.363633 
L 325.059996 -171.911133 
L 325.290696 -170.458634 
L 324.969402 -169.006134 
L 324.118564 -167.553635 
L 322.804062 -166.101135 
L 321.126157 -164.648636 
L 319.206367 -163.196136 
L 317.172625 -161.743637 
L 315.145207 -160.291137 
L 313.22549 -158.838638 
L 311.488844 -157.386138 
L 309.98203 -155.933639 
L 308.724636 -154.481139 
L 307.713494 -153.02864 
L 306.928739 -151.57614 
L 306.340252 -150.123641 
L 305.91346 -148.671141 
L 305.613897 -147.218642 
L 305.410282 -145.766142 
L 305.276194 -144.313643 
L 305.190606 -142.861143 
L 305.137638 -141.408644 
L 305.105846 -139.956144 
L 305.087333 -138.503645 
L 305.076873 -137.051145 
L 305.071138 -135.598646 
L 305.068085 -134.146146 
L 305.066508 -132.693647 
L 305.065717 -131.241147 
L 305.065332 -129.788648 
L 305.06515 -128.336148 
L 305.065067 -126.883649 
L 305.065033 -125.431149 
L 305.065023 -123.97865 
L 305.065031 -122.52615 
L 305.065057 -121.073651 
L 305.065113 -119.621151 
L 305.065224 -118.168652 
L 305.065434 -116.716152 
L 305.065816 -115.263653 
L 305.066493 -113.811153 
L 305.067657 -112.358654 
L 305.069597 -110.906154 
L 305.072734 -109.453655 
L 305.077653 -108.001155 
L 305.085127 -106.548656 
L 305.096131 -105.096156 
L 305.111819 -103.643657 
L 305.133467 -102.191157 
L 305.162356 -100.738658 
L 305.199607 -99.286158 
L 305.245966 -97.833659 
L 305.301565 -96.381159 
L 305.365696 -94.92866 
L 305.436644 -93.47616 
L 305.511633 -92.023661 
L 305.586913 -90.571161 
L 305.658019 -89.118662 
L 305.720184 -87.666162 
L 305.768852 -86.213663 
L 305.80023 -84.761163 
L 305.811773 -83.308664 
L 305.802527 -81.856164 
L 305.773256 -80.403665 
L 305.726343 -78.951165 
L 305.665464 -77.498666 
L 305.595116 -76.046166 
L 305.52007 -74.593667 
L 305.444847 -73.141167 
L 305.373293 -71.688668 
L 305.3083 -70.236168 
L 305.2517 -68.783669 
L 305.204306 -67.331169 
L 305.166069 -65.87867 
z
" style="stroke: #303030; stroke-width: 1.5"/>
    </defs>
    <g clip-path="url(#p2ef36aaa6c)">
     <use xlink:href="#m73dde1f90a" x="0" y="360" style="fill: #158b6a; stroke: #303030; stroke-width: 1.5"/>
    </g>
   </g>
   <g id="FillBetweenPolyCollection_4">
    <defs>
     <path id="m2a5f5b2713" d="M 413.360465 -226.458082 
L 404.877535 -226.458082 
L 404.092765 -226.870575 
L 403.207463 -227.283067 
L 402.218371 -227.695559 
L 401.124198 -228.108051 
L 399.925997 -228.520543 
L 398.627495 -228.933035 
L 397.235377 -229.345527 
L 395.759486 -229.75802 
L 394.212931 -230.170512 
L 392.61207 -230.583004 
L 390.976373 -230.995496 
L 389.328137 -231.407988 
L 387.692068 -231.82048 
L 386.094725 -232.232972 
L 384.563847 -232.645465 
L 383.127578 -233.057957 
L 381.813624 -233.470449 
L 380.648373 -233.882941 
L 379.656021 -234.295433 
L 378.857733 -234.707925 
L 378.270901 -235.120417 
L 377.908505 -235.53291 
L 377.778641 -235.945402 
L 377.884214 -236.357894 
L 378.222832 -236.770386 
L 378.78689 -237.182878 
L 379.563851 -237.59537 
L 380.536704 -238.007862 
L 381.684578 -238.420355 
L 382.983472 -238.832847 
L 384.407083 -239.245339 
L 385.927668 -239.657831 
L 387.516917 -240.070323 
L 389.146796 -240.482815 
L 390.790316 -240.895307 
L 392.422203 -241.3078 
L 394.01946 -241.720292 
L 395.56178 -242.132784 
L 397.031825 -242.545276 
L 398.415371 -242.957768 
L 399.70131 -243.37026 
L 400.881548 -243.782753 
L 401.950797 -244.195245 
L 402.90629 -244.607737 
L 403.747452 -245.020229 
L 404.475534 -245.432721 
L 405.093239 -245.845213 
L 405.604368 -246.257705 
L 406.013489 -246.670198 
L 406.325653 -247.08269 
L 406.546157 -247.495182 
L 406.680377 -247.907674 
L 406.733642 -248.320166 
L 406.711184 -248.732658 
L 406.61813 -249.14515 
L 406.459539 -249.557643 
L 406.24048 -249.970135 
L 405.966131 -250.382627 
L 405.641888 -250.795119 
L 405.273476 -251.207611 
L 404.867051 -251.620103 
L 404.429275 -252.032595 
L 403.967359 -252.445088 
L 403.489075 -252.85758 
L 403.002712 -253.270072 
L 402.516998 -253.682564 
L 402.040973 -254.095056 
L 401.583816 -254.507548 
L 401.154647 -254.92004 
L 400.762301 -255.332533 
L 400.415078 -255.745025 
L 400.120509 -256.157517 
L 399.885113 -256.570009 
L 399.714194 -256.982501 
L 399.611658 -257.394993 
L 399.579887 -257.807485 
L 399.619657 -258.219978 
L 399.730118 -258.63247 
L 399.908832 -259.044962 
L 400.151864 -259.457454 
L 400.453934 -259.869946 
L 400.808609 -260.282438 
L 401.208529 -260.69493 
L 401.645669 -261.107423 
L 402.111597 -261.519915 
L 402.59775 -261.932407 
L 403.095688 -262.344899 
L 403.597327 -262.757391 
L 404.09515 -263.169883 
L 404.582369 -263.582375 
L 405.05306 -263.994868 
L 405.502245 -264.40736 
L 405.925933 -264.819852 
L 406.321129 -265.232344 
L 406.685799 -265.644836 
L 407.018808 -266.057328 
L 407.319837 -266.469821 
L 407.589276 -266.882313 
L 407.828119 -267.294805 
L 410.409881 -267.294805 
L 410.409881 -267.294805 
L 410.648724 -266.882313 
L 410.918163 -266.469821 
L 411.219192 -266.057328 
L 411.552201 -265.644836 
L 411.916871 -265.232344 
L 412.312067 -264.819852 
L 412.735755 -264.40736 
L 413.18494 -263.994868 
L 413.655631 -263.582375 
L 414.14285 -263.169883 
L 414.640673 -262.757391 
L 415.142312 -262.344899 
L 415.64025 -261.932407 
L 416.126403 -261.519915 
L 416.592331 -261.107423 
L 417.029471 -260.69493 
L 417.429391 -260.282438 
L 417.784066 -259.869946 
L 418.086136 -259.457454 
L 418.329168 -259.044962 
L 418.507882 -258.63247 
L 418.618343 -258.219978 
L 418.658113 -257.807485 
L 418.626342 -257.394993 
L 418.523806 -256.982501 
L 418.352887 -256.570009 
L 418.117491 -256.157517 
L 417.822922 -255.745025 
L 417.475699 -255.332533 
L 417.083353 -254.92004 
L 416.654184 -254.507548 
L 416.197027 -254.095056 
L 415.721002 -253.682564 
L 415.235288 -253.270072 
L 414.748925 -252.85758 
L 414.270641 -252.445088 
L 413.808725 -252.032595 
L 413.370949 -251.620103 
L 412.964524 -251.207611 
L 412.596112 -250.795119 
L 412.271869 -250.382627 
L 411.99752 -249.970135 
L 411.778461 -249.557643 
L 411.61987 -249.14515 
L 411.526816 -248.732658 
L 411.504358 -248.320166 
L 411.557623 -247.907674 
L 411.691843 -247.495182 
L 411.912347 -247.08269 
L 412.224511 -246.670198 
L 412.633632 -246.257705 
L 413.144761 -245.845213 
L 413.762466 -245.432721 
L 414.490548 -245.020229 
L 415.33171 -244.607737 
L 416.287203 -244.195245 
L 417.356452 -243.782753 
L 418.53669 -243.37026 
L 419.822629 -242.957768 
L 421.206175 -242.545276 
L 422.67622 -242.132784 
L 424.21854 -241.720292 
L 425.815797 -241.3078 
L 427.447684 -240.895307 
L 429.091204 -240.482815 
L 430.721083 -240.070323 
L 432.310332 -239.657831 
L 433.830917 -239.245339 
L 435.254528 -238.832847 
L 436.553422 -238.420355 
L 437.701296 -238.007862 
L 438.674149 -237.59537 
L 439.45111 -237.182878 
L 440.015168 -236.770386 
L 440.353786 -236.357894 
L 440.459359 -235.945402 
L 440.329495 -235.53291 
L 439.967099 -235.120417 
L 439.380267 -234.707925 
L 438.581979 -234.295433 
L 437.589627 -233.882941 
L 436.424376 -233.470449 
L 435.110422 -233.057957 
L 433.674153 -232.645465 
L 432.143275 -232.232972 
L 430.545932 -231.82048 
L 428.909863 -231.407988 
L 427.261627 -230.995496 
L 425.62593 -230.583004 
L 424.025069 -230.170512 
L 422.478514 -229.75802 
L 421.002623 -229.345527 
L 419.610505 -228.933035 
L 418.312003 -228.520543 
L 417.113802 -228.108051 
L 416.019629 -227.695559 
L 415.030537 -227.283067 
L 414.145235 -226.870575 
L 413.360465 -226.458082 
z
" style="stroke: #303030; stroke-width: 1.5"/>
    </defs>
    <g clip-path="url(#p2ef36aaa6c)">
     <use xlink:href="#m2a5f5b2713" x="0" y="360" style="fill: #ba611b; stroke: #303030; stroke-width: 1.5"/>
    </g>
   </g>
   <g id="FillBetweenPolyCollection_5">
    <defs>
     <path id="m63219d5eb6" d="M 513.824768 -184.255943 
L 512.521232 -184.255943 
L 512.303633 -184.859797 
L 512.039063 -185.463651 
L 511.726726 -186.067506 
L 511.369202 -186.67136 
L 510.973111 -187.275214 
L 510.549448 -187.879068 
L 510.113474 -188.482923 
L 509.684053 -189.086777 
L 509.282456 -189.690631 
L 508.930692 -190.294486 
L 508.64955 -190.89834 
L 508.456571 -191.502194 
L 508.364242 -192.106048 
L 508.378656 -192.709903 
L 508.498845 -193.313757 
L 508.716876 -193.917611 
L 509.018709 -194.521465 
L 509.38566 -195.12532 
L 509.796264 -195.729174 
L 510.228261 -196.333028 
L 510.66041 -196.936882 
L 511.073909 -197.540737 
L 511.45325 -198.144591 
L 511.78642 -198.748445 
L 512.064447 -199.352299 
L 512.280379 -199.956154 
L 512.427795 -200.560008 
L 512.499013 -201.163862 
L 512.483174 -201.767717 
L 512.364392 -202.371571 
L 512.120213 -202.975425 
L 511.720632 -203.579279 
L 511.127979 -204.183134 
L 510.297972 -204.786988 
L 509.182212 -205.390842 
L 507.732304 -205.994696 
L 505.905573 -206.598551 
L 503.672105 -207.202405 
L 501.022491 -207.806259 
L 497.975362 -208.410113 
L 494.583519 -209.013968 
L 490.93738 -209.617822 
L 487.164599 -210.221676 
L 483.425067 -210.825531 
L 479.901145 -211.429385 
L 476.783711 -212.033239 
L 474.255393 -212.637093 
L 472.472987 -213.240948 
L 471.5514 -213.844802 
L 471.551401 -214.448656 
L 472.472991 -215.05251 
L 474.255403 -215.656365 
L 476.783732 -216.260219 
L 479.901188 -216.864073 
L 483.425154 -217.467927 
L 487.164771 -218.071782 
L 490.937712 -218.675636 
L 494.584141 -219.27949 
L 497.976503 -219.883344 
L 501.02454 -220.487199 
L 503.675703 -221.091053 
L 505.91175 -221.694907 
L 507.742671 -222.298762 
L 509.19923 -222.902616 
L 510.325289 -223.50647 
L 511.170857 -224.110324 
L 511.786442 -224.714179 
L 512.218984 -225.318033 
L 512.509353 -225.921887 
L 512.691213 -226.525741 
L 512.790967 -227.129596 
L 512.828439 -227.73345 
L 512.818004 -228.337304 
L 512.769912 -228.941158 
L 512.691627 -229.545013 
L 512.589035 -230.148867 
L 512.467449 -230.752721 
L 512.332343 -231.356575 
L 512.189787 -231.96043 
L 512.046587 -232.564284 
L 511.910136 -233.168138 
L 511.788033 -233.771993 
L 511.687528 -234.375847 
L 511.614903 -234.979701 
L 511.574865 -235.583555 
L 511.570071 -236.18741 
L 511.600853 -236.791264 
L 511.665182 -237.395118 
L 511.758897 -237.998972 
L 511.876152 -238.602827 
L 512.010018 -239.206681 
L 512.153158 -239.810535 
L 512.298483 -240.414389 
L 512.439704 -241.018244 
L 512.571734 -241.622098 
L 512.690909 -242.225952 
L 512.795021 -242.829807 
L 512.883211 -243.433661 
L 512.955744 -244.037515 
L 513.390256 -244.037515 
L 513.390256 -244.037515 
L 513.462789 -243.433661 
L 513.550979 -242.829807 
L 513.655091 -242.225952 
L 513.774266 -241.622098 
L 513.906296 -241.018244 
L 514.047517 -240.414389 
L 514.192842 -239.810535 
L 514.335982 -239.206681 
L 514.469848 -238.602827 
L 514.587103 -237.998972 
L 514.680818 -237.395118 
L 514.745147 -236.791264 
L 514.775929 -236.18741 
L 514.771135 -235.583555 
L 514.731097 -234.979701 
L 514.658472 -234.375847 
L 514.557967 -233.771993 
L 514.435864 -233.168138 
L 514.299413 -232.564284 
L 514.156213 -231.96043 
L 514.013657 -231.356575 
L 513.878551 -230.752721 
L 513.756965 -230.148867 
L 513.654373 -229.545013 
L 513.576088 -228.941158 
L 513.527996 -228.337304 
L 513.517561 -227.73345 
L 513.555033 -227.129596 
L 513.654787 -226.525741 
L 513.836647 -225.921887 
L 514.127016 -225.318033 
L 514.559558 -224.714179 
L 515.175143 -224.110324 
L 516.020711 -223.50647 
L 517.14677 -222.902616 
L 518.603329 -222.298762 
L 520.43425 -221.694907 
L 522.670297 -221.091053 
L 525.32146 -220.487199 
L 528.369497 -219.883344 
L 531.761859 -219.27949 
L 535.408288 -218.675636 
L 539.181229 -218.071782 
L 542.920846 -217.467927 
L 546.444812 -216.864073 
L 549.562268 -216.260219 
L 552.090597 -215.656365 
L 553.873009 -215.05251 
L 554.794599 -214.448656 
L 554.7946 -213.844802 
L 553.873013 -213.240948 
L 552.090607 -212.637093 
L 549.562289 -212.033239 
L 546.444855 -211.429385 
L 542.920933 -210.825531 
L 539.181401 -210.221676 
L 535.40862 -209.617822 
L 531.762481 -209.013968 
L 528.370638 -208.410113 
L 525.323509 -207.806259 
L 522.673895 -207.202405 
L 520.440427 -206.598551 
L 518.613696 -205.994696 
L 517.163788 -205.390842 
L 516.048028 -204.786988 
L 515.218021 -204.183134 
L 514.625368 -203.579279 
L 514.225787 -202.975425 
L 513.981608 -202.371571 
L 513.862826 -201.767717 
L 513.846987 -201.163862 
L 513.918205 -200.560008 
L 514.065621 -199.956154 
L 514.281553 -199.352299 
L 514.55958 -198.748445 
L 514.89275 -198.144591 
L 515.272091 -197.540737 
L 515.68559 -196.936882 
L 516.117739 -196.333028 
L 516.549736 -195.729174 
L 516.96034 -195.12532 
L 517.327291 -194.521465 
L 517.629124 -193.917611 
L 517.847155 -193.313757 
L 517.967344 -192.709903 
L 517.981758 -192.106048 
L 517.889429 -191.502194 
L 517.69645 -190.89834 
L 517.415308 -190.294486 
L 517.063544 -189.690631 
L 516.661947 -189.086777 
L 516.232526 -188.482923 
L 515.796552 -187.879068 
L 515.372889 -187.275214 
L 514.976798 -186.67136 
L 514.619274 -186.067506 
L 514.306937 -185.463651 
L 514.042367 -184.859797 
L 513.824768 -184.255943 
z
" style="stroke: #303030; stroke-width: 1.5"/>
    </defs>
    <g clip-path="url(#p2ef36aaa6c)">
     <use xlink:href="#m63219d5eb6" x="0" y="360" style="fill: #c282b5; stroke: #303030; stroke-width: 1.5"/>
    </g>
   </g>
   <g id="matplotlib.axis_1">
    <g id="xtick_1">
     <g id="line2d_1">
      <defs>
       <path id="mf4470a510a" d="M 0 0 
L 0 3.5 
" style="stroke: #000000; stroke-width: 0.8"/>
      </defs>
      <g>
       <use xlink:href="#mf4470a510a" x="96.957" y="307.550464" style="stroke: #000000; stroke-width: 0.8"/>
      </g>
     </g>
     <g id="text_1">
      <!-- Feng Cha -->
      <g transform="translate(78.129203 344.464498) rotate(-30) scale(0.1 -0.1)">
       <defs>
        <path id="DejaVuSans-46" d="M 628 4666 
L 3309 4666 
L 3309 4134 
L 1259 4134 
L 1259 2759 
L 3109 2759 
L 3109 2228 
L 1259 2228 
L 1259 0 
L 628 0 
L 628 4666 
z
" transform="scale(0.015625)"/>
        <path id="DejaVuSans-65" d="M 3597 1894 
L 3597 1613 
L 953 1613 
Q 991 1019 1311 708 
Q 1631 397 2203 397 
Q 2534 397 2845 478 
Q 3156 559 3463 722 
L 3463 178 
Q 3153 47 2828 -22 
Q 2503 -91 2169 -91 
Q 1331 -91 842 396 
Q 353 884 353 1716 
Q 353 2575 817 3079 
Q 1281 3584 2069 3584 
Q 2775 3584 3186 3129 
Q 3597 2675 3597 1894 
z
M 3022 2063 
Q 3016 2534 2758 2815 
Q 2500 3097 2075 3097 
Q 1594 3097 1305 2825 
Q 1016 2553 972 2059 
L 3022 2063 
z
" transform="scale(0.015625)"/>
        <path id="DejaVuSans-6e" d="M 3513 2113 
L 3513 0 
L 2938 0 
L 2938 2094 
Q 2938 2591 2744 2837 
Q 2550 3084 2163 3084 
Q 1697 3084 1428 2787 
Q 1159 2491 1159 1978 
L 1159 0 
L 581 0 
L 581 3500 
L 1159 3500 
L 1159 2956 
Q 1366 3272 1645 3428 
Q 1925 3584 2291 3584 
Q 2894 3584 3203 3211 
Q 3513 2838 3513 2113 
z
" transform="scale(0.015625)"/>
        <path id="DejaVuSans-67" d="M 2906 1791 
Q 2906 2416 2648 2759 
Q 2391 3103 1925 3103 
Q 1463 3103 1205 2759 
Q 947 2416 947 1791 
Q 947 1169 1205 825 
Q 1463 481 1925 481 
Q 2391 481 2648 825 
Q 2906 1169 2906 1791 
z
M 3481 434 
Q 3481 -459 3084 -895 
Q 2688 -1331 1869 -1331 
Q 1566 -1331 1297 -1286 
Q 1028 -1241 775 -1147 
L 775 -588 
Q 1028 -725 1275 -790 
Q 1522 -856 1778 -856 
Q 2344 -856 2625 -561 
Q 2906 -266 2906 331 
L 2906 616 
Q 2728 306 2450 153 
Q 2172 0 1784 0 
Q 1141 0 747 490 
Q 353 981 353 1791 
Q 353 2603 747 3093 
Q 1141 3584 1784 3584 
Q 2172 3584 2450 3431 
Q 2728 3278 2906 2969 
L 2906 3500 
L 3481 3500 
L 3481 434 
z
" transform="scale(0.015625)"/>
        <path id="DejaVuSans-20" transform="scale(0.015625)"/>
        <path id="DejaVuSans-43" d="M 4122 4306 
L 4122 3641 
Q 3803 3938 3442 4084 
Q 3081 4231 2675 4231 
Q 1875 4231 1450 3742 
Q 1025 3253 1025 2328 
Q 1025 1406 1450 917 
Q 1875 428 2675 428 
Q 3081 428 3442 575 
Q 3803 722 4122 1019 
L 4122 359 
Q 3791 134 3420 21 
Q 3050 -91 2638 -91 
Q 1578 -91 968 557 
Q 359 1206 359 2328 
Q 359 3453 968 4101 
Q 1578 4750 2638 4750 
Q 3056 4750 3426 4639 
Q 3797 4528 4122 4306 
z
" transform="scale(0.015625)"/>
        <path id="DejaVuSans-68" d="M 3513 2113 
L 3513 0 
L 2938 0 
L 2938 2094 
Q 2938 2591 2744 2837 
Q 2550 3084 2163 3084 
Q 1697 3084 1428 2787 
Q 1159 2491 1159 1978 
L 1159 0 
L 581 0 
L 581 4863 
L 1159 4863 
L 1159 2956 
Q 1366 3272 1645 3428 
Q 1925 3584 2291 3584 
Q 2894 3584 3203 3211 
Q 3513 2838 3513 2113 
z
" transform="scale(0.015625)"/>
        <path id="DejaVuSans-61" d="M 2194 1759 
Q 1497 1759 1228 1600 
Q 959 1441 959 1056 
Q 959 750 1161 570 
Q 1363 391 1709 391 
Q 2188 391 2477 730 
Q 2766 1069 2766 1631 
L 2766 1759 
L 2194 1759 
z
M 3341 1997 
L 3341 0 
L 2766 0 
L 2766 531 
Q 2569 213 2275 61 
Q 1981 -91 1556 -91 
Q 1019 -91 701 211 
Q 384 513 384 1019 
Q 384 1609 779 1909 
Q 1175 2209 1959 2209 
L 2766 2209 
L 2766 2266 
Q 2766 2663 2505 2880 
Q 2244 3097 1772 3097 
Q 1472 3097 1187 3025 
Q 903 2953 641 2809 
L 641 3341 
Q 956 3463 1253 3523 
Q 1550 3584 1831 3584 
Q 2591 3584 2966 3190 
Q 3341 2797 3341 1997 
z
" transform="scale(0.015625)"/>
       </defs>
       <use xlink:href="#DejaVuSans-46"/>
       <use xlink:href="#DejaVuSans-65" transform="translate(52.019531 0)"/>
       <use xlink:href="#DejaVuSans-6e" transform="translate(113.542969 0)"/>
       <use xlink:href="#DejaVuSans-67" transform="translate(176.921875 0)"/>
       <use xlink:href="#DejaVuSans-20" transform="translate(240.398438 0)"/>
       <use xlink:href="#DejaVuSans-43" transform="translate(272.185547 0)"/>
       <use xlink:href="#DejaVuSans-68" transform="translate(342.009766 0)"/>
       <use xlink:href="#DejaVuSans-61" transform="translate(405.388672 0)"/>
      </g>
     </g>
    </g>
    <g id="xtick_2">
     <g id="line2d_2">
      <g>
       <use xlink:href="#mf4470a510a" x="201.011" y="307.550464" style="stroke: #000000; stroke-width: 0.8"/>
      </g>
     </g>
     <g id="text_2">
      <!-- Sharetea -->
      <g transform="translate(182.881436 343.658248) rotate(-30) scale(0.1 -0.1)">
       <defs>
        <path id="DejaVuSans-53" d="M 3425 4513 
L 3425 3897 
Q 3066 4069 2747 4153 
Q 2428 4238 2131 4238 
Q 1616 4238 1336 4038 
Q 1056 3838 1056 3469 
Q 1056 3159 1242 3001 
Q 1428 2844 1947 2747 
L 2328 2669 
Q 3034 2534 3370 2195 
Q 3706 1856 3706 1288 
Q 3706 609 3251 259 
Q 2797 -91 1919 -91 
Q 1588 -91 1214 -16 
Q 841 59 441 206 
L 441 856 
Q 825 641 1194 531 
Q 1563 422 1919 422 
Q 2459 422 2753 634 
Q 3047 847 3047 1241 
Q 3047 1584 2836 1778 
Q 2625 1972 2144 2069 
L 1759 2144 
Q 1053 2284 737 2584 
Q 422 2884 422 3419 
Q 422 4038 858 4394 
Q 1294 4750 2059 4750 
Q 2388 4750 2728 4690 
Q 3069 4631 3425 4513 
z
" transform="scale(0.015625)"/>
        <path id="DejaVuSans-72" d="M 2631 2963 
Q 2534 3019 2420 3045 
Q 2306 3072 2169 3072 
Q 1681 3072 1420 2755 
Q 1159 2438 1159 1844 
L 1159 0 
L 581 0 
L 581 3500 
L 1159 3500 
L 1159 2956 
Q 1341 3275 1631 3429 
Q 1922 3584 2338 3584 
Q 2397 3584 2469 3576 
Q 2541 3569 2628 3553 
L 2631 2963 
z
" transform="scale(0.015625)"/>
        <path id="DejaVuSans-74" d="M 1172 4494 
L 1172 3500 
L 2356 3500 
L 2356 3053 
L 1172 3053 
L 1172 1153 
Q 1172 725 1289 603 
Q 1406 481 1766 481 
L 2356 481 
L 2356 0 
L 1766 0 
Q 1100 0 847 248 
Q 594 497 594 1153 
L 594 3053 
L 172 3053 
L 172 3500 
L 594 3500 
L 594 4494 
L 1172 4494 
z
" transform="scale(0.015625)"/>
       </defs>
       <use xlink:href="#DejaVuSans-53"/>
       <use xlink:href="#DejaVuSans-68" transform="translate(63.476562 0)"/>
       <use xlink:href="#DejaVuSans-61" transform="translate(126.855469 0)"/>
       <use xlink:href="#DejaVuSans-72" transform="translate(188.134766 0)"/>
       <use xlink:href="#DejaVuSans-65" transform="translate(226.998047 0)"/>
       <use xlink:href="#DejaVuSans-74" transform="translate(288.521484 0)"/>
       <use xlink:href="#DejaVuSans-65" transform="translate(327.730469 0)"/>
       <use xlink:href="#DejaVuSans-61" transform="translate(389.253906 0)"/>
      </g>
     </g>
    </g>
    <g id="xtick_3">
     <g id="line2d_3">
      <g>
       <use xlink:href="#mf4470a510a" x="305.065" y="307.550464" style="stroke: #000000; stroke-width: 0.8"/>
      </g>
     </g>
     <g id="text_3">
      <!-- Bear Cup -->
      <g transform="translate(286.482802 344.180904) rotate(-30) scale(0.1 -0.1)">
       <defs>
        <path id="DejaVuSans-42" d="M 1259 2228 
L 1259 519 
L 2272 519 
Q 2781 519 3026 730 
Q 3272 941 3272 1375 
Q 3272 1813 3026 2020 
Q 2781 2228 2272 2228 
L 1259 2228 
z
M 1259 4147 
L 1259 2741 
L 2194 2741 
Q 2656 2741 2882 2914 
Q 3109 3088 3109 3444 
Q 3109 3797 2882 3972 
Q 2656 4147 2194 4147 
L 1259 4147 
z
M 628 4666 
L 2241 4666 
Q 2963 4666 3353 4366 
Q 3744 4066 3744 3513 
Q 3744 3084 3544 2831 
Q 3344 2578 2956 2516 
Q 3422 2416 3680 2098 
Q 3938 1781 3938 1306 
Q 3938 681 3513 340 
Q 3088 0 2303 0 
L 628 0 
L 628 4666 
z
" transform="scale(0.015625)"/>
        <path id="DejaVuSans-75" d="M 544 1381 
L 544 3500 
L 1119 3500 
L 1119 1403 
Q 1119 906 1312 657 
Q 1506 409 1894 409 
Q 2359 409 2629 706 
Q 2900 1003 2900 1516 
L 2900 3500 
L 3475 3500 
L 3475 0 
L 2900 0 
L 2900 538 
Q 2691 219 2414 64 
Q 2138 -91 1772 -91 
Q 1169 -91 856 284 
Q 544 659 544 1381 
z
M 1991 3584 
L 1991 3584 
z
" transform="scale(0.015625)"/>
        <path id="DejaVuSans-70" d="M 1159 525 
L 1159 -1331 
L 581 -1331 
L 581 3500 
L 1159 3500 
L 1159 2969 
Q 1341 3281 1617 3432 
Q 1894 3584 2278 3584 
Q 2916 3584 3314 3078 
Q 3713 2572 3713 1747 
Q 3713 922 3314 415 
Q 2916 -91 2278 -91 
Q 1894 -91 1617 61 
Q 1341 213 1159 525 
z
M 3116 1747 
Q 3116 2381 2855 2742 
Q 2594 3103 2138 3103 
Q 1681 3103 1420 2742 
Q 1159 2381 1159 1747 
Q 1159 1113 1420 752 
Q 1681 391 2138 391 
Q 2594 391 2855 752 
Q 3116 1113 3116 1747 
z
" transform="scale(0.015625)"/>
       </defs>
       <use xlink:href="#DejaVuSans-42"/>
       <use xlink:href="#DejaVuSans-65" transform="translate(68.603516 0)"/>
       <use xlink:href="#DejaVuSans-61" transform="translate(130.126953 0)"/>
       <use xlink:href="#DejaVuSans-72" transform="translate(191.40625 0)"/>
       <use xlink:href="#DejaVuSans-20" transform="translate(232.519531 0)"/>
       <use xlink:href="#DejaVuSans-43" transform="translate(264.306641 0)"/>
       <use xlink:href="#DejaVuSans-75" transform="translate(334.130859 0)"/>
       <use xlink:href="#DejaVuSans-70" transform="translate(397.509766 0)"/>
      </g>
     </g>
    </g>
    <g id="xtick_4">
     <g id="line2d_4">
      <g>
       <use xlink:href="#mf4470a510a" x="409.119" y="307.550464" style="stroke: #000000; stroke-width: 0.8"/>
      </g>
     </g>
     <g id="text_4">
      <!-- Wushiland -->
      <g transform="translate(388.077425 347.020748) rotate(-30) scale(0.1 -0.1)">
       <defs>
        <path id="DejaVuSans-57" d="M 213 4666 
L 850 4666 
L 1831 722 
L 2809 4666 
L 3519 4666 
L 4500 722 
L 5478 4666 
L 6119 4666 
L 4947 0 
L 4153 0 
L 3169 4050 
L 2175 0 
L 1381 0 
L 213 4666 
z
" transform="scale(0.015625)"/>
        <path id="DejaVuSans-73" d="M 2834 3397 
L 2834 2853 
Q 2591 2978 2328 3040 
Q 2066 3103 1784 3103 
Q 1356 3103 1142 2972 
Q 928 2841 928 2578 
Q 928 2378 1081 2264 
Q 1234 2150 1697 2047 
L 1894 2003 
Q 2506 1872 2764 1633 
Q 3022 1394 3022 966 
Q 3022 478 2636 193 
Q 2250 -91 1575 -91 
Q 1294 -91 989 -36 
Q 684 19 347 128 
L 347 722 
Q 666 556 975 473 
Q 1284 391 1588 391 
Q 1994 391 2212 530 
Q 2431 669 2431 922 
Q 2431 1156 2273 1281 
Q 2116 1406 1581 1522 
L 1381 1569 
Q 847 1681 609 1914 
Q 372 2147 372 2553 
Q 372 3047 722 3315 
Q 1072 3584 1716 3584 
Q 2034 3584 2315 3537 
Q 2597 3491 2834 3397 
z
" transform="scale(0.015625)"/>
        <path id="DejaVuSans-69" d="M 603 3500 
L 1178 3500 
L 1178 0 
L 603 0 
L 603 3500 
z
M 603 4863 
L 1178 4863 
L 1178 4134 
L 603 4134 
L 603 4863 
z
" transform="scale(0.015625)"/>
        <path id="DejaVuSans-6c" d="M 603 4863 
L 1178 4863 
L 1178 0 
L 603 0 
L 603 4863 
z
" transform="scale(0.015625)"/>
        <path id="DejaVuSans-64" d="M 2906 2969 
L 2906 4863 
L 3481 4863 
L 3481 0 
L 2906 0 
L 2906 525 
Q 2725 213 2448 61 
Q 2172 -91 1784 -91 
Q 1150 -91 751 415 
Q 353 922 353 1747 
Q 353 2572 751 3078 
Q 1150 3584 1784 3584 
Q 2172 3584 2448 3432 
Q 2725 3281 2906 2969 
z
M 947 1747 
Q 947 1113 1208 752 
Q 1469 391 1925 391 
Q 2381 391 2643 752 
Q 2906 1113 2906 1747 
Q 2906 2381 2643 2742 
Q 2381 3103 1925 3103 
Q 1469 3103 1208 2742 
Q 947 2381 947 1747 
z
" transform="scale(0.015625)"/>
       </defs>
       <use xlink:href="#DejaVuSans-57"/>
       <use xlink:href="#DejaVuSans-75" transform="translate(95.251953 0)"/>
       <use xlink:href="#DejaVuSans-73" transform="translate(158.630859 0)"/>
       <use xlink:href="#DejaVuSans-68" transform="translate(210.730469 0)"/>
       <use xlink:href="#DejaVuSans-69" transform="translate(274.109375 0)"/>
       <use xlink:href="#DejaVuSans-6c" transform="translate(301.892578 0)"/>
       <use xlink:href="#DejaVuSans-61" transform="translate(329.675781 0)"/>
       <use xlink:href="#DejaVuSans-6e" transform="translate(390.955078 0)"/>
       <use xlink:href="#DejaVuSans-64" transform="translate(454.333984 0)"/>
      </g>
     </g>
    </g>
    <g id="xtick_5">
     <g id="line2d_5">
      <g>
       <use xlink:href="#mf4470a510a" x="513.173" y="307.550464" style="stroke: #000000; stroke-width: 0.8"/>
      </g>
     </g>
     <g id="text_5">
      <!-- Sunright -->
      <g transform="translate(496.141529 342.390279) rotate(-30) scale(0.1 -0.1)">
       <use xlink:href="#DejaVuSans-53"/>
       <use xlink:href="#DejaVuSans-75" transform="translate(63.476562 0)"/>
       <use xlink:href="#DejaVuSans-6e" transform="translate(126.855469 0)"/>
       <use xlink:href="#DejaVuSans-72" transform="translate(190.234375 0)"/>
       <use xlink:href="#DejaVuSans-69" transform="translate(231.347656 0)"/>
       <use xlink:href="#DejaVuSans-67" transform="translate(259.130859 0)"/>
       <use xlink:href="#DejaVuSans-68" transform="translate(322.607422 0)"/>
       <use xlink:href="#DejaVuSans-74" transform="translate(385.986328 0)"/>
      </g>
     </g>
    </g>
   </g>
   <g id="matplotlib.axis_2">
    <g id="ytick_1">
     <g id="line2d_6">
      <defs>
       <path id="m086341ddc0" d="M 0 0 
L -3.5 0 
" style="stroke: #000000; stroke-width: 0.8"/>
      </defs>
      <g>
       <use xlink:href="#m086341ddc0" x="44.93" y="276.77213" style="stroke: #000000; stroke-width: 0.8"/>
      </g>
     </g>
     <g id="text_6">
      <!-- 14 -->
      <g transform="translate(25.205 280.571348) scale(0.1 -0.1)">
       <defs>
        <path id="DejaVuSans-31" d="M 794 531 
L 1825 531 
L 1825 4091 
L 703 3866 
L 703 4441 
L 1819 4666 
L 2450 4666 
L 2450 531 
L 3481 531 
L 3481 0 
L 794 0 
L 794 531 
z
" transform="scale(0.015625)"/>
        <path id="DejaVuSans-34" d="M 2419 4116 
L 825 1625 
L 2419 1625 
L 2419 4116 
z
M 2253 4666 
L 3047 4666 
L 3047 1625 
L 3713 1625 
L 3713 1100 
L 3047 1100 
L 3047 0 
L 2419 0 
L 2419 1100 
L 313 1100 
L 313 1709 
L 2253 4666 
z
" transform="scale(0.015625)"/>
       </defs>
       <use xlink:href="#DejaVuSans-31"/>
       <use xlink:href="#DejaVuSans-34" transform="translate(63.623047 0)"/>
      </g>
     </g>
    </g>
    <g id="ytick_2">
     <g id="line2d_7">
      <g>
       <use xlink:href="#m086341ddc0" x="44.93" y="233.13251" style="stroke: #000000; stroke-width: 0.8"/>
      </g>
     </g>
     <g id="text_7">
      <!-- 16 -->
      <g transform="translate(25.205 236.931729) scale(0.1 -0.1)">
       <defs>
        <path id="DejaVuSans-36" d="M 2113 2584 
Q 1688 2584 1439 2293 
Q 1191 2003 1191 1497 
Q 1191 994 1439 701 
Q 1688 409 2113 409 
Q 2538 409 2786 701 
Q 3034 994 3034 1497 
Q 3034 2003 2786 2293 
Q 2538 2584 2113 2584 
z
M 3366 4563 
L 3366 3988 
Q 3128 4100 2886 4159 
Q 2644 4219 2406 4219 
Q 1781 4219 1451 3797 
Q 1122 3375 1075 2522 
Q 1259 2794 1537 2939 
Q 1816 3084 2150 3084 
Q 2853 3084 3261 2657 
Q 3669 2231 3669 1497 
Q 3669 778 3244 343 
Q 2819 -91 2113 -91 
Q 1303 -91 875 529 
Q 447 1150 447 2328 
Q 447 3434 972 4092 
Q 1497 4750 2381 4750 
Q 2619 4750 2861 4703 
Q 3103 4656 3366 4563 
z
" transform="scale(0.015625)"/>
       </defs>
       <use xlink:href="#DejaVuSans-31"/>
       <use xlink:href="#DejaVuSans-36" transform="translate(63.623047 0)"/>
      </g>
     </g>
    </g>
    <g id="ytick_3">
     <g id="line2d_8">
      <g>
       <use xlink:href="#m086341ddc0" x="44.93" y="189.492891" style="stroke: #000000; stroke-width: 0.8"/>
      </g>
     </g>
     <g id="text_8">
      <!-- 18 -->
      <g transform="translate(25.205 193.292109) scale(0.1 -0.1)">
       <defs>
        <path id="DejaVuSans-38" d="M 2034 2216 
Q 1584 2216 1326 1975 
Q 1069 1734 1069 1313 
Q 1069 891 1326 650 
Q 1584 409 2034 409 
Q 2484 409 2743 651 
Q 3003 894 3003 1313 
Q 3003 1734 2745 1975 
Q 2488 2216 2034 2216 
z
M 1403 2484 
Q 997 2584 770 2862 
Q 544 3141 544 3541 
Q 544 4100 942 4425 
Q 1341 4750 2034 4750 
Q 2731 4750 3128 4425 
Q 3525 4100 3525 3541 
Q 3525 3141 3298 2862 
Q 3072 2584 2669 2484 
Q 3125 2378 3379 2068 
Q 3634 1759 3634 1313 
Q 3634 634 3220 271 
Q 2806 -91 2034 -91 
Q 1263 -91 848 271 
Q 434 634 434 1313 
Q 434 1759 690 2068 
Q 947 2378 1403 2484 
z
M 1172 3481 
Q 1172 3119 1398 2916 
Q 1625 2713 2034 2713 
Q 2441 2713 2670 2916 
Q 2900 3119 2900 3481 
Q 2900 3844 2670 4047 
Q 2441 4250 2034 4250 
Q 1625 4250 1398 4047 
Q 1172 3844 1172 3481 
z
" transform="scale(0.015625)"/>
       </defs>
       <use xlink:href="#DejaVuSans-31"/>
       <use xlink:href="#DejaVuSans-38" transform="translate(63.623047 0)"/>
      </g>
     </g>
    </g>
    <g id="ytick_4">
     <g id="line2d_9">
      <g>
       <use xlink:href="#m086341ddc0" x="44.93" y="145.853271" style="stroke: #000000; stroke-width: 0.8"/>
      </g>
     </g>
     <g id="text_9">
      <!-- 20 -->
      <g transform="translate(25.205 149.65249) scale(0.1 -0.1)">
       <defs>
        <path id="DejaVuSans-32" d="M 1228 531 
L 3431 531 
L 3431 0 
L 469 0 
L 469 531 
Q 828 903 1448 1529 
Q 2069 2156 2228 2338 
Q 2531 2678 2651 2914 
Q 2772 3150 2772 3378 
Q 2772 3750 2511 3984 
Q 2250 4219 1831 4219 
Q 1534 4219 1204 4116 
Q 875 4013 500 3803 
L 500 4441 
Q 881 4594 1212 4672 
Q 1544 4750 1819 4750 
Q 2544 4750 2975 4387 
Q 3406 4025 3406 3419 
Q 3406 3131 3298 2873 
Q 3191 2616 2906 2266 
Q 2828 2175 2409 1742 
Q 1991 1309 1228 531 
z
" transform="scale(0.015625)"/>
        <path id="DejaVuSans-30" d="M 2034 4250 
Q 1547 4250 1301 3770 
Q 1056 3291 1056 2328 
Q 1056 1369 1301 889 
Q 1547 409 2034 409 
Q 2525 409 2770 889 
Q 3016 1369 3016 2328 
Q 3016 3291 2770 3770 
Q 2525 4250 2034 4250 
z
M 2034 4750 
Q 2819 4750 3233 4129 
Q 3647 3509 3647 2328 
Q 3647 1150 3233 529 
Q 2819 -91 2034 -91 
Q 1250 -91 836 529 
Q 422 1150 422 2328 
Q 422 3509 836 4129 
Q 1250 4750 2034 4750 
z
" transform="scale(0.015625)"/>
       </defs>
       <use xlink:href="#DejaVuSans-32"/>
       <use xlink:href="#DejaVuSans-30" transform="translate(63.623047 0)"/>
      </g>
     </g>
    </g>
    <g id="ytick_5">
     <g id="line2d_10">
      <g>
       <use xlink:href="#m086341ddc0" x="44.93" y="102.213652" style="stroke: #000000; stroke-width: 0.8"/>
      </g>
     </g>
     <g id="text_10">
      <!-- 22 -->
      <g transform="translate(25.205 106.01287) scale(0.1 -0.1)">
       <use xlink:href="#DejaVuSans-32"/>
       <use xlink:href="#DejaVuSans-32" transform="translate(63.623047 0)"/>
      </g>
     </g>
    </g>
    <g id="ytick_6">
     <g id="line2d_11">
      <g>
       <use xlink:href="#m086341ddc0" x="44.93" y="58.574032" style="stroke: #000000; stroke-width: 0.8"/>
      </g>
     </g>
     <g id="text_11">
      <!-- 24 -->
      <g transform="translate(25.205 62.373251) scale(0.1 -0.1)">
       <use xlink:href="#DejaVuSans-32"/>
       <use xlink:href="#DejaVuSans-34" transform="translate(63.623047 0)"/>
      </g>
     </g>
    </g>
    <g id="ytick_7">
     <g id="line2d_12">
      <g>
       <use xlink:href="#m086341ddc0" x="44.93" y="14.934412" style="stroke: #000000; stroke-width: 0.8"/>
      </g>
     </g>
     <g id="text_12">
      <!-- 26 -->
      <g transform="translate(25.205 18.733631) scale(0.1 -0.1)">
       <use xlink:href="#DejaVuSans-32"/>
       <use xlink:href="#DejaVuSans-36" transform="translate(63.623047 0)"/>
      </g>
     </g>
    </g>
    <g id="text_13">
     <!-- nir_raw -->
     <g transform="translate(18.847188 178.15187) rotate(-90) scale(0.1 -0.1)">
      <defs>
       <path id="DejaVuSans-5f" d="M 3263 -1063 
L 3263 -1509 
L -63 -1509 
L -63 -1063 
L 3263 -1063 
z
" transform="scale(0.015625)"/>
       <path id="DejaVuSans-77" d="M 269 3500 
L 844 3500 
L 1563 769 
L 2278 3500 
L 2956 3500 
L 3675 769 
L 4391 3500 
L 4966 3500 
L 4050 0 
L 3372 0 
L 2619 2869 
L 1863 0 
L 1184 0 
L 269 3500 
z
" transform="scale(0.015625)"/>
      </defs>
      <use xlink:href="#DejaVuSans-6e"/>
      <use xlink:href="#DejaVuSans-69" transform="translate(63.378906 0)"/>
      <use xlink:href="#DejaVuSans-72" transform="translate(91.162109 0)"/>
      <use xlink:href="#DejaVuSans-5f" transform="translate(132.275391 0)"/>
      <use xlink:href="#DejaVuSans-72" transform="translate(182.275391 0)"/>
      <use xlink:href="#DejaVuSans-61" transform="translate(223.388672 0)"/>
      <use xlink:href="#DejaVuSans-77" transform="translate(284.667969 0)"/>
     </g>
    </g>
   </g>
   <g id="line2d_13">
    <path d="M 96.957 189.492891 
L 96.957 167.673081 
" clip-path="url(#p2ef36aaa6c)" style="fill: none; stroke: #303030; stroke-width: 1.5; stroke-linecap: square"/>
   </g>
   <g id="line2d_14">
    <path d="M 96.957 189.492891 
L 96.957 167.673081 
" clip-path="url(#p2ef36aaa6c)" style="fill: none; stroke: #303030; stroke-width: 4.5; stroke-linecap: square"/>
   </g>
   <g id="line2d_15">
    <path d="M 201.011 58.574032 
L 201.011 36.754222 
" clip-path="url(#p2ef36aaa6c)" style="fill: none; stroke: #303030; stroke-width: 1.5; stroke-linecap: square"/>
   </g>
   <g id="line2d_16">
    <path d="M 201.011 58.574032 
L 201.011 36.754222 
" clip-path="url(#p2ef36aaa6c)" style="fill: none; stroke: #303030; stroke-width: 4.5; stroke-linecap: square"/>
   </g>
   <g id="line2d_17">
    <path d="M 305.065 189.492891 
L 305.065 189.492891 
" clip-path="url(#p2ef36aaa6c)" style="fill: none; stroke: #303030; stroke-width: 1.5; stroke-linecap: square"/>
   </g>
   <g id="line2d_18">
    <path d="M 305.065 189.492891 
L 305.065 189.492891 
" clip-path="url(#p2ef36aaa6c)" style="fill: none; stroke: #303030; stroke-width: 4.5; stroke-linecap: square"/>
   </g>
   <g id="line2d_19">
    <path d="M 409.119 124.033461 
L 409.119 124.033461 
" clip-path="url(#p2ef36aaa6c)" style="fill: none; stroke: #303030; stroke-width: 1.5; stroke-linecap: square"/>
   </g>
   <g id="line2d_20">
    <path d="M 409.119 124.033461 
L 409.119 124.033461 
" clip-path="url(#p2ef36aaa6c)" style="fill: none; stroke: #303030; stroke-width: 4.5; stroke-linecap: square"/>
   </g>
   <g id="line2d_21">
    <path d="M 513.173 145.853271 
L 513.173 145.853271 
" clip-path="url(#p2ef36aaa6c)" style="fill: none; stroke: #303030; stroke-width: 1.5; stroke-linecap: square"/>
   </g>
   <g id="line2d_22">
    <path d="M 513.173 145.853271 
L 513.173 145.853271 
" clip-path="url(#p2ef36aaa6c)" style="fill: none; stroke: #303030; stroke-width: 4.5; stroke-linecap: square"/>
   </g>
   <g id="patch_3">
    <path d="M 44.93 307.550464 
L 44.93 12.109525 
" style="fill: none; stroke: #000000; stroke-width: 0.8; stroke-linejoin: miter; stroke-linecap: square"/>
   </g>
   <g id="patch_4">
    <path d="M 565.2 307.550464 
L 565.2 12.109525 
" style="fill: none; stroke: #000000; stroke-width: 0.8; stroke-linejoin: miter; stroke-linecap: square"/>
   </g>
   <g id="patch_5">
    <path d="M 44.93 307.550464 
L 565.2 307.550464 
" style="fill: none; stroke: #000000; stroke-width: 0.8; stroke-linejoin: miter; stroke-linecap: square"/>
   </g>
   <g id="patch_6">
    <path d="M 44.93 12.109525 
L 565.2 12.109525 
" style="fill: none; stroke: #000000; stroke-width: 0.8; stroke-linejoin: miter; stroke-linecap: square"/>
   </g>
   <g id="PathCollection_1">
    <defs>
     <path id="m4da87d740d" d="M 0 1.5 
C 0.397805 1.5 0.77937 1.341951 1.06066 1.06066 
C 1.341951 0.77937 1.5 0.397805 1.5 0 
C 1.5 -0.397805 1.341951 -0.77937 1.06066 -1.06066 
C 0.77937 -1.341951 0.397805 -1.5 0 -1.5 
C -0.397805 -1.5 -0.77937 -1.341951 -1.06066 -1.06066 
C -1.341951 -0.77937 -1.5 -0.397805 -1.5 0 
C -1.5 0.397805 -1.341951 0.77937 -1.06066 1.06066 
C -0.77937 1.341951 -0.397805 1.5 0 1.5 
z
" style="stroke: #303030"/>
    </defs>
    <g clip-path="url(#p2ef36aaa6c)">
     <use xlink:href="#m4da87d740d" x="96.957" y="167.673081" style="fill: #ffffff; stroke: #303030"/>
    </g>
   </g>
   <g id="PathCollection_2">
    <g clip-path="url(#p2ef36aaa6c)">
     <use xlink:href="#m4da87d740d" x="201.011" y="58.574032" style="fill: #ffffff; stroke: #303030"/>
    </g>
   </g>
   <g id="PathCollection_3">
    <g clip-path="url(#p2ef36aaa6c)">
     <use xlink:href="#m4da87d740d" x="305.065" y="189.492891" style="fill: #ffffff; stroke: #303030"/>
    </g>
   </g>
   <g id="PathCollection_4">
    <g clip-path="url(#p2ef36aaa6c)">
     <use xlink:href="#m4da87d740d" x="409.119" y="124.033461" style="fill: #ffffff; stroke: #303030"/>
    </g>
   </g>
   <g id="PathCollection_5">
    <g clip-path="url(#p2ef36aaa6c)">
     <use xlink:href="#m4da87d740d" x="513.173" y="145.853271" style="fill: #ffffff; stroke: #303030"/>
    </g>
   </g>
  </g>
 </g>
 <defs>
  <clipPath id="p2ef36aaa6c">
   <rect x="44.93" y="12.109525" width="520.27" height="295.440938"/>
  </clipPath>
 </defs>
</svg>
