<?xml version="1.0" encoding="utf-8" standalone="no"?>
<!DOCTYPE svg PUBLIC "-//W3C//DTD SVG 1.1//EN"
  "http://www.w3.org/Graphics/SVG/1.1/DTD/svg11.dtd">
<svg xmlns:xlink="http://www.w3.org/1999/xlink" width="576pt" height="360pt" viewBox="0 0 576 360" xmlns="http://www.w3.org/2000/svg" version="1.1">
 <metadata>
  <rdf:RDF xmlns:dc="http://purl.org/dc/elements/1.1/" xmlns:cc="http://creativecommons.org/ns#" xmlns:rdf="http://www.w3.org/1999/02/22-rdf-syntax-ns#">
   <cc:Work>
    <dc:type rdf:resource="http://purl.org/dc/dcmitype/StillImage"/>
    <dc:date>2026-01-20T07:59:43.751265</dc:date>
    <dc:format>image/svg+xml</dc:format>
    <dc:creator>
     <cc:Agent>
      <dc:title>Matplotlib v3.10.0, https://matplotlib.org/</dc:title>
     </cc:Agent>
    </dc:creator>
   </cc:Work>
  </rdf:RDF>
 </metadata>
 <defs>
  <style type="text/css">*{stroke-linejoin: round; stroke-linecap: butt}</style>
 </defs>
 <g id="figure_1">
  <g id="patch_1">
   <path d="M 0 360 
L 576 360 
L 576 0 
L 0 0 
z
" style="fill: #ffffff"/>
  </g>
  <g id="axes_1">
   <g id="patch_2">
    <path d="M 57.26 307.550464 
L 565.2 307.550464 
L 565.2 10.8 
L 57.26 10.8 
z
" style="fill: #ffffff"/>
   </g>
   <g id="FillBetweenPolyCollection_1">
    <defs>
     <path id="m18f38b3fe1" d="M 108.668931 -122.37429 
L 107.439069 -122.37429 
L 107.264083 -122.620192 
L 107.049898 -122.866094 
L 106.790858 -123.111996 
L 106.481309 -123.357898 
L 106.115838 -123.6038 
L 105.689544 -123.849701 
L 105.198337 -124.095603 
L 104.639259 -124.341505 
L 104.010803 -124.587407 
L 103.313209 -124.833309 
L 102.548719 -125.07921 
L 101.721768 -125.325112 
L 100.839078 -125.571014 
L 99.909648 -125.816916 
L 98.944607 -126.062818 
L 97.956941 -126.30872 
L 96.961064 -126.554621 
L 95.972274 -126.800523 
L 95.006081 -127.046425 
L 94.077461 -127.292327 
L 93.200065 -127.538229 
L 92.385435 -127.784131 
L 91.642272 -128.030032 
L 90.975838 -128.275934 
L 90.387505 -128.521836 
L 89.874535 -128.767738 
L 89.430092 -129.01364 
L 89.043519 -129.259542 
L 88.700863 -129.505443 
L 88.385626 -129.751345 
L 88.079689 -129.997247 
L 87.76436 -130.243149 
L 87.42145 -130.489051 
L 87.034317 -130.734953 
L 86.588797 -130.980854 
L 86.073958 -131.226756 
L 85.48264 -131.472658 
L 84.811749 -131.71856 
L 84.062317 -131.964462 
L 83.239349 -132.210364 
L 82.351497 -132.456265 
L 81.410618 -132.702167 
L 80.43127 -132.948069 
L 79.430203 -133.193971 
L 78.425878 -133.439873 
L 77.438032 -133.685775 
L 76.487299 -133.931676 
L 75.594863 -134.177578 
L 74.782109 -134.42348 
L 74.070248 -134.669382 
L 73.47985 -134.915284 
L 73.030295 -135.161186 
L 72.739101 -135.407087 
L 72.621165 -135.652989 
L 72.687944 -135.898891 
L 72.946639 -136.144793 
L 73.399452 -136.390695 
L 74.04302 -136.636597 
L 74.868074 -136.882498 
L 75.859423 -137.1284 
L 76.996287 -137.374302 
L 78.252999 -137.620204 
L 79.600059 -137.866106 
L 81.005484 -138.112008 
L 82.436366 -138.357909 
L 83.860544 -138.603811 
L 85.24825 -138.849713 
L 86.573623 -139.095615 
L 87.815972 -139.341517 
L 88.960682 -139.587419 
L 89.999722 -139.83332 
L 90.931695 -140.079222 
L 91.761452 -140.325124 
L 92.499306 -140.571026 
L 93.159908 -140.816928 
L 93.760896 -141.06283 
L 94.321409 -141.308731 
L 94.86061 -141.554633 
L 95.396294 -141.800535 
L 95.943713 -142.046437 
L 96.514677 -142.292339 
L 97.116973 -142.538241 
L 97.754146 -142.784142 
L 98.425594 -143.030044 
L 99.126976 -143.275946 
L 99.850845 -143.521848 
L 100.587447 -143.76775 
L 101.325606 -144.013651 
L 102.053612 -144.259553 
L 102.760043 -144.505455 
L 103.434475 -144.751357 
L 104.068022 -144.997259 
L 104.653713 -145.243161 
L 105.186679 -145.489062 
L 105.664177 -145.734964 
L 106.085468 -145.980866 
L 106.451594 -146.226768 
L 106.765074 -146.47267 
L 107.029561 -146.718572 
L 109.078439 -146.718572 
L 109.078439 -146.718572 
L 109.342926 -146.47267 
L 109.656406 -146.226768 
L 110.022532 -145.980866 
L 110.443823 -145.734964 
L 110.921321 -145.489062 
L 111.454287 -145.243161 
L 112.039978 -144.997259 
L 112.673525 -144.751357 
L 113.347957 -144.505455 
L 114.054388 -144.259553 
L 114.782394 -144.013651 
L 115.520553 -143.76775 
L 116.257155 -143.521848 
L 116.981024 -143.275946 
L 117.682406 -143.030044 
L 118.353854 -142.784142 
L 118.991027 -142.538241 
L 119.593323 -142.292339 
L 120.164287 -142.046437 
L 120.711706 -141.800535 
L 121.24739 -141.554633 
L 121.786591 -141.308731 
L 122.347104 -141.06283 
L 122.948092 -140.816928 
L 123.608694 -140.571026 
L 124.346548 -140.325124 
L 125.176305 -140.079222 
L 126.108278 -139.83332 
L 127.147318 -139.587419 
L 128.292028 -139.341517 
L 129.534377 -139.095615 
L 130.85975 -138.849713 
L 132.247456 -138.603811 
L 133.671634 -138.357909 
L 135.102516 -138.112008 
L 136.507941 -137.866106 
L 137.855001 -137.620204 
L 139.111713 -137.374302 
L 140.248577 -137.1284 
L 141.239926 -136.882498 
L 142.06498 -136.636597 
L 142.708548 -136.390695 
L 143.161361 -136.144793 
L 143.420056 -135.898891 
L 143.486835 -135.652989 
L 143.368899 -135.407087 
L 143.077705 -135.161186 
L 142.62815 -134.915284 
L 142.037752 -134.669382 
L 141.325891 -134.42348 
L 140.513137 -134.177578 
L 139.620701 -133.931676 
L 138.669968 -133.685775 
L 137.682122 -133.439873 
L 136.677797 -133.193971 
L 135.67673 -132.948069 
L 134.697382 -132.702167 
L 133.756503 -132.456265 
L 132.868651 -132.210364 
L 132.045683 -131.964462 
L 131.296251 -131.71856 
L 130.62536 -131.472658 
L 130.034042 -131.226756 
L 129.519203 -130.980854 
L 129.073683 -130.734953 
L 128.68655 -130.489051 
L 128.34364 -130.243149 
L 128.028311 -129.997247 
L 127.722374 -129.751345 
L 127.407137 -129.505443 
L 127.064481 -129.259542 
L 126.677908 -129.01364 
L 126.233465 -128.767738 
L 125.720495 -128.521836 
L 125.132162 -128.275934 
L 124.465728 -128.030032 
L 123.722565 -127.784131 
L 122.907935 -127.538229 
L 122.030539 -127.292327 
L 121.101919 -127.046425 
L 120.135726 -126.800523 
L 119.146936 -126.554621 
L 118.151059 -126.30872 
L 117.163393 -126.062818 
L 116.198352 -125.816916 
L 115.268922 -125.571014 
L 114.386232 -125.325112 
L 113.559281 -125.07921 
L 112.794791 -124.833309 
L 112.097197 -124.587407 
L 111.468741 -124.341505 
L 110.909663 -124.095603 
L 110.418456 -123.849701 
L 109.992162 -123.6038 
L 109.626691 -123.357898 
L 109.317142 -123.111996 
L 109.058102 -122.866094 
L 108.843917 -122.620192 
L 108.668931 -122.37429 
z
" style="stroke: #303030; stroke-width: 1.5"/>
    </defs>
    <g clip-path="url(#p8fa53534ea)">
     <use xlink:href="#m18f38b3fe1" x="0" y="360" style="fill: #176d9c; stroke: #303030; stroke-width: 1.5"/>
    </g>
   </g>
   <g id="FillBetweenPolyCollection_2">
    <defs>
     <path id="m976b099402" d="M 210.704813 -296.983243 
L 208.579187 -296.983243 
L 208.291535 -297.205503 
L 207.942482 -297.427762 
L 207.52361 -297.650021 
L 207.026556 -297.87228 
L 206.443357 -298.094539 
L 205.766855 -298.316799 
L 204.991145 -298.539058 
L 204.112065 -298.761317 
L 203.127679 -298.983576 
L 202.03876 -299.205835 
L 200.849221 -299.428094 
L 199.566461 -299.650354 
L 198.201614 -299.872613 
L 196.769648 -300.094872 
L 195.289295 -300.317131 
L 193.782807 -300.53939 
L 192.275507 -300.76165 
L 190.795146 -300.983909 
L 189.371081 -301.206168 
L 188.033295 -301.428427 
L 186.811292 -301.650686 
L 185.73293 -301.872945 
L 184.823221 -302.095205 
L 184.10319 -302.317464 
L 183.58883 -302.539723 
L 183.290219 -302.761982 
L 183.21086 -302.984241 
L 183.347265 -303.206501 
L 183.688831 -303.42876 
L 184.218002 -303.651019 
L 184.910719 -303.873278 
L 185.737135 -304.095537 
L 186.662558 -304.317796 
L 187.648573 -304.540056 
L 188.654294 -304.762315 
L 189.637691 -304.984574 
L 190.556931 -305.206833 
L 191.371691 -305.429092 
L 192.044393 -305.651352 
L 192.541353 -305.873611 
L 192.833785 -306.09587 
L 192.898679 -306.318129 
L 192.719531 -306.540388 
L 192.286912 -306.762647 
L 191.598882 -306.984907 
L 190.661227 -307.207166 
L 189.487526 -307.429425 
L 188.099003 -307.651684 
L 186.524173 -307.873943 
L 184.798248 -308.096203 
L 182.962305 -308.318462 
L 181.0622 -308.540721 
L 179.147254 -308.76298 
L 177.26874 -308.985239 
L 175.478204 -309.207498 
L 173.825708 -309.429758 
L 172.358053 -309.652017 
L 171.117096 -309.874276 
L 170.13822 -310.096535 
L 169.449081 -310.318794 
L 169.068675 -310.541054 
L 169.0068 -310.763313 
L 169.263938 -310.985572 
L 169.831549 -311.207831 
L 170.692775 -311.43009 
L 171.823475 -311.652349 
L 173.193539 -311.874609 
L 174.768389 -312.096868 
L 176.510566 -312.319127 
L 178.381313 -312.541386 
L 180.342066 -312.763645 
L 182.355784 -312.985905 
L 184.38805 -313.208164 
L 186.407924 -313.430423 
L 188.388522 -313.652682 
L 190.307333 -313.874941 
L 192.146288 -314.0972 
L 193.891628 -314.31946 
L 195.533606 -314.541719 
L 197.066067 -314.763978 
L 198.485959 -314.986237 
L 199.79282 -315.208496 
L 200.988261 -315.430756 
L 202.075494 -315.653015 
L 203.058906 -315.875274 
L 203.943703 -316.097533 
L 204.735612 -316.319792 
L 205.44066 -316.542051 
L 206.065003 -316.764311 
L 206.614798 -316.98657 
L 207.096126 -317.208829 
L 207.514929 -317.431088 
L 207.876968 -317.653347 
L 208.187797 -317.875607 
L 208.452738 -318.097866 
L 208.676854 -318.320125 
L 208.864934 -318.542384 
L 209.021465 -318.764643 
L 209.150622 -318.986902 
L 210.133378 -318.986902 
L 210.133378 -318.986902 
L 210.262535 -318.764643 
L 210.419066 -318.542384 
L 210.607146 -318.320125 
L 210.831262 -318.097866 
L 211.096203 -317.875607 
L 211.407032 -317.653347 
L 211.769071 -317.431088 
L 212.187874 -317.208829 
L 212.669202 -316.98657 
L 213.218997 -316.764311 
L 213.84334 -316.542051 
L 214.548388 -316.319792 
L 215.340297 -316.097533 
L 216.225094 -315.875274 
L 217.208506 -315.653015 
L 218.295739 -315.430756 
L 219.49118 -315.208496 
L 220.798041 -314.986237 
L 222.217933 -314.763978 
L 223.750394 -314.541719 
L 225.392372 -314.31946 
L 227.137712 -314.0972 
L 228.976667 -313.874941 
L 230.895478 -313.652682 
L 232.876076 -313.430423 
L 234.89595 -313.208164 
L 236.928216 -312.985905 
L 238.941934 -312.763645 
L 240.902687 -312.541386 
L 242.773434 -312.319127 
L 244.515611 -312.096868 
L 246.090461 -311.874609 
L 247.460525 -311.652349 
L 248.591225 -311.43009 
L 249.452451 -311.207831 
L 250.020062 -310.985572 
L 250.2772 -310.763313 
L 250.215325 -310.541054 
L 249.834919 -310.318794 
L 249.14578 -310.096535 
L 248.166904 -309.874276 
L 246.925947 -309.652017 
L 245.458292 -309.429758 
L 243.805796 -309.207498 
L 242.01526 -308.985239 
L 240.136746 -308.76298 
L 238.2218 -308.540721 
L 236.321695 -308.318462 
L 234.485752 -308.096203 
L 232.759827 -307.873943 
L 231.184997 -307.651684 
L 229.796474 -307.429425 
L 228.622773 -307.207166 
L 227.685118 -306.984907 
L 226.997088 -306.762647 
L 226.564469 -306.540388 
L 226.385321 -306.318129 
L 226.450215 -306.09587 
L 226.742647 -305.873611 
L 227.239607 -305.651352 
L 227.912309 -305.429092 
L 228.727069 -305.206833 
L 229.646309 -304.984574 
L 230.629706 -304.762315 
L 231.635427 -304.540056 
L 232.621442 -304.317796 
L 233.546865 -304.095537 
L 234.373281 -303.873278 
L 235.065998 -303.651019 
L 235.595169 -303.42876 
L 235.936735 -303.206501 
L 236.07314 -302.984241 
L 235.993781 -302.761982 
L 235.69517 -302.539723 
L 235.18081 -302.317464 
L 234.460779 -302.095205 
L 233.55107 -301.872945 
L 232.472708 -301.650686 
L 231.250705 -301.428427 
L 229.912919 -301.206168 
L 228.488854 -300.983909 
L 227.008493 -300.76165 
L 225.501193 -300.53939 
L 223.994705 -300.317131 
L 222.514352 -300.094872 
L 221.082386 -299.872613 
L 219.717539 -299.650354 
L 218.434779 -299.428094 
L 217.24524 -299.205835 
L 216.156321 -298.983576 
L 215.171935 -298.761317 
L 214.292855 -298.539058 
L 213.517145 -298.316799 
L 212.840643 -298.094539 
L 212.257444 -297.87228 
L 211.76039 -297.650021 
L 211.341518 -297.427762 
L 210.992465 -297.205503 
L 210.704813 -296.983243 
z
" style="stroke: #303030; stroke-width: 1.5"/>
    </defs>
    <g clip-path="url(#p8fa53534ea)">
     <use xlink:href="#m976b099402" x="0" y="360" style="fill: #c38820; stroke: #303030; stroke-width: 1.5"/>
    </g>
   </g>
   <g id="FillBetweenPolyCollection_3">
    <defs>
     <path id="mfcf81883a2" d="M 311.716681 -65.938194 
L 310.743319 -65.938194 
L 310.600584 -66.323836 
L 310.424138 -66.709478 
L 310.208485 -67.095121 
L 309.94789 -67.480763 
L 309.636556 -67.866406 
L 309.26883 -68.252048 
L 308.839447 -68.637691 
L 308.343814 -69.023333 
L 307.7783 -69.408976 
L 307.140539 -69.794618 
L 306.429721 -70.180261 
L 305.646849 -70.565903 
L 304.794949 -70.951546 
L 303.879206 -71.337188 
L 302.907018 -71.722831 
L 301.887948 -72.108473 
L 300.833569 -72.494116 
L 299.757193 -72.879758 
L 298.673504 -73.265401 
L 297.598094 -73.651043 
L 296.546921 -74.036686 
L 295.535733 -74.422328 
L 294.57946 -74.80797 
L 293.69164 -75.193613 
L 292.883882 -75.579255 
L 292.165428 -75.964898 
L 291.542816 -76.35054 
L 291.019691 -76.736183 
L 290.596759 -77.121825 
L 290.271895 -77.507468 
L 290.040403 -77.89311 
L 289.895407 -78.278753 
L 289.82835 -78.664395 
L 289.829568 -79.050038 
L 289.888894 -79.43568 
L 289.996273 -79.821323 
L 290.142318 -80.206965 
L 290.318796 -80.592608 
L 290.519004 -80.97825 
L 290.738 -81.363893 
L 290.972712 -81.749535 
L 291.221878 -82.135178 
L 291.485868 -82.52082 
L 291.766376 -82.906462 
L 292.066032 -83.292105 
L 292.387949 -83.677747 
L 292.735254 -84.06339 
L 293.110636 -84.449032 
L 293.515944 -84.834675 
L 293.951864 -85.220317 
L 294.417702 -85.60596 
L 294.911281 -85.991602 
L 295.428958 -86.377245 
L 295.965755 -86.762887 
L 296.515592 -87.14853 
L 297.071598 -87.534172 
L 297.626471 -87.919815 
L 298.172865 -88.305457 
L 298.703772 -88.6911 
L 299.212869 -89.076742 
L 299.694819 -89.462385 
L 300.145496 -89.848027 
L 300.562143 -90.233669 
L 300.943444 -90.619312 
L 301.289525 -91.004954 
L 301.601885 -91.390597 
L 301.883279 -91.776239 
L 302.137543 -92.161882 
L 302.3694 -92.547524 
L 302.584239 -92.933167 
L 302.787873 -93.318809 
L 302.986306 -93.704452 
L 303.185485 -94.090094 
L 303.391066 -94.475737 
L 303.608182 -94.861379 
L 303.841242 -95.247022 
L 304.093737 -95.632664 
L 304.368096 -96.018307 
L 304.665576 -96.403949 
L 304.986202 -96.789592 
L 305.328774 -97.175234 
L 305.690921 -97.560877 
L 306.069225 -97.946519 
L 306.459397 -98.332161 
L 306.856494 -98.717804 
L 307.25517 -99.103446 
L 307.649943 -99.489089 
L 308.035455 -99.874731 
L 308.406716 -100.260374 
L 308.759311 -100.646016 
L 309.089564 -101.031659 
L 309.394644 -101.417301 
L 309.672619 -101.802944 
L 309.922455 -102.188586 
L 310.143964 -102.574229 
L 310.337716 -102.959871 
L 310.504923 -103.345514 
L 310.647301 -103.731156 
L 310.766932 -104.116799 
L 311.693068 -104.116799 
L 311.693068 -104.116799 
L 311.812699 -103.731156 
L 311.955077 -103.345514 
L 312.122284 -102.959871 
L 312.316036 -102.574229 
L 312.537545 -102.188586 
L 312.787381 -101.802944 
L 313.065356 -101.417301 
L 313.370436 -101.031659 
L 313.700689 -100.646016 
L 314.053284 -100.260374 
L 314.424545 -99.874731 
L 314.810057 -99.489089 
L 315.20483 -99.103446 
L 315.603506 -98.717804 
L 316.000603 -98.332161 
L 316.390775 -97.946519 
L 316.769079 -97.560877 
L 317.131226 -97.175234 
L 317.473798 -96.789592 
L 317.794424 -96.403949 
L 318.091904 -96.018307 
L 318.366263 -95.632664 
L 318.618758 -95.247022 
L 318.851818 -94.861379 
L 319.068934 -94.475737 
L 319.274515 -94.090094 
L 319.473694 -93.704452 
L 319.672127 -93.318809 
L 319.875761 -92.933167 
L 320.0906 -92.547524 
L 320.322457 -92.161882 
L 320.576721 -91.776239 
L 320.858115 -91.390597 
L 321.170475 -91.004954 
L 321.516556 -90.619312 
L 321.897857 -90.233669 
L 322.314504 -89.848027 
L 322.765181 -89.462385 
L 323.247131 -89.076742 
L 323.756228 -88.6911 
L 324.287135 -88.305457 
L 324.833529 -87.919815 
L 325.388402 -87.534172 
L 325.944408 -87.14853 
L 326.494245 -86.762887 
L 327.031042 -86.377245 
L 327.548719 -85.991602 
L 328.042298 -85.60596 
L 328.508136 -85.220317 
L 328.944056 -84.834675 
L 329.349364 -84.449032 
L 329.724746 -84.06339 
L 330.072051 -83.677747 
L 330.393968 -83.292105 
L 330.693624 -82.906462 
L 330.974132 -82.52082 
L 331.238122 -82.135178 
L 331.487288 -81.749535 
L 331.722 -81.363893 
L 331.940996 -80.97825 
L 332.141204 -80.592608 
L 332.317682 -80.206965 
L 332.463727 -79.821323 
L 332.571106 -79.43568 
L 332.630432 -79.050038 
L 332.63165 -78.664395 
L 332.564593 -78.278753 
L 332.419597 -77.89311 
L 332.188105 -77.507468 
L 331.863241 -77.121825 
L 331.440309 -76.736183 
L 330.917184 -76.35054 
L 330.294572 -75.964898 
L 329.576118 -75.579255 
L 328.76836 -75.193613 
L 327.88054 -74.80797 
L 326.924267 -74.422328 
L 325.913079 -74.036686 
L 324.861906 -73.651043 
L 323.786496 -73.265401 
L 322.702807 -72.879758 
L 321.626431 -72.494116 
L 320.572052 -72.108473 
L 319.552982 -71.722831 
L 318.580794 -71.337188 
L 317.665051 -70.951546 
L 316.813151 -70.565903 
L 316.030279 -70.180261 
L 315.319461 -69.794618 
L 314.6817 -69.408976 
L 314.116186 -69.023333 
L 313.620553 -68.637691 
L 313.19117 -68.252048 
L 312.823444 -67.866406 
L 312.51211 -67.480763 
L 312.251515 -67.095121 
L 312.035862 -66.709478 
L 311.859416 -66.323836 
L 311.716681 -65.938194 
z
" style="stroke: #303030; stroke-width: 1.5"/>
    </defs>
    <g clip-path="url(#p8fa53534ea)">
     <use xlink:href="#mfcf81883a2" x="0" y="360" style="fill: #158b6a; stroke: #303030; stroke-width: 1.5"/>
    </g>
   </g>
   <g id="FillBetweenPolyCollection_4">
    <defs>
     <path id="m54024585fb" d="M 413.43678 -311.259125 
L 412.19922 -311.259125 
L 412.017841 -311.506117 
L 411.794825 -311.753109 
L 411.524093 -312.000101 
L 411.199596 -312.247093 
L 410.815566 -312.494085 
L 410.3668 -312.741078 
L 409.84894 -312.98807 
L 409.258763 -313.235062 
L 408.594414 -313.482054 
L 407.855597 -313.729046 
L 407.043664 -313.976038 
L 406.161606 -314.22303 
L 405.213923 -314.470022 
L 404.206365 -314.717014 
L 403.145569 -314.964006 
L 402.038603 -315.210999 
L 400.89246 -315.457991 
L 399.713549 -315.704983 
L 398.507234 -315.951975 
L 397.277484 -316.198967 
L 396.026672 -316.445959 
L 394.75558 -316.692951 
L 393.463612 -316.939943 
L 392.149234 -317.186935 
L 390.8106 -317.433927 
L 389.446335 -317.68092 
L 388.056402 -317.927912 
L 386.64297 -318.174904 
L 385.211208 -318.421896 
L 383.769913 -318.668888 
L 382.331907 -318.91588 
L 380.914145 -319.162872 
L 379.537498 -319.409864 
L 378.226214 -319.656856 
L 377.007067 -319.903848 
L 375.908253 -320.15084 
L 374.958076 -320.397833 
L 374.183531 -320.644825 
L 373.608851 -320.891817 
L 373.254129 -321.138809 
L 373.134099 -321.385801 
L 373.257156 -321.632793 
L 373.624697 -321.879785 
L 374.230818 -322.126777 
L 375.06241 -322.373769 
L 376.099644 -322.620761 
L 377.316833 -322.867754 
L 378.683602 -323.114746 
L 380.166309 -323.361738 
L 381.729606 -323.60873 
L 383.338031 -323.855722 
L 384.957532 -324.102714 
L 386.556803 -324.349706 
L 388.108354 -324.596698 
L 389.589252 -324.84369 
L 390.981502 -325.090682 
L 392.27208 -325.337674 
L 393.452649 -325.584667 
L 394.519041 -325.831659 
L 395.470574 -326.078651 
L 396.309325 -326.325643 
L 397.039419 -326.572635 
L 397.666444 -326.819627 
L 398.197021 -327.066619 
L 398.63856 -327.313611 
L 398.999188 -327.560603 
L 399.287826 -327.807595 
L 399.514333 -328.054588 
L 399.689669 -328.30158 
L 399.825988 -328.548572 
L 399.936611 -328.795564 
L 400.035835 -329.042556 
L 400.138554 -329.289548 
L 400.259718 -329.53654 
L 400.413652 -329.783532 
L 400.613308 -330.030524 
L 400.869518 -330.277516 
L 401.190329 -330.524509 
L 401.580479 -330.771501 
L 402.041091 -331.018493 
L 402.569599 -331.265485 
L 403.15993 -331.512477 
L 403.802919 -331.759469 
L 404.486919 -332.006461 
L 405.198555 -332.253453 
L 405.923542 -332.500445 
L 406.64752 -332.747437 
L 407.356825 -332.994429 
L 408.039139 -333.241422 
L 408.684004 -333.488414 
L 409.283154 -333.735406 
L 409.830675 -333.982398 
L 410.323003 -334.22939 
L 410.758776 -334.476382 
L 411.138583 -334.723374 
L 411.464638 -334.970366 
L 411.740412 -335.217358 
L 411.970267 -335.46435 
L 412.159098 -335.711343 
L 413.476902 -335.711343 
L 413.476902 -335.711343 
L 413.665733 -335.46435 
L 413.895588 -335.217358 
L 414.171362 -334.970366 
L 414.497417 -334.723374 
L 414.877224 -334.476382 
L 415.312997 -334.22939 
L 415.805325 -333.982398 
L 416.352846 -333.735406 
L 416.951996 -333.488414 
L 417.596861 -333.241422 
L 418.279175 -332.994429 
L 418.98848 -332.747437 
L 419.712458 -332.500445 
L 420.437445 -332.253453 
L 421.149081 -332.006461 
L 421.833081 -331.759469 
L 422.47607 -331.512477 
L 423.066401 -331.265485 
L 423.594909 -331.018493 
L 424.055521 -330.771501 
L 424.445671 -330.524509 
L 424.766482 -330.277516 
L 425.022692 -330.030524 
L 425.222348 -329.783532 
L 425.376282 -329.53654 
L 425.497446 -329.289548 
L 425.600165 -329.042556 
L 425.699389 -328.795564 
L 425.810012 -328.548572 
L 425.946331 -328.30158 
L 426.121667 -328.054588 
L 426.348174 -327.807595 
L 426.636812 -327.560603 
L 426.99744 -327.313611 
L 427.438979 -327.066619 
L 427.969556 -326.819627 
L 428.596581 -326.572635 
L 429.326675 -326.325643 
L 430.165426 -326.078651 
L 431.116959 -325.831659 
L 432.183351 -325.584667 
L 433.36392 -325.337674 
L 434.654498 -325.090682 
L 436.046748 -324.84369 
L 437.527646 -324.596698 
L 439.079197 -324.349706 
L 440.678468 -324.102714 
L 442.297969 -323.855722 
L 443.906394 -323.60873 
L 445.469691 -323.361738 
L 446.952398 -323.114746 
L 448.319167 -322.867754 
L 449.536356 -322.620761 
L 450.57359 -322.373769 
L 451.405182 -322.126777 
L 452.011303 -321.879785 
L 452.378844 -321.632793 
L 452.501901 -321.385801 
L 452.381871 -321.138809 
L 452.027149 -320.891817 
L 451.452469 -320.644825 
L 450.677924 -320.397833 
L 449.727747 -320.15084 
L 448.628933 -319.903848 
L 447.409786 -319.656856 
L 446.098502 -319.409864 
L 444.721855 -319.162872 
L 443.304093 -318.91588 
L 441.866087 -318.668888 
L 440.424792 -318.421896 
L 438.99303 -318.174904 
L 437.579598 -317.927912 
L 436.189665 -317.68092 
L 434.8254 -317.433927 
L 433.486766 -317.186935 
L 432.172388 -316.939943 
L 430.88042 -316.692951 
L 429.609328 -316.445959 
L 428.358516 -316.198967 
L 427.128766 -315.951975 
L 425.922451 -315.704983 
L 424.74354 -315.457991 
L 423.597397 -315.210999 
L 422.490431 -314.964006 
L 421.429635 -314.717014 
L 420.422077 -314.470022 
L 419.474394 -314.22303 
L 418.592336 -313.976038 
L 417.780403 -313.729046 
L 417.041586 -313.482054 
L 416.377237 -313.235062 
L 415.78706 -312.98807 
L 415.2692 -312.741078 
L 414.820434 -312.494085 
L 414.436404 -312.247093 
L 414.111907 -312.000101 
L 413.841175 -311.753109 
L 413.618159 -311.506117 
L 413.43678 -311.259125 
z
" style="stroke: #303030; stroke-width: 1.5"/>
    </defs>
    <g clip-path="url(#p8fa53534ea)">
     <use xlink:href="#m54024585fb" x="0" y="360" style="fill: #ba611b; stroke: #303030; stroke-width: 1.5"/>
    </g>
   </g>
   <g id="FillBetweenPolyCollection_5">
    <defs>
     <path id="m238d2ad95c" d="M 515.410566 -294.586735 
L 513.401434 -294.586735 
L 513.13769 -294.817855 
L 512.82008 -295.048974 
L 512.441736 -295.280094 
L 511.99589 -295.511214 
L 511.476121 -295.742333 
L 510.876633 -295.973453 
L 510.192547 -296.204573 
L 509.420217 -296.435692 
L 508.557528 -296.666812 
L 507.604198 -296.897932 
L 506.562039 -297.129051 
L 505.435183 -297.360171 
L 504.230256 -297.591291 
L 502.956485 -297.82241 
L 501.625722 -298.05353 
L 500.252386 -298.28465 
L 498.853306 -298.515769 
L 497.447448 -298.746889 
L 496.055544 -298.978009 
L 494.699598 -299.209128 
L 493.40229 -299.440248 
L 492.186278 -299.671367 
L 491.073418 -299.902487 
L 490.08393 -300.133607 
L 489.235539 -300.364726 
L 488.542641 -300.595846 
L 488.015522 -300.826966 
L 487.659702 -301.058085 
L 487.475429 -301.289205 
L 487.457386 -301.520325 
L 487.594627 -301.751444 
L 487.870779 -301.982564 
L 488.264503 -302.213684 
L 488.750207 -302.444803 
L 489.298988 -302.675923 
L 489.879751 -302.907043 
L 490.46045 -303.138162 
L 491.00939 -303.369282 
L 491.496517 -303.600402 
L 491.894628 -303.831521 
L 492.180446 -304.062641 
L 492.335499 -304.29376 
L 492.34678 -304.52488 
L 492.207157 -304.756 
L 491.915521 -304.987119 
L 491.4767 -305.218239 
L 490.901132 -305.449359 
L 490.204352 -305.680478 
L 489.406307 -305.911598 
L 488.530554 -306.142718 
L 487.603362 -306.373837 
L 486.652778 -306.604957 
L 485.707674 -306.836077 
L 484.796812 -307.067196 
L 483.94796 -307.298316 
L 483.187073 -307.529436 
L 482.537578 -307.760555 
L 482.019756 -307.991675 
L 481.650267 -308.222795 
L 481.441796 -308.453914 
L 481.40286 -308.685034 
L 481.537751 -308.916154 
L 481.846632 -309.147273 
L 482.325761 -309.378393 
L 482.967837 -309.609512 
L 483.762441 -309.840632 
L 484.696553 -310.071752 
L 485.755109 -310.302871 
L 486.921572 -310.533991 
L 488.178493 -310.765111 
L 489.508037 -310.99623 
L 490.892444 -311.22735 
L 492.314432 -311.45847 
L 493.757519 -311.689589 
L 495.206267 -311.920709 
L 496.64646 -312.151829 
L 498.065215 -312.382948 
L 499.45104 -312.614068 
L 500.793863 -312.845188 
L 502.085014 -313.076307 
L 503.317207 -313.307427 
L 504.484499 -313.538547 
L 505.582245 -313.769666 
L 506.607052 -314.000786 
L 507.556721 -314.231905 
L 508.430194 -314.463025 
L 509.227478 -314.694145 
L 509.949577 -314.925264 
L 510.598397 -315.156384 
L 511.176649 -315.387504 
L 511.687732 -315.618623 
L 512.135618 -315.849743 
L 512.524719 -316.080863 
L 512.85976 -316.311982 
L 513.145648 -316.543102 
L 513.387352 -316.774222 
L 513.589789 -317.005341 
L 513.757726 -317.236461 
L 513.8957 -317.467581 
L 514.9163 -317.467581 
L 514.9163 -317.467581 
L 515.054274 -317.236461 
L 515.222211 -317.005341 
L 515.424648 -316.774222 
L 515.666352 -316.543102 
L 515.95224 -316.311982 
L 516.287281 -316.080863 
L 516.676382 -315.849743 
L 517.124268 -315.618623 
L 517.635351 -315.387504 
L 518.213603 -315.156384 
L 518.862423 -314.925264 
L 519.584522 -314.694145 
L 520.381806 -314.463025 
L 521.255279 -314.231905 
L 522.204948 -314.000786 
L 523.229755 -313.769666 
L 524.327501 -313.538547 
L 525.494793 -313.307427 
L 526.726986 -313.076307 
L 528.018137 -312.845188 
L 529.36096 -312.614068 
L 530.746785 -312.382948 
L 532.16554 -312.151829 
L 533.605733 -311.920709 
L 535.054481 -311.689589 
L 536.497568 -311.45847 
L 537.919556 -311.22735 
L 539.303963 -310.99623 
L 540.633507 -310.765111 
L 541.890428 -310.533991 
L 543.056891 -310.302871 
L 544.115447 -310.071752 
L 545.049559 -309.840632 
L 545.844163 -309.609512 
L 546.486239 -309.378393 
L 546.965368 -309.147273 
L 547.274249 -308.916154 
L 547.40914 -308.685034 
L 547.370204 -308.453914 
L 547.161733 -308.222795 
L 546.792244 -307.991675 
L 546.274422 -307.760555 
L 545.624927 -307.529436 
L 544.86404 -307.298316 
L 544.015188 -307.067196 
L 543.104326 -306.836077 
L 542.159222 -306.604957 
L 541.208638 -306.373837 
L 540.281446 -306.142718 
L 539.405693 -305.911598 
L 538.607648 -305.680478 
L 537.910868 -305.449359 
L 537.3353 -305.218239 
L 536.896479 -304.987119 
L 536.604843 -304.756 
L 536.46522 -304.52488 
L 536.476501 -304.29376 
L 536.631554 -304.062641 
L 536.917372 -303.831521 
L 537.315483 -303.600402 
L 537.80261 -303.369282 
L 538.35155 -303.138162 
L 538.932249 -302.907043 
L 539.513012 -302.675923 
L 540.061793 -302.444803 
L 540.547497 -302.213684 
L 540.941221 -301.982564 
L 541.217373 -301.751444 
L 541.354614 -301.520325 
L 541.336571 -301.289205 
L 541.152298 -301.058085 
L 540.796478 -300.826966 
L 540.269359 -300.595846 
L 539.576461 -300.364726 
L 538.72807 -300.133607 
L 537.738582 -299.902487 
L 536.625722 -299.671367 
L 535.40971 -299.440248 
L 534.112402 -299.209128 
L 532.756456 -298.978009 
L 531.364552 -298.746889 
L 529.958694 -298.515769 
L 528.559614 -298.28465 
L 527.186278 -298.05353 
L 525.855515 -297.82241 
L 524.581744 -297.591291 
L 523.376817 -297.360171 
L 522.249961 -297.129051 
L 521.207802 -296.897932 
L 520.254472 -296.666812 
L 519.391783 -296.435692 
L 518.619453 -296.204573 
L 517.935367 -295.973453 
L 517.335879 -295.742333 
L 516.81611 -295.511214 
L 516.370264 -295.280094 
L 515.99192 -295.048974 
L 515.67431 -294.817855 
L 515.410566 -294.586735 
z
" style="stroke: #303030; stroke-width: 1.5"/>
    </defs>
    <g clip-path="url(#p8fa53534ea)">
     <use xlink:href="#m238d2ad95c" x="0" y="360" style="fill: #c282b5; stroke: #303030; stroke-width: 1.5"/>
    </g>
   </g>
   <g id="matplotlib.axis_1">
    <g id="xtick_1">
     <g id="line2d_1">
      <defs>
       <path id="m4718c214a6" d="M 0 0 
L 0 3.5 
" style="stroke: #000000; stroke-width: 0.8"/>
      </defs>
      <g>
       <use xlink:href="#m4718c214a6" x="108.054" y="307.550464" style="stroke: #000000; stroke-width: 0.8"/>
      </g>
     </g>
     <g id="text_1">
      <!-- Feng Cha -->
      <g transform="translate(89.226203 344.464498) rotate(-30) scale(0.1 -0.1)">
       <defs>
        <path id="DejaVuSans-46" d="M 628 4666 
L 3309 4666 
L 3309 4134 
L 1259 4134 
L 1259 2759 
L 3109 2759 
L 3109 2228 
L 1259 2228 
L 1259 0 
L 628 0 
L 628 4666 
z
" transform="scale(0.015625)"/>
        <path id="DejaVuSans-65" d="M 3597 1894 
L 3597 1613 
L 953 1613 
Q 991 1019 1311 708 
Q 1631 397 2203 397 
Q 2534 397 2845 478 
Q 3156 559 3463 722 
L 3463 178 
Q 3153 47 2828 -22 
Q 2503 -91 2169 -91 
Q 1331 -91 842 396 
Q 353 884 353 1716 
Q 353 2575 817 3079 
Q 1281 3584 2069 3584 
Q 2775 3584 3186 3129 
Q 3597 2675 3597 1894 
z
M 3022 2063 
Q 3016 2534 2758 2815 
Q 2500 3097 2075 3097 
Q 1594 3097 1305 2825 
Q 1016 2553 972 2059 
L 3022 2063 
z
" transform="scale(0.015625)"/>
        <path id="DejaVuSans-6e" d="M 3513 2113 
L 3513 0 
L 2938 0 
L 2938 2094 
Q 2938 2591 2744 2837 
Q 2550 3084 2163 3084 
Q 1697 3084 1428 2787 
Q 1159 2491 1159 1978 
L 1159 0 
L 581 0 
L 581 3500 
L 1159 3500 
L 1159 2956 
Q 1366 3272 1645 3428 
Q 1925 3584 2291 3584 
Q 2894 3584 3203 3211 
Q 3513 2838 3513 2113 
z
" transform="scale(0.015625)"/>
        <path id="DejaVuSans-67" d="M 2906 1791 
Q 2906 2416 2648 2759 
Q 2391 3103 1925 3103 
Q 1463 3103 1205 2759 
Q 947 2416 947 1791 
Q 947 1169 1205 825 
Q 1463 481 1925 481 
Q 2391 481 2648 825 
Q 2906 1169 2906 1791 
z
M 3481 434 
Q 3481 -459 3084 -895 
Q 2688 -1331 1869 -1331 
Q 1566 -1331 1297 -1286 
Q 1028 -1241 775 -1147 
L 775 -588 
Q 1028 -725 1275 -790 
Q 1522 -856 1778 -856 
Q 2344 -856 2625 -561 
Q 2906 -266 2906 331 
L 2906 616 
Q 2728 306 2450 153 
Q 2172 0 1784 0 
Q 1141 0 747 490 
Q 353 981 353 1791 
Q 353 2603 747 3093 
Q 1141 3584 1784 3584 
Q 2172 3584 2450 3431 
Q 2728 3278 2906 2969 
L 2906 3500 
L 3481 3500 
L 3481 434 
z
" transform="scale(0.015625)"/>
        <path id="DejaVuSans-20" transform="scale(0.015625)"/>
        <path id="DejaVuSans-43" d="M 4122 4306 
L 4122 3641 
Q 3803 3938 3442 4084 
Q 3081 4231 2675 4231 
Q 1875 4231 1450 3742 
Q 1025 3253 1025 2328 
Q 1025 1406 1450 917 
Q 1875 428 2675 428 
Q 3081 428 3442 575 
Q 3803 722 4122 1019 
L 4122 359 
Q 3791 134 3420 21 
Q 3050 -91 2638 -91 
Q 1578 -91 968 557 
Q 359 1206 359 2328 
Q 359 3453 968 4101 
Q 1578 4750 2638 4750 
Q 3056 4750 3426 4639 
Q 3797 4528 4122 4306 
z
" transform="scale(0.015625)"/>
        <path id="DejaVuSans-68" d="M 3513 2113 
L 3513 0 
L 2938 0 
L 2938 2094 
Q 2938 2591 2744 2837 
Q 2550 3084 2163 3084 
Q 1697 3084 1428 2787 
Q 1159 2491 1159 1978 
L 1159 0 
L 581 0 
L 581 4863 
L 1159 4863 
L 1159 2956 
Q 1366 3272 1645 3428 
Q 1925 3584 2291 3584 
Q 2894 3584 3203 3211 
Q 3513 2838 3513 2113 
z
" transform="scale(0.015625)"/>
        <path id="DejaVuSans-61" d="M 2194 1759 
Q 1497 1759 1228 1600 
Q 959 1441 959 1056 
Q 959 750 1161 570 
Q 1363 391 1709 391 
Q 2188 391 2477 730 
Q 2766 1069 2766 1631 
L 2766 1759 
L 2194 1759 
z
M 3341 1997 
L 3341 0 
L 2766 0 
L 2766 531 
Q 2569 213 2275 61 
Q 1981 -91 1556 -91 
Q 1019 -91 701 211 
Q 384 513 384 1019 
Q 384 1609 779 1909 
Q 1175 2209 1959 2209 
L 2766 2209 
L 2766 2266 
Q 2766 2663 2505 2880 
Q 2244 3097 1772 3097 
Q 1472 3097 1187 3025 
Q 903 2953 641 2809 
L 641 3341 
Q 956 3463 1253 3523 
Q 1550 3584 1831 3584 
Q 2591 3584 2966 3190 
Q 3341 2797 3341 1997 
z
" transform="scale(0.015625)"/>
       </defs>
       <use xlink:href="#DejaVuSans-46"/>
       <use xlink:href="#DejaVuSans-65" transform="translate(52.019531 0)"/>
       <use xlink:href="#DejaVuSans-6e" transform="translate(113.542969 0)"/>
       <use xlink:href="#DejaVuSans-67" transform="translate(176.921875 0)"/>
       <use xlink:href="#DejaVuSans-20" transform="translate(240.398438 0)"/>
       <use xlink:href="#DejaVuSans-43" transform="translate(272.185547 0)"/>
       <use xlink:href="#DejaVuSans-68" transform="translate(342.009766 0)"/>
       <use xlink:href="#DejaVuSans-61" transform="translate(405.388672 0)"/>
      </g>
     </g>
    </g>
    <g id="xtick_2">
     <g id="line2d_2">
      <g>
       <use xlink:href="#m4718c214a6" x="209.642" y="307.550464" style="stroke: #000000; stroke-width: 0.8"/>
      </g>
     </g>
     <g id="text_2">
      <!-- Sharetea -->
      <g transform="translate(191.512436 343.658248) rotate(-30) scale(0.1 -0.1)">
       <defs>
        <path id="DejaVuSans-53" d="M 3425 4513 
L 3425 3897 
Q 3066 4069 2747 4153 
Q 2428 4238 2131 4238 
Q 1616 4238 1336 4038 
Q 1056 3838 1056 3469 
Q 1056 3159 1242 3001 
Q 1428 2844 1947 2747 
L 2328 2669 
Q 3034 2534 3370 2195 
Q 3706 1856 3706 1288 
Q 3706 609 3251 259 
Q 2797 -91 1919 -91 
Q 1588 -91 1214 -16 
Q 841 59 441 206 
L 441 856 
Q 825 641 1194 531 
Q 1563 422 1919 422 
Q 2459 422 2753 634 
Q 3047 847 3047 1241 
Q 3047 1584 2836 1778 
Q 2625 1972 2144 2069 
L 1759 2144 
Q 1053 2284 737 2584 
Q 422 2884 422 3419 
Q 422 4038 858 4394 
Q 1294 4750 2059 4750 
Q 2388 4750 2728 4690 
Q 3069 4631 3425 4513 
z
" transform="scale(0.015625)"/>
        <path id="DejaVuSans-72" d="M 2631 2963 
Q 2534 3019 2420 3045 
Q 2306 3072 2169 3072 
Q 1681 3072 1420 2755 
Q 1159 2438 1159 1844 
L 1159 0 
L 581 0 
L 581 3500 
L 1159 3500 
L 1159 2956 
Q 1341 3275 1631 3429 
Q 1922 3584 2338 3584 
Q 2397 3584 2469 3576 
Q 2541 3569 2628 3553 
L 2631 2963 
z
" transform="scale(0.015625)"/>
        <path id="DejaVuSans-74" d="M 1172 4494 
L 1172 3500 
L 2356 3500 
L 2356 3053 
L 1172 3053 
L 1172 1153 
Q 1172 725 1289 603 
Q 1406 481 1766 481 
L 2356 481 
L 2356 0 
L 1766 0 
Q 1100 0 847 248 
Q 594 497 594 1153 
L 594 3053 
L 172 3053 
L 172 3500 
L 594 3500 
L 594 4494 
L 1172 4494 
z
" transform="scale(0.015625)"/>
       </defs>
       <use xlink:href="#DejaVuSans-53"/>
       <use xlink:href="#DejaVuSans-68" transform="translate(63.476562 0)"/>
       <use xlink:href="#DejaVuSans-61" transform="translate(126.855469 0)"/>
       <use xlink:href="#DejaVuSans-72" transform="translate(188.134766 0)"/>
       <use xlink:href="#DejaVuSans-65" transform="translate(226.998047 0)"/>
       <use xlink:href="#DejaVuSans-74" transform="translate(288.521484 0)"/>
       <use xlink:href="#DejaVuSans-65" transform="translate(327.730469 0)"/>
       <use xlink:href="#DejaVuSans-61" transform="translate(389.253906 0)"/>
      </g>
     </g>
    </g>
    <g id="xtick_3">
     <g id="line2d_3">
      <g>
       <use xlink:href="#m4718c214a6" x="311.23" y="307.550464" style="stroke: #000000; stroke-width: 0.8"/>
      </g>
     </g>
     <g id="text_3">
      <!-- Bear Cup -->
      <g transform="translate(292.647802 344.180904) rotate(-30) scale(0.1 -0.1)">
       <defs>
        <path id="DejaVuSans-42" d="M 1259 2228 
L 1259 519 
L 2272 519 
Q 2781 519 3026 730 
Q 3272 941 3272 1375 
Q 3272 1813 3026 2020 
Q 2781 2228 2272 2228 
L 1259 2228 
z
M 1259 4147 
L 1259 2741 
L 2194 2741 
Q 2656 2741 2882 2914 
Q 3109 3088 3109 3444 
Q 3109 3797 2882 3972 
Q 2656 4147 2194 4147 
L 1259 4147 
z
M 628 4666 
L 2241 4666 
Q 2963 4666 3353 4366 
Q 3744 4066 3744 3513 
Q 3744 3084 3544 2831 
Q 3344 2578 2956 2516 
Q 3422 2416 3680 2098 
Q 3938 1781 3938 1306 
Q 3938 681 3513 340 
Q 3088 0 2303 0 
L 628 0 
L 628 4666 
z
" transform="scale(0.015625)"/>
        <path id="DejaVuSans-75" d="M 544 1381 
L 544 3500 
L 1119 3500 
L 1119 1403 
Q 1119 906 1312 657 
Q 1506 409 1894 409 
Q 2359 409 2629 706 
Q 2900 1003 2900 1516 
L 2900 3500 
L 3475 3500 
L 3475 0 
L 2900 0 
L 2900 538 
Q 2691 219 2414 64 
Q 2138 -91 1772 -91 
Q 1169 -91 856 284 
Q 544 659 544 1381 
z
M 1991 3584 
L 1991 3584 
z
" transform="scale(0.015625)"/>
        <path id="DejaVuSans-70" d="M 1159 525 
L 1159 -1331 
L 581 -1331 
L 581 3500 
L 1159 3500 
L 1159 2969 
Q 1341 3281 1617 3432 
Q 1894 3584 2278 3584 
Q 2916 3584 3314 3078 
Q 3713 2572 3713 1747 
Q 3713 922 3314 415 
Q 2916 -91 2278 -91 
Q 1894 -91 1617 61 
Q 1341 213 1159 525 
z
M 3116 1747 
Q 3116 2381 2855 2742 
Q 2594 3103 2138 3103 
Q 1681 3103 1420 2742 
Q 1159 2381 1159 1747 
Q 1159 1113 1420 752 
Q 1681 391 2138 391 
Q 2594 391 2855 752 
Q 3116 1113 3116 1747 
z
" transform="scale(0.015625)"/>
       </defs>
       <use xlink:href="#DejaVuSans-42"/>
       <use xlink:href="#DejaVuSans-65" transform="translate(68.603516 0)"/>
       <use xlink:href="#DejaVuSans-61" transform="translate(130.126953 0)"/>
       <use xlink:href="#DejaVuSans-72" transform="translate(191.40625 0)"/>
       <use xlink:href="#DejaVuSans-20" transform="translate(232.519531 0)"/>
       <use xlink:href="#DejaVuSans-43" transform="translate(264.306641 0)"/>
       <use xlink:href="#DejaVuSans-75" transform="translate(334.130859 0)"/>
       <use xlink:href="#DejaVuSans-70" transform="translate(397.509766 0)"/>
      </g>
     </g>
    </g>
    <g id="xtick_4">
     <g id="line2d_4">
      <g>
       <use xlink:href="#m4718c214a6" x="412.818" y="307.550464" style="stroke: #000000; stroke-width: 0.8"/>
      </g>
     </g>
     <g id="text_4">
      <!-- Wushiland -->
      <g transform="translate(391.776425 347.020748) rotate(-30) scale(0.1 -0.1)">
       <defs>
        <path id="DejaVuSans-57" d="M 213 4666 
L 850 4666 
L 1831 722 
L 2809 4666 
L 3519 4666 
L 4500 722 
L 5478 4666 
L 6119 4666 
L 4947 0 
L 4153 0 
L 3169 4050 
L 2175 0 
L 1381 0 
L 213 4666 
z
" transform="scale(0.015625)"/>
        <path id="DejaVuSans-73" d="M 2834 3397 
L 2834 2853 
Q 2591 2978 2328 3040 
Q 2066 3103 1784 3103 
Q 1356 3103 1142 2972 
Q 928 2841 928 2578 
Q 928 2378 1081 2264 
Q 1234 2150 1697 2047 
L 1894 2003 
Q 2506 1872 2764 1633 
Q 3022 1394 3022 966 
Q 3022 478 2636 193 
Q 2250 -91 1575 -91 
Q 1294 -91 989 -36 
Q 684 19 347 128 
L 347 722 
Q 666 556 975 473 
Q 1284 391 1588 391 
Q 1994 391 2212 530 
Q 2431 669 2431 922 
Q 2431 1156 2273 1281 
Q 2116 1406 1581 1522 
L 1381 1569 
Q 847 1681 609 1914 
Q 372 2147 372 2553 
Q 372 3047 722 3315 
Q 1072 3584 1716 3584 
Q 2034 3584 2315 3537 
Q 2597 3491 2834 3397 
z
" transform="scale(0.015625)"/>
        <path id="DejaVuSans-69" d="M 603 3500 
L 1178 3500 
L 1178 0 
L 603 0 
L 603 3500 
z
M 603 4863 
L 1178 4863 
L 1178 4134 
L 603 4134 
L 603 4863 
z
" transform="scale(0.015625)"/>
        <path id="DejaVuSans-6c" d="M 603 4863 
L 1178 4863 
L 1178 0 
L 603 0 
L 603 4863 
z
" transform="scale(0.015625)"/>
        <path id="DejaVuSans-64" d="M 2906 2969 
L 2906 4863 
L 3481 4863 
L 3481 0 
L 2906 0 
L 2906 525 
Q 2725 213 2448 61 
Q 2172 -91 1784 -91 
Q 1150 -91 751 415 
Q 353 922 353 1747 
Q 353 2572 751 3078 
Q 1150 3584 1784 3584 
Q 2172 3584 2448 3432 
Q 2725 3281 2906 2969 
z
M 947 1747 
Q 947 1113 1208 752 
Q 1469 391 1925 391 
Q 2381 391 2643 752 
Q 2906 1113 2906 1747 
Q 2906 2381 2643 2742 
Q 2381 3103 1925 3103 
Q 1469 3103 1208 2742 
Q 947 2381 947 1747 
z
" transform="scale(0.015625)"/>
       </defs>
       <use xlink:href="#DejaVuSans-57"/>
       <use xlink:href="#DejaVuSans-75" transform="translate(95.251953 0)"/>
       <use xlink:href="#DejaVuSans-73" transform="translate(158.630859 0)"/>
       <use xlink:href="#DejaVuSans-68" transform="translate(210.730469 0)"/>
       <use xlink:href="#DejaVuSans-69" transform="translate(274.109375 0)"/>
       <use xlink:href="#DejaVuSans-6c" transform="translate(301.892578 0)"/>
       <use xlink:href="#DejaVuSans-61" transform="translate(329.675781 0)"/>
       <use xlink:href="#DejaVuSans-6e" transform="translate(390.955078 0)"/>
       <use xlink:href="#DejaVuSans-64" transform="translate(454.333984 0)"/>
      </g>
     </g>
    </g>
    <g id="xtick_5">
     <g id="line2d_5">
      <g>
       <use xlink:href="#m4718c214a6" x="514.406" y="307.550464" style="stroke: #000000; stroke-width: 0.8"/>
      </g>
     </g>
     <g id="text_5">
      <!-- Sunright -->
      <g transform="translate(497.374529 342.390279) rotate(-30) scale(0.1 -0.1)">
       <use xlink:href="#DejaVuSans-53"/>
       <use xlink:href="#DejaVuSans-75" transform="translate(63.476562 0)"/>
       <use xlink:href="#DejaVuSans-6e" transform="translate(126.855469 0)"/>
       <use xlink:href="#DejaVuSans-72" transform="translate(190.234375 0)"/>
       <use xlink:href="#DejaVuSans-69" transform="translate(231.347656 0)"/>
       <use xlink:href="#DejaVuSans-67" transform="translate(259.130859 0)"/>
       <use xlink:href="#DejaVuSans-68" transform="translate(322.607422 0)"/>
       <use xlink:href="#DejaVuSans-74" transform="translate(385.986328 0)"/>
      </g>
     </g>
    </g>
   </g>
   <g id="matplotlib.axis_2">
    <g id="ytick_1">
     <g id="line2d_6">
      <defs>
       <path id="m509b89060e" d="M 0 0 
L -3.5 0 
" style="stroke: #000000; stroke-width: 0.8"/>
      </defs>
      <g>
       <use xlink:href="#m509b89060e" x="57.26" y="278.725174" style="stroke: #000000; stroke-width: 0.8"/>
      </g>
     </g>
     <g id="text_6">
      <!-- 250 -->
      <g transform="translate(31.1725 282.524393) scale(0.1 -0.1)">
       <defs>
        <path id="DejaVuSans-32" d="M 1228 531 
L 3431 531 
L 3431 0 
L 469 0 
L 469 531 
Q 828 903 1448 1529 
Q 2069 2156 2228 2338 
Q 2531 2678 2651 2914 
Q 2772 3150 2772 3378 
Q 2772 3750 2511 3984 
Q 2250 4219 1831 4219 
Q 1534 4219 1204 4116 
Q 875 4013 500 3803 
L 500 4441 
Q 881 4594 1212 4672 
Q 1544 4750 1819 4750 
Q 2544 4750 2975 4387 
Q 3406 4025 3406 3419 
Q 3406 3131 3298 2873 
Q 3191 2616 2906 2266 
Q 2828 2175 2409 1742 
Q 1991 1309 1228 531 
z
" transform="scale(0.015625)"/>
        <path id="DejaVuSans-35" d="M 691 4666 
L 3169 4666 
L 3169 4134 
L 1269 4134 
L 1269 2991 
Q 1406 3038 1543 3061 
Q 1681 3084 1819 3084 
Q 2600 3084 3056 2656 
Q 3513 2228 3513 1497 
Q 3513 744 3044 326 
Q 2575 -91 1722 -91 
Q 1428 -91 1123 -41 
Q 819 9 494 109 
L 494 744 
Q 775 591 1075 516 
Q 1375 441 1709 441 
Q 2250 441 2565 725 
Q 2881 1009 2881 1497 
Q 2881 1984 2565 2268 
Q 2250 2553 1709 2553 
Q 1456 2553 1204 2497 
Q 953 2441 691 2322 
L 691 4666 
z
" transform="scale(0.015625)"/>
        <path id="DejaVuSans-30" d="M 2034 4250 
Q 1547 4250 1301 3770 
Q 1056 3291 1056 2328 
Q 1056 1369 1301 889 
Q 1547 409 2034 409 
Q 2525 409 2770 889 
Q 3016 1369 3016 2328 
Q 3016 3291 2770 3770 
Q 2525 4250 2034 4250 
z
M 2034 4750 
Q 2819 4750 3233 4129 
Q 3647 3509 3647 2328 
Q 3647 1150 3233 529 
Q 2819 -91 2034 -91 
Q 1250 -91 836 529 
Q 422 1150 422 2328 
Q 422 3509 836 4129 
Q 1250 4750 2034 4750 
z
" transform="scale(0.015625)"/>
       </defs>
       <use xlink:href="#DejaVuSans-32"/>
       <use xlink:href="#DejaVuSans-35" transform="translate(63.623047 0)"/>
       <use xlink:href="#DejaVuSans-30" transform="translate(127.246094 0)"/>
      </g>
     </g>
    </g>
    <g id="ytick_2">
     <g id="line2d_7">
      <g>
       <use xlink:href="#m509b89060e" x="57.26" y="237.935277" style="stroke: #000000; stroke-width: 0.8"/>
      </g>
     </g>
     <g id="text_7">
      <!-- 500 -->
      <g transform="translate(31.1725 241.734496) scale(0.1 -0.1)">
       <use xlink:href="#DejaVuSans-35"/>
       <use xlink:href="#DejaVuSans-30" transform="translate(63.623047 0)"/>
       <use xlink:href="#DejaVuSans-30" transform="translate(127.246094 0)"/>
      </g>
     </g>
    </g>
    <g id="ytick_3">
     <g id="line2d_8">
      <g>
       <use xlink:href="#m509b89060e" x="57.26" y="197.145381" style="stroke: #000000; stroke-width: 0.8"/>
      </g>
     </g>
     <g id="text_8">
      <!-- 750 -->
      <g transform="translate(31.1725 200.944599) scale(0.1 -0.1)">
       <defs>
        <path id="DejaVuSans-37" d="M 525 4666 
L 3525 4666 
L 3525 4397 
L 1831 0 
L 1172 0 
L 2766 4134 
L 525 4134 
L 525 4666 
z
" transform="scale(0.015625)"/>
       </defs>
       <use xlink:href="#DejaVuSans-37"/>
       <use xlink:href="#DejaVuSans-35" transform="translate(63.623047 0)"/>
       <use xlink:href="#DejaVuSans-30" transform="translate(127.246094 0)"/>
      </g>
     </g>
    </g>
    <g id="ytick_4">
     <g id="line2d_9">
      <g>
       <use xlink:href="#m509b89060e" x="57.26" y="156.355484" style="stroke: #000000; stroke-width: 0.8"/>
      </g>
     </g>
     <g id="text_9">
      <!-- 1000 -->
      <g transform="translate(24.81 160.154702) scale(0.1 -0.1)">
       <defs>
        <path id="DejaVuSans-31" d="M 794 531 
L 1825 531 
L 1825 4091 
L 703 3866 
L 703 4441 
L 1819 4666 
L 2450 4666 
L 2450 531 
L 3481 531 
L 3481 0 
L 794 0 
L 794 531 
z
" transform="scale(0.015625)"/>
       </defs>
       <use xlink:href="#DejaVuSans-31"/>
       <use xlink:href="#DejaVuSans-30" transform="translate(63.623047 0)"/>
       <use xlink:href="#DejaVuSans-30" transform="translate(127.246094 0)"/>
       <use xlink:href="#DejaVuSans-30" transform="translate(190.869141 0)"/>
      </g>
     </g>
    </g>
    <g id="ytick_5">
     <g id="line2d_10">
      <g>
       <use xlink:href="#m509b89060e" x="57.26" y="115.565587" style="stroke: #000000; stroke-width: 0.8"/>
      </g>
     </g>
     <g id="text_10">
      <!-- 1250 -->
      <g transform="translate(24.81 119.364805) scale(0.1 -0.1)">
       <use xlink:href="#DejaVuSans-31"/>
       <use xlink:href="#DejaVuSans-32" transform="translate(63.623047 0)"/>
       <use xlink:href="#DejaVuSans-35" transform="translate(127.246094 0)"/>
       <use xlink:href="#DejaVuSans-30" transform="translate(190.869141 0)"/>
      </g>
     </g>
    </g>
    <g id="ytick_6">
     <g id="line2d_11">
      <g>
       <use xlink:href="#m509b89060e" x="57.26" y="74.77569" style="stroke: #000000; stroke-width: 0.8"/>
      </g>
     </g>
     <g id="text_11">
      <!-- 1500 -->
      <g transform="translate(24.81 78.574908) scale(0.1 -0.1)">
       <use xlink:href="#DejaVuSans-31"/>
       <use xlink:href="#DejaVuSans-35" transform="translate(63.623047 0)"/>
       <use xlink:href="#DejaVuSans-30" transform="translate(127.246094 0)"/>
       <use xlink:href="#DejaVuSans-30" transform="translate(190.869141 0)"/>
      </g>
     </g>
    </g>
    <g id="ytick_7">
     <g id="line2d_12">
      <g>
       <use xlink:href="#m509b89060e" x="57.26" y="33.985793" style="stroke: #000000; stroke-width: 0.8"/>
      </g>
     </g>
     <g id="text_12">
      <!-- 1750 -->
      <g transform="translate(24.81 37.785011) scale(0.1 -0.1)">
       <use xlink:href="#DejaVuSans-31"/>
       <use xlink:href="#DejaVuSans-37" transform="translate(63.623047 0)"/>
       <use xlink:href="#DejaVuSans-35" transform="translate(127.246094 0)"/>
       <use xlink:href="#DejaVuSans-30" transform="translate(190.869141 0)"/>
      </g>
     </g>
    </g>
    <g id="text_13">
     <!-- pH_raw -->
     <g transform="translate(18.452188 177.818201) rotate(-90) scale(0.1 -0.1)">
      <defs>
       <path id="DejaVuSans-48" d="M 628 4666 
L 1259 4666 
L 1259 2753 
L 3553 2753 
L 3553 4666 
L 4184 4666 
L 4184 0 
L 3553 0 
L 3553 2222 
L 1259 2222 
L 1259 0 
L 628 0 
L 628 4666 
z
" transform="scale(0.015625)"/>
       <path id="DejaVuSans-5f" d="M 3263 -1063 
L 3263 -1509 
L -63 -1509 
L -63 -1063 
L 3263 -1063 
z
" transform="scale(0.015625)"/>
       <path id="DejaVuSans-77" d="M 269 3500 
L 844 3500 
L 1563 769 
L 2278 3500 
L 2956 3500 
L 3675 769 
L 4391 3500 
L 4966 3500 
L 4050 0 
L 3372 0 
L 2619 2869 
L 1863 0 
L 1184 0 
L 269 3500 
z
" transform="scale(0.015625)"/>
      </defs>
      <use xlink:href="#DejaVuSans-70"/>
      <use xlink:href="#DejaVuSans-48" transform="translate(63.476562 0)"/>
      <use xlink:href="#DejaVuSans-5f" transform="translate(138.671875 0)"/>
      <use xlink:href="#DejaVuSans-72" transform="translate(188.671875 0)"/>
      <use xlink:href="#DejaVuSans-61" transform="translate(229.785156 0)"/>
      <use xlink:href="#DejaVuSans-77" transform="translate(291.064453 0)"/>
     </g>
    </g>
   </g>
   <g id="line2d_13">
    <path d="M 108.054 233.203649 
L 108.054 217.703489 
" clip-path="url(#p8fa53534ea)" style="fill: none; stroke: #303030; stroke-width: 1.5; stroke-linecap: square"/>
   </g>
   <g id="line2d_14">
    <path d="M 108.054 227.656223 
L 108.054 223.006175 
" clip-path="url(#p8fa53534ea)" style="fill: none; stroke: #303030; stroke-width: 4.5; stroke-linecap: square"/>
   </g>
   <g id="line2d_15">
    <path d="M 209.642 58.78605 
L 209.642 45.243804 
" clip-path="url(#p8fa53534ea)" style="fill: none; stroke: #303030; stroke-width: 1.5; stroke-linecap: square"/>
   </g>
   <g id="line2d_16">
    <path d="M 209.642 56.501816 
L 209.642 49.200424 
" clip-path="url(#p8fa53534ea)" style="fill: none; stroke: #303030; stroke-width: 4.5; stroke-linecap: square"/>
   </g>
   <g id="line2d_17">
    <path d="M 311.23 287.046313 
L 311.23 262.898694 
" clip-path="url(#p8fa53534ea)" style="fill: none; stroke: #303030; stroke-width: 1.5; stroke-linecap: square"/>
   </g>
   <g id="line2d_18">
    <path d="M 311.23 282.437055 
L 311.23 273.136959 
" clip-path="url(#p8fa53534ea)" style="fill: none; stroke: #303030; stroke-width: 4.5; stroke-linecap: square"/>
   </g>
   <g id="line2d_19">
    <path d="M 412.818 44.428006 
L 412.818 28.601526 
" clip-path="url(#p8fa53534ea)" style="fill: none; stroke: #303030; stroke-width: 1.5; stroke-linecap: square"/>
   </g>
   <g id="line2d_20">
    <path d="M 412.818 40.185857 
L 412.818 35.413439 
" clip-path="url(#p8fa53534ea)" style="fill: none; stroke: #303030; stroke-width: 4.5; stroke-linecap: square"/>
   </g>
   <g id="line2d_21">
    <path d="M 514.406 61.070284 
L 514.406 46.8754 
" clip-path="url(#p8fa53534ea)" style="fill: none; stroke: #303030; stroke-width: 1.5; stroke-linecap: square"/>
   </g>
   <g id="line2d_22">
    <path d="M 514.406 58.459731 
L 514.406 50.87281 
" clip-path="url(#p8fa53534ea)" style="fill: none; stroke: #303030; stroke-width: 4.5; stroke-linecap: square"/>
   </g>
   <g id="patch_3">
    <path d="M 57.26 307.550464 
L 57.26 10.8 
" style="fill: none; stroke: #000000; stroke-width: 0.8; stroke-linejoin: miter; stroke-linecap: square"/>
   </g>
   <g id="patch_4">
    <path d="M 565.2 307.550464 
L 565.2 10.8 
" style="fill: none; stroke: #000000; stroke-width: 0.8; stroke-linejoin: miter; stroke-linecap: square"/>
   </g>
   <g id="patch_5">
    <path d="M 57.26 307.550464 
L 565.2 307.550464 
" style="fill: none; stroke: #000000; stroke-width: 0.8; stroke-linejoin: miter; stroke-linecap: square"/>
   </g>
   <g id="patch_6">
    <path d="M 57.26 10.8 
L 565.2 10.8 
" style="fill: none; stroke: #000000; stroke-width: 0.8; stroke-linejoin: miter; stroke-linecap: square"/>
   </g>
   <g id="PathCollection_1">
    <defs>
     <path id="mfa64aec0a2" d="M 0 1.5 
C 0.397805 1.5 0.77937 1.341951 1.06066 1.06066 
C 1.341951 0.77937 1.5 0.397805 1.5 0 
C 1.5 -0.397805 1.341951 -0.77937 1.06066 -1.06066 
C 0.77937 -1.341951 0.397805 -1.5 0 -1.5 
C -0.397805 -1.5 -0.77937 -1.341951 -1.06066 -1.06066 
C -1.341951 -0.77937 -1.5 -0.397805 -1.5 0 
C -1.5 0.397805 -1.341951 0.77937 -1.06066 1.06066 
C -0.77937 1.341951 -0.397805 1.5 0 1.5 
z
" style="stroke: #303030"/>
    </defs>
    <g clip-path="url(#p8fa53534ea)">
     <use xlink:href="#mfa64aec0a2" x="108.054" y="224.719351" style="fill: #ffffff; stroke: #303030"/>
    </g>
   </g>
   <g id="PathCollection_2">
    <g clip-path="url(#p8fa53534ea)">
     <use xlink:href="#mfa64aec0a2" x="209.642" y="50.057012" style="fill: #ffffff; stroke: #303030"/>
    </g>
   </g>
   <g id="PathCollection_3">
    <g clip-path="url(#p8fa53534ea)">
     <use xlink:href="#mfa64aec0a2" x="311.23" y="277.746217" style="fill: #ffffff; stroke: #303030"/>
    </g>
   </g>
   <g id="PathCollection_4">
    <g clip-path="url(#p8fa53534ea)">
     <use xlink:href="#mfa64aec0a2" x="412.818" y="37.983203" style="fill: #ffffff; stroke: #303030"/>
    </g>
   </g>
   <g id="PathCollection_5">
    <g clip-path="url(#p8fa53534ea)">
     <use xlink:href="#mfa64aec0a2" x="514.406" y="53.320204" style="fill: #ffffff; stroke: #303030"/>
    </g>
   </g>
  </g>
 </g>
 <defs>
  <clipPath id="p8fa53534ea">
   <rect x="57.26" y="10.8" width="507.94" height="296.750464"/>
  </clipPath>
 </defs>
</svg>
