<?xml version="1.0" encoding="utf-8" standalone="no"?>
<!DOCTYPE svg PUBLIC "-//W3C//DTD SVG 1.1//EN"
  "http://www.w3.org/Graphics/SVG/1.1/DTD/svg11.dtd">
<svg xmlns:xlink="http://www.w3.org/1999/xlink" width="576pt" height="360pt" viewBox="0 0 576 360" xmlns="http://www.w3.org/2000/svg" version="1.1">
 <metadata>
  <rdf:RDF xmlns:dc="http://purl.org/dc/elements/1.1/" xmlns:cc="http://creativecommons.org/ns#" xmlns:rdf="http://www.w3.org/1999/02/22-rdf-syntax-ns#">
   <cc:Work>
    <dc:type rdf:resource="http://purl.org/dc/dcmitype/StillImage"/>
    <dc:date>2026-01-20T07:59:42.784301</dc:date>
    <dc:format>image/svg+xml</dc:format>
    <dc:creator>
     <cc:Agent>
      <dc:title>Matplotlib v3.10.0, https://matplotlib.org/</dc:title>
     </cc:Agent>
    </dc:creator>
   </cc:Work>
  </rdf:RDF>
 </metadata>
 <defs>
  <style type="text/css">*{stroke-linejoin: round; stroke-linecap: butt}</style>
 </defs>
 <g id="figure_1">
  <g id="patch_1">
   <path d="M 0 360 
L 576 360 
L 576 0 
L 0 0 
z
" style="fill: #ffffff"/>
  </g>
  <g id="axes_1">
   <g id="patch_2">
    <path d="M 57.26 307.550464 
L 565.2 307.550464 
L 565.2 10.8 
L 57.26 10.8 
z
" style="fill: #ffffff"/>
   </g>
   <g id="FillBetweenPolyCollection_1">
    <defs>
     <path id="m1b149b0ee1" d="M 108.896043 -255.757626 
L 107.211957 -255.757626 
L 106.991735 -255.935075 
L 106.727502 -256.112524 
L 106.41422 -256.289973 
L 106.0472 -256.467422 
L 105.622374 -256.644871 
L 105.13656 -256.822319 
L 104.587749 -256.999768 
L 103.975364 -257.177217 
L 103.300496 -257.354666 
L 102.566074 -257.532115 
L 101.776973 -257.709564 
L 100.940026 -257.887013 
L 100.063933 -258.064462 
L 99.159067 -258.241911 
L 98.237172 -258.41936 
L 97.310963 -258.596809 
L 96.393646 -258.774258 
L 95.498381 -258.951707 
L 94.637726 -259.129156 
L 93.823073 -259.306605 
L 93.064149 -259.484054 
L 92.368569 -259.661503 
L 91.741517 -259.838952 
L 91.185535 -260.016401 
L 90.700472 -260.19385 
L 90.283562 -260.371299 
L 89.929651 -260.548748 
L 89.631546 -260.726197 
L 89.380451 -260.903646 
L 89.166483 -261.081095 
L 88.9792 -261.258544 
L 88.808133 -261.435993 
L 88.643265 -261.613442 
L 88.475443 -261.790891 
L 88.296687 -261.968339 
L 88.100381 -262.145788 
L 87.881353 -262.323237 
L 87.635831 -262.500686 
L 87.361304 -262.678135 
L 87.056291 -262.855584 
L 86.720071 -263.033033 
L 86.352377 -263.210482 
L 85.953112 -263.387931 
L 85.522106 -263.56538 
L 85.058944 -263.742829 
L 84.562899 -263.920278 
L 84.032965 -264.097727 
L 83.468018 -264.275176 
L 82.867086 -264.452625 
L 82.229706 -264.630074 
L 81.556365 -264.807523 
L 80.848955 -264.984972 
L 80.111241 -265.162421 
L 79.349251 -265.33987 
L 78.571588 -265.517319 
L 77.789589 -265.694768 
L 77.017324 -265.872217 
L 76.271402 -266.049666 
L 75.570579 -266.227115 
L 74.935189 -266.404564 
L 74.386416 -266.582013 
L 73.945444 -266.759462 
L 73.632539 -266.93691 
L 73.466131 -267.114359 
L 73.461927 -267.291808 
L 73.632148 -267.469257 
L 73.984903 -267.646706 
L 74.523767 -267.824155 
L 75.247564 -268.001604 
L 76.150382 -268.179053 
L 77.221795 -268.356502 
L 78.447289 -268.533951 
L 79.808842 -268.7114 
L 81.285633 -268.888849 
L 82.854826 -269.066298 
L 84.492391 -269.243747 
L 86.173909 -269.421196 
L 87.875337 -269.598645 
L 89.573686 -269.776094 
L 91.247607 -269.953543 
L 92.877855 -270.130992 
L 94.447641 -270.308441 
L 95.942852 -270.48589 
L 97.352166 -270.663339 
L 98.667059 -270.840788 
L 99.881718 -271.018237 
L 100.99289 -271.195686 
L 101.999658 -271.373135 
L 102.903178 -271.550584 
L 103.706394 -271.728033 
L 104.413724 -271.905481 
L 105.030753 -272.08293 
L 105.563932 -272.260379 
L 106.020287 -272.437828 
L 106.407161 -272.615277 
L 106.731983 -272.792726 
L 107.002063 -272.970175 
L 107.22443 -273.147624 
L 107.405709 -273.325073 
L 108.702291 -273.325073 
L 108.702291 -273.325073 
L 108.88357 -273.147624 
L 109.105937 -272.970175 
L 109.376017 -272.792726 
L 109.700839 -272.615277 
L 110.087713 -272.437828 
L 110.544068 -272.260379 
L 111.077247 -272.08293 
L 111.694276 -271.905481 
L 112.401606 -271.728033 
L 113.204822 -271.550584 
L 114.108342 -271.373135 
L 115.11511 -271.195686 
L 116.226282 -271.018237 
L 117.440941 -270.840788 
L 118.755834 -270.663339 
L 120.165148 -270.48589 
L 121.660359 -270.308441 
L 123.230145 -270.130992 
L 124.860393 -269.953543 
L 126.534314 -269.776094 
L 128.232663 -269.598645 
L 129.934091 -269.421196 
L 131.615609 -269.243747 
L 133.253174 -269.066298 
L 134.822367 -268.888849 
L 136.299158 -268.7114 
L 137.660711 -268.533951 
L 138.886205 -268.356502 
L 139.957618 -268.179053 
L 140.860436 -268.001604 
L 141.584233 -267.824155 
L 142.123097 -267.646706 
L 142.475852 -267.469257 
L 142.646073 -267.291808 
L 142.641869 -267.114359 
L 142.475461 -266.93691 
L 142.162556 -266.759462 
L 141.721584 -266.582013 
L 141.172811 -266.404564 
L 140.537421 -266.227115 
L 139.836598 -266.049666 
L 139.090676 -265.872217 
L 138.318411 -265.694768 
L 137.536412 -265.517319 
L 136.758749 -265.33987 
L 135.996759 -265.162421 
L 135.259045 -264.984972 
L 134.551635 -264.807523 
L 133.878294 -264.630074 
L 133.240914 -264.452625 
L 132.639982 -264.275176 
L 132.075035 -264.097727 
L 131.545101 -263.920278 
L 131.049056 -263.742829 
L 130.585894 -263.56538 
L 130.154888 -263.387931 
L 129.755623 -263.210482 
L 129.387929 -263.033033 
L 129.051709 -262.855584 
L 128.746696 -262.678135 
L 128.472169 -262.500686 
L 128.226647 -262.323237 
L 128.007619 -262.145788 
L 127.811313 -261.968339 
L 127.632557 -261.790891 
L 127.464735 -261.613442 
L 127.299867 -261.435993 
L 127.1288 -261.258544 
L 126.941517 -261.081095 
L 126.727549 -260.903646 
L 126.476454 -260.726197 
L 126.178349 -260.548748 
L 125.824438 -260.371299 
L 125.407528 -260.19385 
L 124.922465 -260.016401 
L 124.366483 -259.838952 
L 123.739431 -259.661503 
L 123.043851 -259.484054 
L 122.284927 -259.306605 
L 121.470274 -259.129156 
L 120.609619 -258.951707 
L 119.714354 -258.774258 
L 118.797037 -258.596809 
L 117.870828 -258.41936 
L 116.948933 -258.241911 
L 116.044067 -258.064462 
L 115.167974 -257.887013 
L 114.331027 -257.709564 
L 113.541926 -257.532115 
L 112.807504 -257.354666 
L 112.132636 -257.177217 
L 111.520251 -256.999768 
L 110.97144 -256.822319 
L 110.485626 -256.644871 
L 110.0608 -256.467422 
L 109.69378 -256.289973 
L 109.380498 -256.112524 
L 109.116265 -255.935075 
L 108.896043 -255.757626 
z
" style="stroke: #303030; stroke-width: 1.5"/>
    </defs>
    <g clip-path="url(#p758ab26049)">
     <use xlink:href="#m1b149b0ee1" x="0" y="360" style="fill: #176d9c; stroke: #303030; stroke-width: 1.5"/>
    </g>
   </g>
   <g id="FillBetweenPolyCollection_2">
    <defs>
     <path id="mfeebd502b2" d="M 210.277562 -300.984891 
L 209.006438 -300.984891 
L 208.790772 -301.198357 
L 208.517058 -301.411824 
L 208.174719 -301.62529 
L 207.752671 -301.838756 
L 207.239672 -302.052222 
L 206.624723 -302.265688 
L 205.897507 -302.479154 
L 205.048858 -302.69262 
L 204.071198 -302.906087 
L 202.958949 -303.119553 
L 201.708879 -303.333019 
L 200.320375 -303.546485 
L 198.795647 -303.759951 
L 197.139869 -303.973417 
L 195.36128 -304.186884 
L 193.471271 -304.40035 
L 191.484469 -304.613816 
L 189.418843 -304.827282 
L 187.295821 -305.040748 
L 185.140385 -305.254214 
L 182.981104 -305.467681 
L 180.850029 -305.681147 
L 178.782377 -305.894613 
L 176.815927 -306.108079 
L 174.990078 -306.321545 
L 173.344536 -306.535011 
L 171.917658 -306.748477 
L 170.744537 -306.961944 
L 169.854937 -307.17541 
L 169.271271 -307.388876 
L 169.0068 -307.602342 
L 169.064273 -307.815808 
L 169.435172 -308.029274 
L 170.099709 -308.242741 
L 171.027636 -308.456207 
L 172.179839 -308.669673 
L 173.510639 -308.883139 
L 174.970596 -309.096605 
L 176.509589 -309.310071 
L 178.079891 -309.523537 
L 179.638975 -309.737004 
L 181.151787 -309.95047 
L 182.592303 -310.163936 
L 183.944255 -310.377402 
L 185.201 -310.590868 
L 186.364589 -310.804334 
L 187.444188 -311.017801 
L 188.454037 -311.231267 
L 189.411189 -311.444733 
L 190.333267 -311.658199 
L 191.236444 -311.871665 
L 192.133844 -312.085131 
L 193.034449 -312.298598 
L 193.942589 -312.512064 
L 194.857973 -312.72553 
L 195.776215 -312.938996 
L 196.689708 -313.152462 
L 197.588739 -313.365928 
L 198.462672 -313.579394 
L 199.30107 -313.792861 
L 200.094657 -314.006327 
L 200.836019 -314.219793 
L 201.520022 -314.433259 
L 202.143937 -314.646725 
L 202.707304 -314.860191 
L 203.211595 -315.073658 
L 203.659751 -315.287124 
L 204.055668 -315.50059 
L 204.403714 -315.714056 
L 204.708333 -315.927522 
L 204.973788 -316.140988 
L 205.204044 -316.354454 
L 205.402797 -316.567921 
L 205.573608 -316.781387 
L 205.720102 -316.994853 
L 205.846163 -317.208319 
L 205.956091 -317.421785 
L 206.054659 -317.635251 
L 206.147045 -317.848718 
L 206.238649 -318.062184 
L 206.334797 -318.27565 
L 206.440382 -318.489116 
L 206.559478 -318.702582 
L 206.695008 -318.916048 
L 206.848478 -319.129515 
L 207.019859 -319.342981 
L 207.207591 -319.556447 
L 207.408749 -319.769913 
L 207.61932 -319.983379 
L 207.834572 -320.196845 
L 208.049459 -320.410311 
L 208.259035 -320.623778 
L 208.458805 -320.837244 
L 208.64501 -321.05071 
L 208.814809 -321.264176 
L 208.966364 -321.477642 
L 209.098822 -321.691108 
L 209.212231 -321.904575 
L 209.307383 -322.118041 
L 209.976617 -322.118041 
L 209.976617 -322.118041 
L 210.071769 -321.904575 
L 210.185178 -321.691108 
L 210.317636 -321.477642 
L 210.469191 -321.264176 
L 210.63899 -321.05071 
L 210.825195 -320.837244 
L 211.024965 -320.623778 
L 211.234541 -320.410311 
L 211.449428 -320.196845 
L 211.66468 -319.983379 
L 211.875251 -319.769913 
L 212.076409 -319.556447 
L 212.264141 -319.342981 
L 212.435522 -319.129515 
L 212.588992 -318.916048 
L 212.724522 -318.702582 
L 212.843618 -318.489116 
L 212.949203 -318.27565 
L 213.045351 -318.062184 
L 213.136955 -317.848718 
L 213.229341 -317.635251 
L 213.327909 -317.421785 
L 213.437837 -317.208319 
L 213.563898 -316.994853 
L 213.710392 -316.781387 
L 213.881203 -316.567921 
L 214.079956 -316.354454 
L 214.310212 -316.140988 
L 214.575667 -315.927522 
L 214.880286 -315.714056 
L 215.228332 -315.50059 
L 215.624249 -315.287124 
L 216.072405 -315.073658 
L 216.576696 -314.860191 
L 217.140063 -314.646725 
L 217.763978 -314.433259 
L 218.447981 -314.219793 
L 219.189343 -314.006327 
L 219.98293 -313.792861 
L 220.821328 -313.579394 
L 221.695261 -313.365928 
L 222.594292 -313.152462 
L 223.507785 -312.938996 
L 224.426027 -312.72553 
L 225.341411 -312.512064 
L 226.249551 -312.298598 
L 227.150156 -312.085131 
L 228.047556 -311.871665 
L 228.950733 -311.658199 
L 229.872811 -311.444733 
L 230.829963 -311.231267 
L 231.839812 -311.017801 
L 232.919411 -310.804334 
L 234.083 -310.590868 
L 235.339745 -310.377402 
L 236.691697 -310.163936 
L 238.132213 -309.95047 
L 239.645025 -309.737004 
L 241.204109 -309.523537 
L 242.774411 -309.310071 
L 244.313404 -309.096605 
L 245.773361 -308.883139 
L 247.104161 -308.669673 
L 248.256364 -308.456207 
L 249.184291 -308.242741 
L 249.848828 -308.029274 
L 250.219727 -307.815808 
L 250.2772 -307.602342 
L 250.012729 -307.388876 
L 249.429063 -307.17541 
L 248.539463 -306.961944 
L 247.366342 -306.748477 
L 245.939464 -306.535011 
L 244.293922 -306.321545 
L 242.468073 -306.108079 
L 240.501623 -305.894613 
L 238.433971 -305.681147 
L 236.302896 -305.467681 
L 234.143615 -305.254214 
L 231.988179 -305.040748 
L 229.865157 -304.827282 
L 227.799531 -304.613816 
L 225.812729 -304.40035 
L 223.92272 -304.186884 
L 222.144131 -303.973417 
L 220.488353 -303.759951 
L 218.963625 -303.546485 
L 217.575121 -303.333019 
L 216.325051 -303.119553 
L 215.212802 -302.906087 
L 214.235142 -302.69262 
L 213.386493 -302.479154 
L 212.659277 -302.265688 
L 212.044328 -302.052222 
L 211.531329 -301.838756 
L 211.109281 -301.62529 
L 210.766942 -301.411824 
L 210.493228 -301.198357 
L 210.277562 -300.984891 
z
" style="stroke: #303030; stroke-width: 1.5"/>
    </defs>
    <g clip-path="url(#p758ab26049)">
     <use xlink:href="#mfeebd502b2" x="0" y="360" style="fill: #c38820; stroke: #303030; stroke-width: 1.5"/>
    </g>
   </g>
   <g id="FillBetweenPolyCollection_3">
    <defs>
     <path id="md0bf1d5d88" d="M 311.806473 -65.938194 
L 310.653527 -65.938194 
L 310.489307 -66.257352 
L 310.288401 -66.57651 
L 310.045626 -66.895669 
L 309.755857 -67.214827 
L 309.414266 -67.533986 
L 309.016568 -67.853144 
L 308.559306 -68.172303 
L 308.04012 -68.491461 
L 307.458014 -68.81062 
L 306.813573 -69.129778 
L 306.109129 -69.448937 
L 305.348849 -69.768095 
L 304.538723 -70.087254 
L 303.686458 -70.406412 
L 302.801262 -70.72557 
L 301.893539 -71.044729 
L 300.97449 -71.363887 
L 300.055675 -71.683046 
L 299.14854 -72.002204 
L 298.263952 -72.321363 
L 297.411791 -72.640521 
L 296.600607 -72.95968 
L 295.837396 -73.278838 
L 295.127487 -73.597997 
L 294.474569 -73.917155 
L 293.880829 -74.236314 
L 293.347211 -74.555472 
L 292.873734 -74.87463 
L 292.45986 -75.193789 
L 292.10486 -75.512947 
L 291.808138 -75.832106 
L 291.569479 -76.151264 
L 291.389197 -76.470423 
L 291.268163 -76.789581 
L 291.20771 -77.10874 
L 291.209436 -77.427898 
L 291.274909 -77.747057 
L 291.405329 -78.066215 
L 291.601164 -78.385374 
L 291.861823 -78.704532 
L 292.18538 -79.023691 
L 292.568405 -79.342849 
L 293.005904 -79.662007 
L 293.49139 -79.981166 
L 294.017077 -80.300324 
L 294.574179 -80.619483 
L 295.153294 -80.938641 
L 295.74483 -81.2578 
L 296.339443 -81.576958 
L 296.928444 -81.896117 
L 297.504138 -82.215275 
L 298.060076 -82.534434 
L 298.591201 -82.853592 
L 299.093879 -83.172751 
L 299.565831 -83.491909 
L 300.005973 -83.811067 
L 300.414201 -84.130226 
L 300.791147 -84.449384 
L 301.137935 -84.768543 
L 301.455974 -85.087701 
L 301.7468 -85.40686 
L 302.011998 -85.726018 
L 302.253182 -86.045177 
L 302.472058 -86.364335 
L 302.670521 -86.683494 
L 302.850788 -87.002652 
L 303.015527 -87.321811 
L 303.167952 -87.640969 
L 303.311874 -87.960127 
L 303.451672 -88.279286 
L 303.592191 -88.598444 
L 303.738564 -88.917603 
L 303.895964 -89.236761 
L 304.069318 -89.55592 
L 304.262999 -89.875078 
L 304.480535 -90.194237 
L 304.724349 -90.513395 
L 304.995575 -90.832554 
L 305.293951 -91.151712 
L 305.617809 -91.470871 
L 305.964159 -91.790029 
L 306.328852 -92.109187 
L 306.70683 -92.428346 
L 307.092404 -92.747504 
L 307.479581 -93.066663 
L 307.862369 -93.385821 
L 308.235079 -93.70498 
L 308.59257 -94.024138 
L 308.930456 -94.343297 
L 309.245234 -94.662455 
L 309.534356 -94.981614 
L 309.796243 -95.300772 
L 310.030234 -95.619931 
L 310.236503 -95.939089 
L 310.415935 -96.258248 
L 310.569989 -96.577406 
L 310.700553 -96.896564 
L 310.809803 -97.215723 
L 310.900066 -97.534881 
L 311.559934 -97.534881 
L 311.559934 -97.534881 
L 311.650197 -97.215723 
L 311.759447 -96.896564 
L 311.890011 -96.577406 
L 312.044065 -96.258248 
L 312.223497 -95.939089 
L 312.429766 -95.619931 
L 312.663757 -95.300772 
L 312.925644 -94.981614 
L 313.214766 -94.662455 
L 313.529544 -94.343297 
L 313.86743 -94.024138 
L 314.224921 -93.70498 
L 314.597631 -93.385821 
L 314.980419 -93.066663 
L 315.367596 -92.747504 
L 315.75317 -92.428346 
L 316.131148 -92.109187 
L 316.495841 -91.790029 
L 316.842191 -91.470871 
L 317.166049 -91.151712 
L 317.464425 -90.832554 
L 317.735651 -90.513395 
L 317.979465 -90.194237 
L 318.197001 -89.875078 
L 318.390682 -89.55592 
L 318.564036 -89.236761 
L 318.721436 -88.917603 
L 318.867809 -88.598444 
L 319.008328 -88.279286 
L 319.148126 -87.960127 
L 319.292048 -87.640969 
L 319.444473 -87.321811 
L 319.609212 -87.002652 
L 319.789479 -86.683494 
L 319.987942 -86.364335 
L 320.206818 -86.045177 
L 320.448002 -85.726018 
L 320.7132 -85.40686 
L 321.004026 -85.087701 
L 321.322065 -84.768543 
L 321.668853 -84.449384 
L 322.045799 -84.130226 
L 322.454027 -83.811067 
L 322.894169 -83.491909 
L 323.366121 -83.172751 
L 323.868799 -82.853592 
L 324.399924 -82.534434 
L 324.955862 -82.215275 
L 325.531556 -81.896117 
L 326.120557 -81.576958 
L 326.71517 -81.2578 
L 327.306706 -80.938641 
L 327.885821 -80.619483 
L 328.442923 -80.300324 
L 328.96861 -79.981166 
L 329.454096 -79.662007 
L 329.891595 -79.342849 
L 330.27462 -79.023691 
L 330.598177 -78.704532 
L 330.858836 -78.385374 
L 331.054671 -78.066215 
L 331.185091 -77.747057 
L 331.250564 -77.427898 
L 331.25229 -77.10874 
L 331.191837 -76.789581 
L 331.070803 -76.470423 
L 330.890521 -76.151264 
L 330.651862 -75.832106 
L 330.35514 -75.512947 
L 330.00014 -75.193789 
L 329.586266 -74.87463 
L 329.112789 -74.555472 
L 328.579171 -74.236314 
L 327.985431 -73.917155 
L 327.332513 -73.597997 
L 326.622604 -73.278838 
L 325.859393 -72.95968 
L 325.048209 -72.640521 
L 324.196048 -72.321363 
L 323.31146 -72.002204 
L 322.404325 -71.683046 
L 321.48551 -71.363887 
L 320.566461 -71.044729 
L 319.658738 -70.72557 
L 318.773542 -70.406412 
L 317.921277 -70.087254 
L 317.111151 -69.768095 
L 316.350871 -69.448937 
L 315.646427 -69.129778 
L 315.001986 -68.81062 
L 314.41988 -68.491461 
L 313.900694 -68.172303 
L 313.443432 -67.853144 
L 313.045734 -67.533986 
L 312.704143 -67.214827 
L 312.414374 -66.895669 
L 312.171599 -66.57651 
L 311.970693 -66.257352 
L 311.806473 -65.938194 
z
" style="stroke: #303030; stroke-width: 1.5"/>
    </defs>
    <g clip-path="url(#p758ab26049)">
     <use xlink:href="#md0bf1d5d88" x="0" y="360" style="fill: #158b6a; stroke: #303030; stroke-width: 1.5"/>
    </g>
   </g>
   <g id="FillBetweenPolyCollection_4">
    <defs>
     <path id="me80f7db33e" d="M 414.046741 -319.568287 
L 411.589259 -319.568287 
L 411.267267 -319.731349 
L 410.881433 -319.89441 
L 410.424702 -320.057471 
L 409.890586 -320.220532 
L 409.273506 -320.383593 
L 408.569143 -320.546654 
L 407.774775 -320.709716 
L 406.889571 -320.872777 
L 405.914825 -321.035838 
L 404.854108 -321.198899 
L 403.713317 -321.36196 
L 402.500611 -321.525021 
L 401.22624 -321.688083 
L 399.90226 -321.851144 
L 398.54216 -322.014205 
L 397.160408 -322.177266 
L 395.771959 -322.340327 
L 394.391735 -322.503388 
L 393.034121 -322.66645 
L 391.712489 -322.829511 
L 390.438792 -322.992572 
L 389.223221 -323.155633 
L 388.073959 -323.318694 
L 386.997024 -323.481755 
L 385.996205 -323.644816 
L 385.073092 -323.807878 
L 384.227191 -323.970939 
L 383.456114 -324.134 
L 382.755844 -324.297061 
L 382.121056 -324.460122 
L 381.545489 -324.623183 
L 381.022358 -324.786245 
L 380.544786 -324.949306 
L 380.106255 -325.112367 
L 379.701033 -325.275428 
L 379.324589 -325.438489 
L 378.97394 -325.60155 
L 378.647937 -325.764612 
L 378.347453 -325.927673 
L 378.075459 -326.090734 
L 377.836979 -326.253795 
L 377.638913 -326.416856 
L 377.48973 -326.579917 
L 377.39905 -326.742979 
L 377.377118 -326.90604 
L 377.434216 -327.069101 
L 377.580025 -327.232162 
L 377.822996 -327.395223 
L 378.169752 -327.558284 
L 378.624573 -327.721346 
L 379.18898 -327.884407 
L 379.861466 -328.047468 
L 380.63737 -328.210529 
L 381.508919 -328.37359 
L 382.465418 -328.536651 
L 383.493595 -328.699713 
L 384.578058 -328.862774 
L 385.701863 -329.025835 
L 386.847145 -329.188896 
L 387.995787 -329.351957 
L 389.130103 -329.515018 
L 390.233505 -329.67808 
L 391.291121 -329.841141 
L 392.290352 -330.004202 
L 393.221334 -330.167263 
L 394.077301 -330.330324 
L 394.854817 -330.493385 
L 395.55387 -330.656446 
L 396.177818 -330.819508 
L 396.733175 -330.982569 
L 397.229246 -331.14563 
L 397.677622 -331.308691 
L 398.091548 -331.471752 
L 398.485199 -331.634813 
L 398.872907 -331.797875 
L 399.268377 -331.960936 
L 399.683936 -332.123997 
L 400.129885 -332.287058 
L 400.613966 -332.450119 
L 401.141003 -332.61318 
L 401.712724 -332.776242 
L 402.327781 -332.939303 
L 402.981953 -333.102364 
L 403.668515 -333.265425 
L 404.378739 -333.428486 
L 405.10249 -333.591547 
L 405.828858 -333.754609 
L 406.546795 -333.91767 
L 407.245703 -334.080731 
L 407.915944 -334.243792 
L 408.54924 -334.406853 
L 409.138955 -334.569914 
L 409.680247 -334.732976 
L 410.1701 -334.896037 
L 410.607252 -335.059098 
L 410.99203 -335.222159 
L 411.326129 -335.38522 
L 411.612345 -335.548281 
L 411.854298 -335.711343 
L 413.781702 -335.711343 
L 413.781702 -335.711343 
L 414.023655 -335.548281 
L 414.309871 -335.38522 
L 414.64397 -335.222159 
L 415.028748 -335.059098 
L 415.4659 -334.896037 
L 415.955753 -334.732976 
L 416.497045 -334.569914 
L 417.08676 -334.406853 
L 417.720056 -334.243792 
L 418.390297 -334.080731 
L 419.089205 -333.91767 
L 419.807142 -333.754609 
L 420.53351 -333.591547 
L 421.257261 -333.428486 
L 421.967485 -333.265425 
L 422.654047 -333.102364 
L 423.308219 -332.939303 
L 423.923276 -332.776242 
L 424.494997 -332.61318 
L 425.022034 -332.450119 
L 425.506115 -332.287058 
L 425.952064 -332.123997 
L 426.367623 -331.960936 
L 426.763093 -331.797875 
L 427.150801 -331.634813 
L 427.544452 -331.471752 
L 427.958378 -331.308691 
L 428.406754 -331.14563 
L 428.902825 -330.982569 
L 429.458182 -330.819508 
L 430.08213 -330.656446 
L 430.781183 -330.493385 
L 431.558699 -330.330324 
L 432.414666 -330.167263 
L 433.345648 -330.004202 
L 434.344879 -329.841141 
L 435.402495 -329.67808 
L 436.505897 -329.515018 
L 437.640213 -329.351957 
L 438.788855 -329.188896 
L 439.934137 -329.025835 
L 441.057942 -328.862774 
L 442.142405 -328.699713 
L 443.170582 -328.536651 
L 444.127081 -328.37359 
L 444.99863 -328.210529 
L 445.774534 -328.047468 
L 446.44702 -327.884407 
L 447.011427 -327.721346 
L 447.466248 -327.558284 
L 447.813004 -327.395223 
L 448.055975 -327.232162 
L 448.201784 -327.069101 
L 448.258882 -326.90604 
L 448.23695 -326.742979 
L 448.14627 -326.579917 
L 447.997087 -326.416856 
L 447.799021 -326.253795 
L 447.560541 -326.090734 
L 447.288547 -325.927673 
L 446.988063 -325.764612 
L 446.66206 -325.60155 
L 446.311411 -325.438489 
L 445.934967 -325.275428 
L 445.529745 -325.112367 
L 445.091214 -324.949306 
L 444.613642 -324.786245 
L 444.090511 -324.623183 
L 443.514944 -324.460122 
L 442.880156 -324.297061 
L 442.179886 -324.134 
L 441.408809 -323.970939 
L 440.562908 -323.807878 
L 439.639795 -323.644816 
L 438.638976 -323.481755 
L 437.562041 -323.318694 
L 436.412779 -323.155633 
L 435.197208 -322.992572 
L 433.923511 -322.829511 
L 432.601879 -322.66645 
L 431.244265 -322.503388 
L 429.864041 -322.340327 
L 428.475592 -322.177266 
L 427.09384 -322.014205 
L 425.73374 -321.851144 
L 424.40976 -321.688083 
L 423.135389 -321.525021 
L 421.922683 -321.36196 
L 420.781892 -321.198899 
L 419.721175 -321.035838 
L 418.746429 -320.872777 
L 417.861225 -320.709716 
L 417.066857 -320.546654 
L 416.362494 -320.383593 
L 415.745414 -320.220532 
L 415.211298 -320.057471 
L 414.754567 -319.89441 
L 414.368733 -319.731349 
L 414.046741 -319.568287 
z
" style="stroke: #303030; stroke-width: 1.5"/>
    </defs>
    <g clip-path="url(#p758ab26049)">
     <use xlink:href="#me80f7db33e" x="0" y="360" style="fill: #ba611b; stroke: #303030; stroke-width: 1.5"/>
    </g>
   </g>
   <g id="FillBetweenPolyCollection_5">
    <defs>
     <path id="m167cd3e214" d="M 515.661266 -305.529506 
L 513.150734 -305.529506 
L 512.813774 -305.706767 
L 512.410142 -305.884027 
L 511.933304 -306.061288 
L 511.377743 -306.238548 
L 510.739376 -306.415809 
L 510.015958 -306.593069 
L 509.207448 -306.77033 
L 508.316284 -306.94759 
L 507.347564 -307.124851 
L 506.309089 -307.302111 
L 505.211274 -307.479372 
L 504.066903 -307.656632 
L 502.890752 -307.833893 
L 501.699092 -308.011153 
L 500.5091 -308.188413 
L 499.338196 -308.365674 
L 498.203367 -308.542934 
L 497.120484 -308.720195 
L 496.103658 -308.897455 
L 495.164656 -309.074716 
L 494.312397 -309.251976 
L 493.552543 -309.429237 
L 492.887211 -309.606497 
L 492.3148 -309.783758 
L 491.829964 -309.961018 
L 491.423726 -310.138279 
L 491.083769 -310.315539 
L 490.794876 -310.4928 
L 490.539561 -310.67006 
L 490.298845 -310.847321 
L 490.053173 -311.024581 
L 489.783432 -311.201842 
L 489.472011 -311.379102 
L 489.103847 -311.556363 
L 488.667369 -311.733623 
L 488.155292 -311.910884 
L 487.565171 -312.088144 
L 486.899684 -312.265405 
L 486.166604 -312.442665 
L 485.37846 -312.619926 
L 484.551913 -312.797186 
L 483.706888 -312.974446 
L 482.86554 -313.151707 
L 482.05113 -313.328967 
L 481.286894 -313.506228 
L 480.594999 -313.683488 
L 479.995638 -313.860749 
L 479.506329 -314.038009 
L 479.141435 -314.21527 
L 478.911914 -314.39253 
L 478.825278 -314.569791 
L 478.88573 -314.747051 
L 479.094428 -314.924312 
L 479.449823 -315.101572 
L 479.948034 -315.278833 
L 480.583207 -315.456093 
L 481.347827 -315.633354 
L 482.232978 -315.810614 
L 483.228543 -315.987875 
L 484.323346 -316.165135 
L 485.505262 -316.342396 
L 486.761318 -316.519656 
L 488.0778 -316.696917 
L 489.440398 -316.874177 
L 490.834393 -317.051438 
L 492.244904 -317.228698 
L 493.65718 -317.405959 
L 495.056943 -317.583219 
L 496.430752 -317.760479 
L 497.766364 -317.93774 
L 499.053079 -318.115 
L 500.282021 -318.292261 
L 501.446354 -318.469521 
L 502.541394 -318.646782 
L 503.564613 -318.824042 
L 504.51554 -319.001303 
L 505.395548 -319.178563 
L 506.207565 -319.355824 
L 506.955703 -319.533084 
L 507.64487 -319.710345 
L 508.280364 -319.887605 
L 508.867496 -320.064866 
L 509.411268 -320.242126 
L 509.916118 -320.419387 
L 510.385759 -320.596647 
L 510.823104 -320.773908 
L 511.23027 -320.951168 
L 511.608665 -321.128429 
L 511.959126 -321.305689 
L 512.282081 -321.48295 
L 512.577742 -321.66021 
L 512.846272 -321.837471 
L 513.087936 -322.014731 
L 513.303218 -322.191992 
L 513.492893 -322.369252 
L 513.658057 -322.546512 
L 513.80012 -322.723773 
L 513.920766 -322.901033 
L 514.021892 -323.078294 
L 514.790108 -323.078294 
L 514.790108 -323.078294 
L 514.891234 -322.901033 
L 515.01188 -322.723773 
L 515.153943 -322.546512 
L 515.319107 -322.369252 
L 515.508782 -322.191992 
L 515.724064 -322.014731 
L 515.965728 -321.837471 
L 516.234258 -321.66021 
L 516.529919 -321.48295 
L 516.852874 -321.305689 
L 517.203335 -321.128429 
L 517.58173 -320.951168 
L 517.988896 -320.773908 
L 518.426241 -320.596647 
L 518.895882 -320.419387 
L 519.400732 -320.242126 
L 519.944504 -320.064866 
L 520.531636 -319.887605 
L 521.16713 -319.710345 
L 521.856297 -319.533084 
L 522.604435 -319.355824 
L 523.416452 -319.178563 
L 524.29646 -319.001303 
L 525.247387 -318.824042 
L 526.270606 -318.646782 
L 527.365646 -318.469521 
L 528.529979 -318.292261 
L 529.758921 -318.115 
L 531.045636 -317.93774 
L 532.381248 -317.760479 
L 533.755057 -317.583219 
L 535.15482 -317.405959 
L 536.567096 -317.228698 
L 537.977607 -317.051438 
L 539.371602 -316.874177 
L 540.7342 -316.696917 
L 542.050682 -316.519656 
L 543.306738 -316.342396 
L 544.488654 -316.165135 
L 545.583457 -315.987875 
L 546.579022 -315.810614 
L 547.464173 -315.633354 
L 548.228793 -315.456093 
L 548.863966 -315.278833 
L 549.362177 -315.101572 
L 549.717572 -314.924312 
L 549.92627 -314.747051 
L 549.986722 -314.569791 
L 549.900086 -314.39253 
L 549.670565 -314.21527 
L 549.305671 -314.038009 
L 548.816362 -313.860749 
L 548.217001 -313.683488 
L 547.525106 -313.506228 
L 546.76087 -313.328967 
L 545.94646 -313.151707 
L 545.105112 -312.974446 
L 544.260087 -312.797186 
L 543.43354 -312.619926 
L 542.645396 -312.442665 
L 541.912316 -312.265405 
L 541.246829 -312.088144 
L 540.656708 -311.910884 
L 540.144631 -311.733623 
L 539.708153 -311.556363 
L 539.339989 -311.379102 
L 539.028568 -311.201842 
L 538.758827 -311.024581 
L 538.513155 -310.847321 
L 538.272439 -310.67006 
L 538.017124 -310.4928 
L 537.728231 -310.315539 
L 537.388274 -310.138279 
L 536.982036 -309.961018 
L 536.4972 -309.783758 
L 535.924789 -309.606497 
L 535.259457 -309.429237 
L 534.499603 -309.251976 
L 533.647344 -309.074716 
L 532.708342 -308.897455 
L 531.691516 -308.720195 
L 530.608633 -308.542934 
L 529.473804 -308.365674 
L 528.3029 -308.188413 
L 527.112908 -308.011153 
L 525.921248 -307.833893 
L 524.745097 -307.656632 
L 523.600726 -307.479372 
L 522.502911 -307.302111 
L 521.464436 -307.124851 
L 520.495716 -306.94759 
L 519.604552 -306.77033 
L 518.796042 -306.593069 
L 518.072624 -306.415809 
L 517.434257 -306.238548 
L 516.878696 -306.061288 
L 516.401858 -305.884027 
L 515.998226 -305.706767 
L 515.661266 -305.529506 
z
" style="stroke: #303030; stroke-width: 1.5"/>
    </defs>
    <g clip-path="url(#p758ab26049)">
     <use xlink:href="#m167cd3e214" x="0" y="360" style="fill: #c282b5; stroke: #303030; stroke-width: 1.5"/>
    </g>
   </g>
   <g id="matplotlib.axis_1">
    <g id="xtick_1">
     <g id="line2d_1">
      <defs>
       <path id="m47c317be93" d="M 0 0 
L 0 3.5 
" style="stroke: #000000; stroke-width: 0.8"/>
      </defs>
      <g>
       <use xlink:href="#m47c317be93" x="108.054" y="307.550464" style="stroke: #000000; stroke-width: 0.8"/>
      </g>
     </g>
     <g id="text_1">
      <!-- Feng Cha -->
      <g transform="translate(89.226203 344.464498) rotate(-30) scale(0.1 -0.1)">
       <defs>
        <path id="DejaVuSans-46" d="M 628 4666 
L 3309 4666 
L 3309 4134 
L 1259 4134 
L 1259 2759 
L 3109 2759 
L 3109 2228 
L 1259 2228 
L 1259 0 
L 628 0 
L 628 4666 
z
" transform="scale(0.015625)"/>
        <path id="DejaVuSans-65" d="M 3597 1894 
L 3597 1613 
L 953 1613 
Q 991 1019 1311 708 
Q 1631 397 2203 397 
Q 2534 397 2845 478 
Q 3156 559 3463 722 
L 3463 178 
Q 3153 47 2828 -22 
Q 2503 -91 2169 -91 
Q 1331 -91 842 396 
Q 353 884 353 1716 
Q 353 2575 817 3079 
Q 1281 3584 2069 3584 
Q 2775 3584 3186 3129 
Q 3597 2675 3597 1894 
z
M 3022 2063 
Q 3016 2534 2758 2815 
Q 2500 3097 2075 3097 
Q 1594 3097 1305 2825 
Q 1016 2553 972 2059 
L 3022 2063 
z
" transform="scale(0.015625)"/>
        <path id="DejaVuSans-6e" d="M 3513 2113 
L 3513 0 
L 2938 0 
L 2938 2094 
Q 2938 2591 2744 2837 
Q 2550 3084 2163 3084 
Q 1697 3084 1428 2787 
Q 1159 2491 1159 1978 
L 1159 0 
L 581 0 
L 581 3500 
L 1159 3500 
L 1159 2956 
Q 1366 3272 1645 3428 
Q 1925 3584 2291 3584 
Q 2894 3584 3203 3211 
Q 3513 2838 3513 2113 
z
" transform="scale(0.015625)"/>
        <path id="DejaVuSans-67" d="M 2906 1791 
Q 2906 2416 2648 2759 
Q 2391 3103 1925 3103 
Q 1463 3103 1205 2759 
Q 947 2416 947 1791 
Q 947 1169 1205 825 
Q 1463 481 1925 481 
Q 2391 481 2648 825 
Q 2906 1169 2906 1791 
z
M 3481 434 
Q 3481 -459 3084 -895 
Q 2688 -1331 1869 -1331 
Q 1566 -1331 1297 -1286 
Q 1028 -1241 775 -1147 
L 775 -588 
Q 1028 -725 1275 -790 
Q 1522 -856 1778 -856 
Q 2344 -856 2625 -561 
Q 2906 -266 2906 331 
L 2906 616 
Q 2728 306 2450 153 
Q 2172 0 1784 0 
Q 1141 0 747 490 
Q 353 981 353 1791 
Q 353 2603 747 3093 
Q 1141 3584 1784 3584 
Q 2172 3584 2450 3431 
Q 2728 3278 2906 2969 
L 2906 3500 
L 3481 3500 
L 3481 434 
z
" transform="scale(0.015625)"/>
        <path id="DejaVuSans-20" transform="scale(0.015625)"/>
        <path id="DejaVuSans-43" d="M 4122 4306 
L 4122 3641 
Q 3803 3938 3442 4084 
Q 3081 4231 2675 4231 
Q 1875 4231 1450 3742 
Q 1025 3253 1025 2328 
Q 1025 1406 1450 917 
Q 1875 428 2675 428 
Q 3081 428 3442 575 
Q 3803 722 4122 1019 
L 4122 359 
Q 3791 134 3420 21 
Q 3050 -91 2638 -91 
Q 1578 -91 968 557 
Q 359 1206 359 2328 
Q 359 3453 968 4101 
Q 1578 4750 2638 4750 
Q 3056 4750 3426 4639 
Q 3797 4528 4122 4306 
z
" transform="scale(0.015625)"/>
        <path id="DejaVuSans-68" d="M 3513 2113 
L 3513 0 
L 2938 0 
L 2938 2094 
Q 2938 2591 2744 2837 
Q 2550 3084 2163 3084 
Q 1697 3084 1428 2787 
Q 1159 2491 1159 1978 
L 1159 0 
L 581 0 
L 581 4863 
L 1159 4863 
L 1159 2956 
Q 1366 3272 1645 3428 
Q 1925 3584 2291 3584 
Q 2894 3584 3203 3211 
Q 3513 2838 3513 2113 
z
" transform="scale(0.015625)"/>
        <path id="DejaVuSans-61" d="M 2194 1759 
Q 1497 1759 1228 1600 
Q 959 1441 959 1056 
Q 959 750 1161 570 
Q 1363 391 1709 391 
Q 2188 391 2477 730 
Q 2766 1069 2766 1631 
L 2766 1759 
L 2194 1759 
z
M 3341 1997 
L 3341 0 
L 2766 0 
L 2766 531 
Q 2569 213 2275 61 
Q 1981 -91 1556 -91 
Q 1019 -91 701 211 
Q 384 513 384 1019 
Q 384 1609 779 1909 
Q 1175 2209 1959 2209 
L 2766 2209 
L 2766 2266 
Q 2766 2663 2505 2880 
Q 2244 3097 1772 3097 
Q 1472 3097 1187 3025 
Q 903 2953 641 2809 
L 641 3341 
Q 956 3463 1253 3523 
Q 1550 3584 1831 3584 
Q 2591 3584 2966 3190 
Q 3341 2797 3341 1997 
z
" transform="scale(0.015625)"/>
       </defs>
       <use xlink:href="#DejaVuSans-46"/>
       <use xlink:href="#DejaVuSans-65" transform="translate(52.019531 0)"/>
       <use xlink:href="#DejaVuSans-6e" transform="translate(113.542969 0)"/>
       <use xlink:href="#DejaVuSans-67" transform="translate(176.921875 0)"/>
       <use xlink:href="#DejaVuSans-20" transform="translate(240.398438 0)"/>
       <use xlink:href="#DejaVuSans-43" transform="translate(272.185547 0)"/>
       <use xlink:href="#DejaVuSans-68" transform="translate(342.009766 0)"/>
       <use xlink:href="#DejaVuSans-61" transform="translate(405.388672 0)"/>
      </g>
     </g>
    </g>
    <g id="xtick_2">
     <g id="line2d_2">
      <g>
       <use xlink:href="#m47c317be93" x="209.642" y="307.550464" style="stroke: #000000; stroke-width: 0.8"/>
      </g>
     </g>
     <g id="text_2">
      <!-- Sharetea -->
      <g transform="translate(191.512436 343.658248) rotate(-30) scale(0.1 -0.1)">
       <defs>
        <path id="DejaVuSans-53" d="M 3425 4513 
L 3425 3897 
Q 3066 4069 2747 4153 
Q 2428 4238 2131 4238 
Q 1616 4238 1336 4038 
Q 1056 3838 1056 3469 
Q 1056 3159 1242 3001 
Q 1428 2844 1947 2747 
L 2328 2669 
Q 3034 2534 3370 2195 
Q 3706 1856 3706 1288 
Q 3706 609 3251 259 
Q 2797 -91 1919 -91 
Q 1588 -91 1214 -16 
Q 841 59 441 206 
L 441 856 
Q 825 641 1194 531 
Q 1563 422 1919 422 
Q 2459 422 2753 634 
Q 3047 847 3047 1241 
Q 3047 1584 2836 1778 
Q 2625 1972 2144 2069 
L 1759 2144 
Q 1053 2284 737 2584 
Q 422 2884 422 3419 
Q 422 4038 858 4394 
Q 1294 4750 2059 4750 
Q 2388 4750 2728 4690 
Q 3069 4631 3425 4513 
z
" transform="scale(0.015625)"/>
        <path id="DejaVuSans-72" d="M 2631 2963 
Q 2534 3019 2420 3045 
Q 2306 3072 2169 3072 
Q 1681 3072 1420 2755 
Q 1159 2438 1159 1844 
L 1159 0 
L 581 0 
L 581 3500 
L 1159 3500 
L 1159 2956 
Q 1341 3275 1631 3429 
Q 1922 3584 2338 3584 
Q 2397 3584 2469 3576 
Q 2541 3569 2628 3553 
L 2631 2963 
z
" transform="scale(0.015625)"/>
        <path id="DejaVuSans-74" d="M 1172 4494 
L 1172 3500 
L 2356 3500 
L 2356 3053 
L 1172 3053 
L 1172 1153 
Q 1172 725 1289 603 
Q 1406 481 1766 481 
L 2356 481 
L 2356 0 
L 1766 0 
Q 1100 0 847 248 
Q 594 497 594 1153 
L 594 3053 
L 172 3053 
L 172 3500 
L 594 3500 
L 594 4494 
L 1172 4494 
z
" transform="scale(0.015625)"/>
       </defs>
       <use xlink:href="#DejaVuSans-53"/>
       <use xlink:href="#DejaVuSans-68" transform="translate(63.476562 0)"/>
       <use xlink:href="#DejaVuSans-61" transform="translate(126.855469 0)"/>
       <use xlink:href="#DejaVuSans-72" transform="translate(188.134766 0)"/>
       <use xlink:href="#DejaVuSans-65" transform="translate(226.998047 0)"/>
       <use xlink:href="#DejaVuSans-74" transform="translate(288.521484 0)"/>
       <use xlink:href="#DejaVuSans-65" transform="translate(327.730469 0)"/>
       <use xlink:href="#DejaVuSans-61" transform="translate(389.253906 0)"/>
      </g>
     </g>
    </g>
    <g id="xtick_3">
     <g id="line2d_3">
      <g>
       <use xlink:href="#m47c317be93" x="311.23" y="307.550464" style="stroke: #000000; stroke-width: 0.8"/>
      </g>
     </g>
     <g id="text_3">
      <!-- Bear Cup -->
      <g transform="translate(292.647802 344.180904) rotate(-30) scale(0.1 -0.1)">
       <defs>
        <path id="DejaVuSans-42" d="M 1259 2228 
L 1259 519 
L 2272 519 
Q 2781 519 3026 730 
Q 3272 941 3272 1375 
Q 3272 1813 3026 2020 
Q 2781 2228 2272 2228 
L 1259 2228 
z
M 1259 4147 
L 1259 2741 
L 2194 2741 
Q 2656 2741 2882 2914 
Q 3109 3088 3109 3444 
Q 3109 3797 2882 3972 
Q 2656 4147 2194 4147 
L 1259 4147 
z
M 628 4666 
L 2241 4666 
Q 2963 4666 3353 4366 
Q 3744 4066 3744 3513 
Q 3744 3084 3544 2831 
Q 3344 2578 2956 2516 
Q 3422 2416 3680 2098 
Q 3938 1781 3938 1306 
Q 3938 681 3513 340 
Q 3088 0 2303 0 
L 628 0 
L 628 4666 
z
" transform="scale(0.015625)"/>
        <path id="DejaVuSans-75" d="M 544 1381 
L 544 3500 
L 1119 3500 
L 1119 1403 
Q 1119 906 1312 657 
Q 1506 409 1894 409 
Q 2359 409 2629 706 
Q 2900 1003 2900 1516 
L 2900 3500 
L 3475 3500 
L 3475 0 
L 2900 0 
L 2900 538 
Q 2691 219 2414 64 
Q 2138 -91 1772 -91 
Q 1169 -91 856 284 
Q 544 659 544 1381 
z
M 1991 3584 
L 1991 3584 
z
" transform="scale(0.015625)"/>
        <path id="DejaVuSans-70" d="M 1159 525 
L 1159 -1331 
L 581 -1331 
L 581 3500 
L 1159 3500 
L 1159 2969 
Q 1341 3281 1617 3432 
Q 1894 3584 2278 3584 
Q 2916 3584 3314 3078 
Q 3713 2572 3713 1747 
Q 3713 922 3314 415 
Q 2916 -91 2278 -91 
Q 1894 -91 1617 61 
Q 1341 213 1159 525 
z
M 3116 1747 
Q 3116 2381 2855 2742 
Q 2594 3103 2138 3103 
Q 1681 3103 1420 2742 
Q 1159 2381 1159 1747 
Q 1159 1113 1420 752 
Q 1681 391 2138 391 
Q 2594 391 2855 752 
Q 3116 1113 3116 1747 
z
" transform="scale(0.015625)"/>
       </defs>
       <use xlink:href="#DejaVuSans-42"/>
       <use xlink:href="#DejaVuSans-65" transform="translate(68.603516 0)"/>
       <use xlink:href="#DejaVuSans-61" transform="translate(130.126953 0)"/>
       <use xlink:href="#DejaVuSans-72" transform="translate(191.40625 0)"/>
       <use xlink:href="#DejaVuSans-20" transform="translate(232.519531 0)"/>
       <use xlink:href="#DejaVuSans-43" transform="translate(264.306641 0)"/>
       <use xlink:href="#DejaVuSans-75" transform="translate(334.130859 0)"/>
       <use xlink:href="#DejaVuSans-70" transform="translate(397.509766 0)"/>
      </g>
     </g>
    </g>
    <g id="xtick_4">
     <g id="line2d_4">
      <g>
       <use xlink:href="#m47c317be93" x="412.818" y="307.550464" style="stroke: #000000; stroke-width: 0.8"/>
      </g>
     </g>
     <g id="text_4">
      <!-- Wushiland -->
      <g transform="translate(391.776425 347.020748) rotate(-30) scale(0.1 -0.1)">
       <defs>
        <path id="DejaVuSans-57" d="M 213 4666 
L 850 4666 
L 1831 722 
L 2809 4666 
L 3519 4666 
L 4500 722 
L 5478 4666 
L 6119 4666 
L 4947 0 
L 4153 0 
L 3169 4050 
L 2175 0 
L 1381 0 
L 213 4666 
z
" transform="scale(0.015625)"/>
        <path id="DejaVuSans-73" d="M 2834 3397 
L 2834 2853 
Q 2591 2978 2328 3040 
Q 2066 3103 1784 3103 
Q 1356 3103 1142 2972 
Q 928 2841 928 2578 
Q 928 2378 1081 2264 
Q 1234 2150 1697 2047 
L 1894 2003 
Q 2506 1872 2764 1633 
Q 3022 1394 3022 966 
Q 3022 478 2636 193 
Q 2250 -91 1575 -91 
Q 1294 -91 989 -36 
Q 684 19 347 128 
L 347 722 
Q 666 556 975 473 
Q 1284 391 1588 391 
Q 1994 391 2212 530 
Q 2431 669 2431 922 
Q 2431 1156 2273 1281 
Q 2116 1406 1581 1522 
L 1381 1569 
Q 847 1681 609 1914 
Q 372 2147 372 2553 
Q 372 3047 722 3315 
Q 1072 3584 1716 3584 
Q 2034 3584 2315 3537 
Q 2597 3491 2834 3397 
z
" transform="scale(0.015625)"/>
        <path id="DejaVuSans-69" d="M 603 3500 
L 1178 3500 
L 1178 0 
L 603 0 
L 603 3500 
z
M 603 4863 
L 1178 4863 
L 1178 4134 
L 603 4134 
L 603 4863 
z
" transform="scale(0.015625)"/>
        <path id="DejaVuSans-6c" d="M 603 4863 
L 1178 4863 
L 1178 0 
L 603 0 
L 603 4863 
z
" transform="scale(0.015625)"/>
        <path id="DejaVuSans-64" d="M 2906 2969 
L 2906 4863 
L 3481 4863 
L 3481 0 
L 2906 0 
L 2906 525 
Q 2725 213 2448 61 
Q 2172 -91 1784 -91 
Q 1150 -91 751 415 
Q 353 922 353 1747 
Q 353 2572 751 3078 
Q 1150 3584 1784 3584 
Q 2172 3584 2448 3432 
Q 2725 3281 2906 2969 
z
M 947 1747 
Q 947 1113 1208 752 
Q 1469 391 1925 391 
Q 2381 391 2643 752 
Q 2906 1113 2906 1747 
Q 2906 2381 2643 2742 
Q 2381 3103 1925 3103 
Q 1469 3103 1208 2742 
Q 947 2381 947 1747 
z
" transform="scale(0.015625)"/>
       </defs>
       <use xlink:href="#DejaVuSans-57"/>
       <use xlink:href="#DejaVuSans-75" transform="translate(95.251953 0)"/>
       <use xlink:href="#DejaVuSans-73" transform="translate(158.630859 0)"/>
       <use xlink:href="#DejaVuSans-68" transform="translate(210.730469 0)"/>
       <use xlink:href="#DejaVuSans-69" transform="translate(274.109375 0)"/>
       <use xlink:href="#DejaVuSans-6c" transform="translate(301.892578 0)"/>
       <use xlink:href="#DejaVuSans-61" transform="translate(329.675781 0)"/>
       <use xlink:href="#DejaVuSans-6e" transform="translate(390.955078 0)"/>
       <use xlink:href="#DejaVuSans-64" transform="translate(454.333984 0)"/>
      </g>
     </g>
    </g>
    <g id="xtick_5">
     <g id="line2d_5">
      <g>
       <use xlink:href="#m47c317be93" x="514.406" y="307.550464" style="stroke: #000000; stroke-width: 0.8"/>
      </g>
     </g>
     <g id="text_5">
      <!-- Sunright -->
      <g transform="translate(497.374529 342.390279) rotate(-30) scale(0.1 -0.1)">
       <use xlink:href="#DejaVuSans-53"/>
       <use xlink:href="#DejaVuSans-75" transform="translate(63.476562 0)"/>
       <use xlink:href="#DejaVuSans-6e" transform="translate(126.855469 0)"/>
       <use xlink:href="#DejaVuSans-72" transform="translate(190.234375 0)"/>
       <use xlink:href="#DejaVuSans-69" transform="translate(231.347656 0)"/>
       <use xlink:href="#DejaVuSans-67" transform="translate(259.130859 0)"/>
       <use xlink:href="#DejaVuSans-68" transform="translate(322.607422 0)"/>
       <use xlink:href="#DejaVuSans-74" transform="translate(385.986328 0)"/>
      </g>
     </g>
    </g>
   </g>
   <g id="matplotlib.axis_2">
    <g id="ytick_1">
     <g id="line2d_6">
      <defs>
       <path id="ma1541a7254" d="M 0 0 
L -3.5 0 
" style="stroke: #000000; stroke-width: 0.8"/>
      </defs>
      <g>
       <use xlink:href="#ma1541a7254" x="57.26" y="303.367681" style="stroke: #000000; stroke-width: 0.8"/>
      </g>
     </g>
     <g id="text_6">
      <!-- 800 -->
      <g transform="translate(31.1725 307.1669) scale(0.1 -0.1)">
       <defs>
        <path id="DejaVuSans-38" d="M 2034 2216 
Q 1584 2216 1326 1975 
Q 1069 1734 1069 1313 
Q 1069 891 1326 650 
Q 1584 409 2034 409 
Q 2484 409 2743 651 
Q 3003 894 3003 1313 
Q 3003 1734 2745 1975 
Q 2488 2216 2034 2216 
z
M 1403 2484 
Q 997 2584 770 2862 
Q 544 3141 544 3541 
Q 544 4100 942 4425 
Q 1341 4750 2034 4750 
Q 2731 4750 3128 4425 
Q 3525 4100 3525 3541 
Q 3525 3141 3298 2862 
Q 3072 2584 2669 2484 
Q 3125 2378 3379 2068 
Q 3634 1759 3634 1313 
Q 3634 634 3220 271 
Q 2806 -91 2034 -91 
Q 1263 -91 848 271 
Q 434 634 434 1313 
Q 434 1759 690 2068 
Q 947 2378 1403 2484 
z
M 1172 3481 
Q 1172 3119 1398 2916 
Q 1625 2713 2034 2713 
Q 2441 2713 2670 2916 
Q 2900 3119 2900 3481 
Q 2900 3844 2670 4047 
Q 2441 4250 2034 4250 
Q 1625 4250 1398 4047 
Q 1172 3844 1172 3481 
z
" transform="scale(0.015625)"/>
        <path id="DejaVuSans-30" d="M 2034 4250 
Q 1547 4250 1301 3770 
Q 1056 3291 1056 2328 
Q 1056 1369 1301 889 
Q 1547 409 2034 409 
Q 2525 409 2770 889 
Q 3016 1369 3016 2328 
Q 3016 3291 2770 3770 
Q 2525 4250 2034 4250 
z
M 2034 4750 
Q 2819 4750 3233 4129 
Q 3647 3509 3647 2328 
Q 3647 1150 3233 529 
Q 2819 -91 2034 -91 
Q 1250 -91 836 529 
Q 422 1150 422 2328 
Q 422 3509 836 4129 
Q 1250 4750 2034 4750 
z
" transform="scale(0.015625)"/>
       </defs>
       <use xlink:href="#DejaVuSans-38"/>
       <use xlink:href="#DejaVuSans-30" transform="translate(63.623047 0)"/>
       <use xlink:href="#DejaVuSans-30" transform="translate(127.246094 0)"/>
      </g>
     </g>
    </g>
    <g id="ytick_2">
     <g id="line2d_7">
      <g>
       <use xlink:href="#ma1541a7254" x="57.26" y="247.281402" style="stroke: #000000; stroke-width: 0.8"/>
      </g>
     </g>
     <g id="text_7">
      <!-- 1000 -->
      <g transform="translate(24.81 251.080621) scale(0.1 -0.1)">
       <defs>
        <path id="DejaVuSans-31" d="M 794 531 
L 1825 531 
L 1825 4091 
L 703 3866 
L 703 4441 
L 1819 4666 
L 2450 4666 
L 2450 531 
L 3481 531 
L 3481 0 
L 794 0 
L 794 531 
z
" transform="scale(0.015625)"/>
       </defs>
       <use xlink:href="#DejaVuSans-31"/>
       <use xlink:href="#DejaVuSans-30" transform="translate(63.623047 0)"/>
       <use xlink:href="#DejaVuSans-30" transform="translate(127.246094 0)"/>
       <use xlink:href="#DejaVuSans-30" transform="translate(190.869141 0)"/>
      </g>
     </g>
    </g>
    <g id="ytick_3">
     <g id="line2d_8">
      <g>
       <use xlink:href="#ma1541a7254" x="57.26" y="191.195124" style="stroke: #000000; stroke-width: 0.8"/>
      </g>
     </g>
     <g id="text_8">
      <!-- 1200 -->
      <g transform="translate(24.81 194.994342) scale(0.1 -0.1)">
       <defs>
        <path id="DejaVuSans-32" d="M 1228 531 
L 3431 531 
L 3431 0 
L 469 0 
L 469 531 
Q 828 903 1448 1529 
Q 2069 2156 2228 2338 
Q 2531 2678 2651 2914 
Q 2772 3150 2772 3378 
Q 2772 3750 2511 3984 
Q 2250 4219 1831 4219 
Q 1534 4219 1204 4116 
Q 875 4013 500 3803 
L 500 4441 
Q 881 4594 1212 4672 
Q 1544 4750 1819 4750 
Q 2544 4750 2975 4387 
Q 3406 4025 3406 3419 
Q 3406 3131 3298 2873 
Q 3191 2616 2906 2266 
Q 2828 2175 2409 1742 
Q 1991 1309 1228 531 
z
" transform="scale(0.015625)"/>
       </defs>
       <use xlink:href="#DejaVuSans-31"/>
       <use xlink:href="#DejaVuSans-32" transform="translate(63.623047 0)"/>
       <use xlink:href="#DejaVuSans-30" transform="translate(127.246094 0)"/>
       <use xlink:href="#DejaVuSans-30" transform="translate(190.869141 0)"/>
      </g>
     </g>
    </g>
    <g id="ytick_4">
     <g id="line2d_9">
      <g>
       <use xlink:href="#ma1541a7254" x="57.26" y="135.108845" style="stroke: #000000; stroke-width: 0.8"/>
      </g>
     </g>
     <g id="text_9">
      <!-- 1400 -->
      <g transform="translate(24.81 138.908064) scale(0.1 -0.1)">
       <defs>
        <path id="DejaVuSans-34" d="M 2419 4116 
L 825 1625 
L 2419 1625 
L 2419 4116 
z
M 2253 4666 
L 3047 4666 
L 3047 1625 
L 3713 1625 
L 3713 1100 
L 3047 1100 
L 3047 0 
L 2419 0 
L 2419 1100 
L 313 1100 
L 313 1709 
L 2253 4666 
z
" transform="scale(0.015625)"/>
       </defs>
       <use xlink:href="#DejaVuSans-31"/>
       <use xlink:href="#DejaVuSans-34" transform="translate(63.623047 0)"/>
       <use xlink:href="#DejaVuSans-30" transform="translate(127.246094 0)"/>
       <use xlink:href="#DejaVuSans-30" transform="translate(190.869141 0)"/>
      </g>
     </g>
    </g>
    <g id="ytick_5">
     <g id="line2d_10">
      <g>
       <use xlink:href="#ma1541a7254" x="57.26" y="79.022567" style="stroke: #000000; stroke-width: 0.8"/>
      </g>
     </g>
     <g id="text_10">
      <!-- 1600 -->
      <g transform="translate(24.81 82.821785) scale(0.1 -0.1)">
       <defs>
        <path id="DejaVuSans-36" d="M 2113 2584 
Q 1688 2584 1439 2293 
Q 1191 2003 1191 1497 
Q 1191 994 1439 701 
Q 1688 409 2113 409 
Q 2538 409 2786 701 
Q 3034 994 3034 1497 
Q 3034 2003 2786 2293 
Q 2538 2584 2113 2584 
z
M 3366 4563 
L 3366 3988 
Q 3128 4100 2886 4159 
Q 2644 4219 2406 4219 
Q 1781 4219 1451 3797 
Q 1122 3375 1075 2522 
Q 1259 2794 1537 2939 
Q 1816 3084 2150 3084 
Q 2853 3084 3261 2657 
Q 3669 2231 3669 1497 
Q 3669 778 3244 343 
Q 2819 -91 2113 -91 
Q 1303 -91 875 529 
Q 447 1150 447 2328 
Q 447 3434 972 4092 
Q 1497 4750 2381 4750 
Q 2619 4750 2861 4703 
Q 3103 4656 3366 4563 
z
" transform="scale(0.015625)"/>
       </defs>
       <use xlink:href="#DejaVuSans-31"/>
       <use xlink:href="#DejaVuSans-36" transform="translate(63.623047 0)"/>
       <use xlink:href="#DejaVuSans-30" transform="translate(127.246094 0)"/>
       <use xlink:href="#DejaVuSans-30" transform="translate(190.869141 0)"/>
      </g>
     </g>
    </g>
    <g id="ytick_6">
     <g id="line2d_11">
      <g>
       <use xlink:href="#ma1541a7254" x="57.26" y="22.936288" style="stroke: #000000; stroke-width: 0.8"/>
      </g>
     </g>
     <g id="text_11">
      <!-- 1800 -->
      <g transform="translate(24.81 26.735507) scale(0.1 -0.1)">
       <use xlink:href="#DejaVuSans-31"/>
       <use xlink:href="#DejaVuSans-38" transform="translate(63.623047 0)"/>
       <use xlink:href="#DejaVuSans-30" transform="translate(127.246094 0)"/>
       <use xlink:href="#DejaVuSans-30" transform="translate(190.869141 0)"/>
      </g>
     </g>
    </g>
    <g id="text_12">
     <!-- TDS_ppm -->
     <g transform="translate(18.452188 182.972107) rotate(-90) scale(0.1 -0.1)">
      <defs>
       <path id="DejaVuSans-54" d="M -19 4666 
L 3928 4666 
L 3928 4134 
L 2272 4134 
L 2272 0 
L 1638 0 
L 1638 4134 
L -19 4134 
L -19 4666 
z
" transform="scale(0.015625)"/>
       <path id="DejaVuSans-44" d="M 1259 4147 
L 1259 519 
L 2022 519 
Q 2988 519 3436 956 
Q 3884 1394 3884 2338 
Q 3884 3275 3436 3711 
Q 2988 4147 2022 4147 
L 1259 4147 
z
M 628 4666 
L 1925 4666 
Q 3281 4666 3915 4102 
Q 4550 3538 4550 2338 
Q 4550 1131 3912 565 
Q 3275 0 1925 0 
L 628 0 
L 628 4666 
z
" transform="scale(0.015625)"/>
       <path id="DejaVuSans-5f" d="M 3263 -1063 
L 3263 -1509 
L -63 -1509 
L -63 -1063 
L 3263 -1063 
z
" transform="scale(0.015625)"/>
       <path id="DejaVuSans-6d" d="M 3328 2828 
Q 3544 3216 3844 3400 
Q 4144 3584 4550 3584 
Q 5097 3584 5394 3201 
Q 5691 2819 5691 2113 
L 5691 0 
L 5113 0 
L 5113 2094 
Q 5113 2597 4934 2840 
Q 4756 3084 4391 3084 
Q 3944 3084 3684 2787 
Q 3425 2491 3425 1978 
L 3425 0 
L 2847 0 
L 2847 2094 
Q 2847 2600 2669 2842 
Q 2491 3084 2119 3084 
Q 1678 3084 1418 2786 
Q 1159 2488 1159 1978 
L 1159 0 
L 581 0 
L 581 3500 
L 1159 3500 
L 1159 2956 
Q 1356 3278 1631 3431 
Q 1906 3584 2284 3584 
Q 2666 3584 2933 3390 
Q 3200 3197 3328 2828 
z
" transform="scale(0.015625)"/>
      </defs>
      <use xlink:href="#DejaVuSans-54"/>
      <use xlink:href="#DejaVuSans-44" transform="translate(61.083984 0)"/>
      <use xlink:href="#DejaVuSans-53" transform="translate(138.085938 0)"/>
      <use xlink:href="#DejaVuSans-5f" transform="translate(201.5625 0)"/>
      <use xlink:href="#DejaVuSans-70" transform="translate(251.5625 0)"/>
      <use xlink:href="#DejaVuSans-70" transform="translate(315.039062 0)"/>
      <use xlink:href="#DejaVuSans-6d" transform="translate(378.515625 0)"/>
     </g>
    </g>
   </g>
   <g id="line2d_12">
    <path d="M 108.054 100.924258 
L 108.054 89.993043 
" clip-path="url(#p758ab26049)" style="fill: none; stroke: #303030; stroke-width: 1.5; stroke-linecap: square"/>
   </g>
   <g id="line2d_13">
    <path d="M 108.054 97.463735 
L 108.054 92.418073 
" clip-path="url(#p758ab26049)" style="fill: none; stroke: #303030; stroke-width: 4.5; stroke-linecap: square"/>
   </g>
   <g id="line2d_14">
    <path d="M 209.642 55.690675 
L 209.642 44.111663 
" clip-path="url(#p758ab26049)" style="fill: none; stroke: #303030; stroke-width: 1.5; stroke-linecap: square"/>
   </g>
   <g id="line2d_15">
    <path d="M 209.642 53.039196 
L 209.642 49.211307 
" clip-path="url(#p758ab26049)" style="fill: none; stroke: #303030; stroke-width: 4.5; stroke-linecap: square"/>
   </g>
   <g id="line2d_16">
    <path d="M 311.23 288.224386 
L 311.23 268.302539 
" clip-path="url(#p758ab26049)" style="fill: none; stroke: #303030; stroke-width: 1.5; stroke-linecap: square"/>
   </g>
   <g id="line2d_17">
    <path d="M 311.23 284.693053 
L 311.23 276.293432 
" clip-path="url(#p758ab26049)" style="fill: none; stroke: #303030; stroke-width: 4.5; stroke-linecap: square"/>
   </g>
   <g id="line2d_18">
    <path d="M 412.818 37.42057 
L 412.818 27.299801 
" clip-path="url(#p758ab26049)" style="fill: none; stroke: #303030; stroke-width: 1.5; stroke-linecap: square"/>
   </g>
   <g id="line2d_19">
    <path d="M 412.818 35.498913 
L 412.818 31.499261 
" clip-path="url(#p758ab26049)" style="fill: none; stroke: #303030; stroke-width: 4.5; stroke-linecap: square"/>
   </g>
   <g id="line2d_20">
    <path d="M 514.406 51.388857 
L 514.406 40.003343 
" clip-path="url(#p758ab26049)" style="fill: none; stroke: #303030; stroke-width: 1.5; stroke-linecap: square"/>
   </g>
   <g id="line2d_21">
    <path d="M 514.406 49.168542 
L 514.406 44.164945 
" clip-path="url(#p758ab26049)" style="fill: none; stroke: #303030; stroke-width: 4.5; stroke-linecap: square"/>
   </g>
   <g id="patch_3">
    <path d="M 57.26 307.550464 
L 57.26 10.8 
" style="fill: none; stroke: #000000; stroke-width: 0.8; stroke-linejoin: miter; stroke-linecap: square"/>
   </g>
   <g id="patch_4">
    <path d="M 565.2 307.550464 
L 565.2 10.8 
" style="fill: none; stroke: #000000; stroke-width: 0.8; stroke-linejoin: miter; stroke-linecap: square"/>
   </g>
   <g id="patch_5">
    <path d="M 57.26 307.550464 
L 565.2 307.550464 
" style="fill: none; stroke: #000000; stroke-width: 0.8; stroke-linejoin: miter; stroke-linecap: square"/>
   </g>
   <g id="patch_6">
    <path d="M 57.26 10.8 
L 565.2 10.8 
" style="fill: none; stroke: #000000; stroke-width: 0.8; stroke-linejoin: miter; stroke-linecap: square"/>
   </g>
   <g id="PathCollection_1">
    <defs>
     <path id="m8ab966743d" d="M 0 1.5 
C 0.397805 1.5 0.77937 1.341951 1.06066 1.06066 
C 1.341951 0.77937 1.5 0.397805 1.5 0 
C 1.5 -0.397805 1.341951 -0.77937 1.06066 -1.06066 
C 0.77937 -1.341951 0.397805 -1.5 0 -1.5 
C -0.397805 -1.5 -0.77937 -1.341951 -1.06066 -1.06066 
C -1.341951 -0.77937 -1.5 -0.397805 -1.5 0 
C -1.5 0.397805 -1.341951 0.77937 -1.06066 1.06066 
C -0.77937 1.341951 -0.397805 1.5 0 1.5 
z
" style="stroke: #303030"/>
    </defs>
    <g clip-path="url(#p758ab26049)">
     <use xlink:href="#m8ab966743d" x="108.054" y="94.237372" style="fill: #ffffff; stroke: #303030"/>
    </g>
   </g>
   <g id="PathCollection_2">
    <g clip-path="url(#p758ab26049)">
     <use xlink:href="#m8ab966743d" x="209.642" y="51.691723" style="fill: #ffffff; stroke: #303030"/>
    </g>
   </g>
   <g id="PathCollection_3">
    <g clip-path="url(#p758ab26049)">
     <use xlink:href="#m8ab966743d" x="311.23" y="281.237437" style="fill: #ffffff; stroke: #303030"/>
    </g>
   </g>
   <g id="PathCollection_4">
    <g clip-path="url(#p758ab26049)">
     <use xlink:href="#m8ab966743d" x="412.818" y="33.118752" style="fill: #ffffff; stroke: #303030"/>
    </g>
   </g>
   <g id="PathCollection_5">
    <g clip-path="url(#p758ab26049)">
     <use xlink:href="#m8ab966743d" x="514.406" y="46.116747" style="fill: #ffffff; stroke: #303030"/>
    </g>
   </g>
  </g>
 </g>
 <defs>
  <clipPath id="p758ab26049">
   <rect x="57.26" y="10.8" width="507.94" height="296.750464"/>
  </clipPath>
 </defs>
</svg>
