<?xml version="1.0" encoding="utf-8" standalone="no"?>
<!DOCTYPE svg PUBLIC "-//W3C//DTD SVG 1.1//EN"
  "http://www.w3.org/Graphics/SVG/1.1/DTD/svg11.dtd">
<svg xmlns:xlink="http://www.w3.org/1999/xlink" width="576pt" height="360pt" viewBox="0 0 576 360" xmlns="http://www.w3.org/2000/svg" version="1.1">
 <metadata>
  <rdf:RDF xmlns:dc="http://purl.org/dc/elements/1.1/" xmlns:cc="http://creativecommons.org/ns#" xmlns:rdf="http://www.w3.org/1999/02/22-rdf-syntax-ns#">
   <cc:Work>
    <dc:type rdf:resource="http://purl.org/dc/dcmitype/StillImage"/>
    <dc:date>2026-01-20T07:59:40.036261</dc:date>
    <dc:format>image/svg+xml</dc:format>
    <dc:creator>
     <cc:Agent>
      <dc:title>Matplotlib v3.10.0, https://matplotlib.org/</dc:title>
     </cc:Agent>
    </dc:creator>
   </cc:Work>
  </rdf:RDF>
 </metadata>
 <defs>
  <style type="text/css">*{stroke-linejoin: round; stroke-linecap: butt}</style>
 </defs>
 <g id="figure_1">
  <g id="patch_1">
   <path d="M 0 360 
L 576 360 
L 576 0 
L 0 0 
z
" style="fill: #ffffff"/>
  </g>
  <g id="axes_1">
   <g id="patch_2">
    <path d="M 51.275 307.550464 
L 565.2 307.550464 
L 565.2 10.8 
L 51.275 10.8 
z
" style="fill: #ffffff"/>
   </g>
   <g id="FillBetweenPolyCollection_1">
    <defs>
     <path id="mafe7bbdc64" d="M 103.249923 -94.580197 
L 102.085077 -94.580197 
L 101.913863 -95.050438 
L 101.706339 -95.520679 
L 101.459195 -95.99092 
L 101.170085 -96.46116 
L 100.837978 -96.931401 
L 100.463499 -97.401642 
L 100.049192 -97.871882 
L 99.599696 -98.342123 
L 99.12178 -98.812364 
L 98.624226 -99.282604 
L 98.117525 -99.752845 
L 97.61342 -100.223086 
L 97.124282 -100.693326 
L 96.66238 -101.163567 
L 96.239073 -101.633808 
L 95.864005 -102.104049 
L 95.54434 -102.574289 
L 95.28411 -103.04453 
L 95.083722 -103.514771 
L 94.939655 -103.985011 
L 94.844372 -104.455252 
L 94.786446 -104.925493 
L 94.750882 -105.395733 
L 94.71962 -105.865974 
L 94.672175 -106.336215 
L 94.586379 -106.806455 
L 94.439193 -107.276696 
L 94.207539 -107.746937 
L 93.869148 -108.217177 
L 93.403384 -108.687418 
L 92.792043 -109.157659 
L 92.020108 -109.6279 
L 91.076469 -110.09814 
L 89.954571 -110.568381 
L 88.653009 -111.038622 
L 87.176015 -111.508862 
L 85.533818 -111.979103 
L 83.742839 -112.449344 
L 81.825666 -112.919584 
L 79.810763 -113.389825 
L 77.731882 -113.860066 
L 75.627156 -114.330306 
L 73.537869 -114.800547 
L 71.506952 -115.270788 
L 69.577257 -115.741028 
L 67.789721 -116.211269 
L 66.181529 -116.68151 
L 64.784426 -117.151751 
L 63.623305 -117.621991 
L 62.715187 -118.092232 
L 62.068689 -118.562473 
L 61.68402 -119.032713 
L 61.5535 -119.502954 
L 61.662548 -119.973195 
L 61.991038 -120.443435 
L 62.514897 -120.913676 
L 63.207785 -121.383917 
L 64.042723 -121.854157 
L 64.993529 -122.324398 
L 66.035973 -122.794639 
L 67.148585 -123.26488 
L 68.31311 -123.73512 
L 69.514633 -124.205361 
L 70.741426 -124.675602 
L 71.984594 -125.145842 
L 73.237615 -125.616083 
L 74.495819 -126.086324 
L 75.755902 -126.556564 
L 77.015491 -127.026805 
L 78.272791 -127.497046 
L 79.526315 -127.967286 
L 80.774687 -128.437527 
L 82.016486 -128.907768 
L 83.250139 -129.378008 
L 84.473818 -129.848249 
L 85.685355 -130.31849 
L 86.882165 -130.788731 
L 88.061178 -131.258971 
L 89.218808 -131.729212 
L 90.350947 -132.199453 
L 91.453009 -132.669693 
L 92.520031 -133.139934 
L 93.54681 -133.610175 
L 94.528094 -134.080415 
L 95.458801 -134.550656 
L 96.334244 -135.020897 
L 97.150366 -135.491137 
L 97.903943 -135.961378 
L 98.592748 -136.431619 
L 99.215668 -136.901859 
L 99.772755 -137.3721 
L 100.265222 -137.842341 
L 100.695369 -138.312582 
L 101.066457 -138.782822 
L 101.382549 -139.253063 
L 101.648306 -139.723304 
L 101.868788 -140.193544 
L 102.04924 -140.663785 
L 102.194902 -141.134026 
L 103.140098 -141.134026 
L 103.140098 -141.134026 
L 103.28576 -140.663785 
L 103.466212 -140.193544 
L 103.686694 -139.723304 
L 103.952451 -139.253063 
L 104.268543 -138.782822 
L 104.639631 -138.312582 
L 105.069778 -137.842341 
L 105.562245 -137.3721 
L 106.119332 -136.901859 
L 106.742252 -136.431619 
L 107.431057 -135.961378 
L 108.184634 -135.491137 
L 109.000756 -135.020897 
L 109.876199 -134.550656 
L 110.806906 -134.080415 
L 111.78819 -133.610175 
L 112.814969 -133.139934 
L 113.881991 -132.669693 
L 114.984053 -132.199453 
L 116.116192 -131.729212 
L 117.273822 -131.258971 
L 118.452835 -130.788731 
L 119.649645 -130.31849 
L 120.861182 -129.848249 
L 122.084861 -129.378008 
L 123.318514 -128.907768 
L 124.560313 -128.437527 
L 125.808685 -127.967286 
L 127.062209 -127.497046 
L 128.319509 -127.026805 
L 129.579098 -126.556564 
L 130.839181 -126.086324 
L 132.097385 -125.616083 
L 133.350406 -125.145842 
L 134.593574 -124.675602 
L 135.820367 -124.205361 
L 137.02189 -123.73512 
L 138.186415 -123.26488 
L 139.299027 -122.794639 
L 140.341471 -122.324398 
L 141.292277 -121.854157 
L 142.127215 -121.383917 
L 142.820103 -120.913676 
L 143.343962 -120.443435 
L 143.672452 -119.973195 
L 143.7815 -119.502954 
L 143.65098 -119.032713 
L 143.266311 -118.562473 
L 142.619813 -118.092232 
L 141.711695 -117.621991 
L 140.550574 -117.151751 
L 139.153471 -116.68151 
L 137.545279 -116.211269 
L 135.757743 -115.741028 
L 133.828048 -115.270788 
L 131.797131 -114.800547 
L 129.707844 -114.330306 
L 127.603118 -113.860066 
L 125.524237 -113.389825 
L 123.509334 -112.919584 
L 121.592161 -112.449344 
L 119.801182 -111.979103 
L 118.158985 -111.508862 
L 116.681991 -111.038622 
L 115.380429 -110.568381 
L 114.258531 -110.09814 
L 113.314892 -109.6279 
L 112.542957 -109.157659 
L 111.931616 -108.687418 
L 111.465852 -108.217177 
L 111.127461 -107.746937 
L 110.895807 -107.276696 
L 110.748621 -106.806455 
L 110.662825 -106.336215 
L 110.61538 -105.865974 
L 110.584118 -105.395733 
L 110.548554 -104.925493 
L 110.490628 -104.455252 
L 110.395345 -103.985011 
L 110.251278 -103.514771 
L 110.05089 -103.04453 
L 109.79066 -102.574289 
L 109.470995 -102.104049 
L 109.095927 -101.633808 
L 108.67262 -101.163567 
L 108.210718 -100.693326 
L 107.72158 -100.223086 
L 107.217475 -99.752845 
L 106.710774 -99.282604 
L 106.21322 -98.812364 
L 105.735304 -98.342123 
L 105.285808 -97.871882 
L 104.871501 -97.401642 
L 104.497022 -96.931401 
L 104.164915 -96.46116 
L 103.875805 -95.99092 
L 103.628661 -95.520679 
L 103.421137 -95.050438 
L 103.249923 -94.580197 
z
" style="stroke: #303030; stroke-width: 1.5"/>
    </defs>
    <g clip-path="url(#p61c2eb901a)">
     <use xlink:href="#mafe7bbdc64" x="0" y="360" style="fill: #176d9c; stroke: #303030; stroke-width: 1.5"/>
    </g>
   </g>
   <g id="FillBetweenPolyCollection_2">
    <defs>
     <path id="m52ee33ccf2" d="M 205.739039 -65.938194 
L 205.165961 -65.938194 
L 205.057726 -67.293563 
L 204.917305 -68.648933 
L 204.738432 -70.004303 
L 204.514721 -71.359673 
L 204.240036 -72.715042 
L 203.908944 -74.070412 
L 203.517205 -75.425782 
L 203.062288 -76.781152 
L 202.543834 -78.136522 
L 201.964024 -79.491891 
L 201.327789 -80.847261 
L 200.64282 -82.202631 
L 199.919324 -83.558001 
L 199.169556 -84.91337 
L 198.407106 -86.26874 
L 197.646034 -87.62411 
L 196.899911 -88.97948 
L 196.180872 -90.334849 
L 195.498805 -91.690219 
L 194.860754 -93.045589 
L 194.270643 -94.400959 
L 193.729346 -95.756329 
L 193.235112 -97.111698 
L 192.784299 -98.467068 
L 192.372327 -99.822438 
L 191.994717 -101.177808 
L 191.648088 -102.533177 
L 191.330958 -103.888547 
L 191.044242 -105.243917 
L 190.791355 -106.599287 
L 190.577914 -107.954657 
L 190.411056 -109.310026 
L 190.298486 -110.665396 
L 190.247388 -112.020766 
L 190.263372 -113.376136 
L 190.349626 -114.731505 
L 190.506419 -116.086875 
L 190.731035 -117.442245 
L 191.018162 -118.797615 
L 191.36066 -120.152985 
L 191.750594 -121.508354 
L 192.180326 -122.863724 
L 192.643494 -124.219094 
L 193.13569 -125.574464 
L 193.654717 -126.929833 
L 194.200387 -128.285203 
L 194.773891 -129.640573 
L 195.376872 -130.995943 
L 196.010364 -132.351313 
L 196.673791 -133.706682 
L 197.364203 -135.062052 
L 198.07588 -136.417422 
L 198.800364 -137.772792 
L 199.5269 -139.128161 
L 200.243224 -140.483531 
L 200.93655 -141.838901 
L 201.594612 -143.194271 
L 202.206625 -144.549641 
L 202.764029 -145.90501 
L 203.26096 -147.26038 
L 203.694404 -148.61575 
L 204.064064 -149.97112 
L 204.371998 -151.326489 
L 204.622091 -152.681859 
L 204.819459 -154.037229 
L 204.969854 -155.392599 
L 205.079147 -156.747968 
L 205.152918 -158.103338 
L 205.196183 -159.458708 
L 205.213271 -160.814078 
L 205.207822 -162.169448 
L 205.182897 -163.524817 
L 205.141153 -164.880187 
L 205.085067 -166.235557 
L 205.017153 -167.590927 
L 204.940146 -168.946296 
L 204.857128 -170.301666 
L 204.771571 -171.657036 
L 204.687286 -173.012406 
L 204.60828 -174.367776 
L 204.538543 -175.723145 
L 204.48178 -177.078515 
L 204.441133 -178.433885 
L 204.418921 -179.789255 
L 204.416439 -181.144624 
L 204.433845 -182.499994 
L 204.470153 -183.855364 
L 204.523327 -185.210734 
L 204.59047 -186.566104 
L 204.668094 -187.921473 
L 204.752413 -189.276843 
L 204.839648 -190.632213 
L 204.926299 -191.987583 
L 205.009361 -193.342952 
L 205.086466 -194.698322 
L 205.155952 -196.053692 
L 205.216854 -197.409062 
L 205.268838 -198.764432 
L 205.312099 -200.119801 
L 205.592901 -200.119801 
L 205.592901 -200.119801 
L 205.636162 -198.764432 
L 205.688146 -197.409062 
L 205.749048 -196.053692 
L 205.818534 -194.698322 
L 205.895639 -193.342952 
L 205.978701 -191.987583 
L 206.065352 -190.632213 
L 206.152587 -189.276843 
L 206.236906 -187.921473 
L 206.31453 -186.566104 
L 206.381673 -185.210734 
L 206.434847 -183.855364 
L 206.471155 -182.499994 
L 206.488561 -181.144624 
L 206.486079 -179.789255 
L 206.463867 -178.433885 
L 206.42322 -177.078515 
L 206.366457 -175.723145 
L 206.29672 -174.367776 
L 206.217714 -173.012406 
L 206.133429 -171.657036 
L 206.047872 -170.301666 
L 205.964854 -168.946296 
L 205.887847 -167.590927 
L 205.819933 -166.235557 
L 205.763847 -164.880187 
L 205.722103 -163.524817 
L 205.697178 -162.169448 
L 205.691729 -160.814078 
L 205.708817 -159.458708 
L 205.752082 -158.103338 
L 205.825853 -156.747968 
L 205.935146 -155.392599 
L 206.085541 -154.037229 
L 206.282909 -152.681859 
L 206.533002 -151.326489 
L 206.840936 -149.97112 
L 207.210596 -148.61575 
L 207.64404 -147.26038 
L 208.140971 -145.90501 
L 208.698375 -144.549641 
L 209.310388 -143.194271 
L 209.96845 -141.838901 
L 210.661776 -140.483531 
L 211.3781 -139.128161 
L 212.104636 -137.772792 
L 212.82912 -136.417422 
L 213.540797 -135.062052 
L 214.231209 -133.706682 
L 214.894636 -132.351313 
L 215.528128 -130.995943 
L 216.131109 -129.640573 
L 216.704613 -128.285203 
L 217.250283 -126.929833 
L 217.76931 -125.574464 
L 218.261506 -124.219094 
L 218.724674 -122.863724 
L 219.154406 -121.508354 
L 219.54434 -120.152985 
L 219.886838 -118.797615 
L 220.173965 -117.442245 
L 220.398581 -116.086875 
L 220.555374 -114.731505 
L 220.641628 -113.376136 
L 220.657612 -112.020766 
L 220.606514 -110.665396 
L 220.493944 -109.310026 
L 220.327086 -107.954657 
L 220.113645 -106.599287 
L 219.860758 -105.243917 
L 219.574042 -103.888547 
L 219.256912 -102.533177 
L 218.910283 -101.177808 
L 218.532673 -99.822438 
L 218.120701 -98.467068 
L 217.669888 -97.111698 
L 217.175654 -95.756329 
L 216.634357 -94.400959 
L 216.044246 -93.045589 
L 215.406195 -91.690219 
L 214.724128 -90.334849 
L 214.005089 -88.97948 
L 213.258966 -87.62411 
L 212.497894 -86.26874 
L 211.735444 -84.91337 
L 210.985676 -83.558001 
L 210.26218 -82.202631 
L 209.577211 -80.847261 
L 208.940976 -79.491891 
L 208.361166 -78.136522 
L 207.842712 -76.781152 
L 207.387795 -75.425782 
L 206.996056 -74.070412 
L 206.664964 -72.715042 
L 206.390279 -71.359673 
L 206.166568 -70.004303 
L 205.987695 -68.648933 
L 205.847274 -67.293563 
L 205.739039 -65.938194 
z
" style="stroke: #303030; stroke-width: 1.5"/>
    </defs>
    <g clip-path="url(#p61c2eb901a)">
     <use xlink:href="#m52ee33ccf2" x="0" y="360" style="fill: #c38820; stroke: #303030; stroke-width: 1.5"/>
    </g>
   </g>
   <g id="FillBetweenPolyCollection_3">
    <defs>
     <path id="mc9d8b2fd43" d="M 308.683942 -116.851666 
L 307.791058 -116.851666 
L 307.678095 -117.685795 
L 307.542598 -118.519925 
L 307.381696 -119.354055 
L 307.192546 -120.188184 
L 306.972445 -121.022314 
L 306.71895 -121.856444 
L 306.430024 -122.690573 
L 306.104173 -123.524703 
L 305.740604 -124.358833 
L 305.339366 -125.192962 
L 304.901478 -126.027092 
L 304.429044 -126.861222 
L 303.925318 -127.695351 
L 303.394747 -128.529481 
L 302.842951 -129.363611 
L 302.276649 -130.19774 
L 301.703537 -131.03187 
L 301.132096 -131.866 
L 300.571352 -132.700129 
L 300.030586 -133.534259 
L 299.519006 -134.368389 
L 299.045405 -135.202518 
L 298.617799 -136.036648 
L 298.243093 -136.870778 
L 297.926765 -137.704907 
L 297.672611 -138.539037 
L 297.482543 -139.373167 
L 297.356478 -140.207296 
L 297.292298 -141.041426 
L 297.28591 -141.875556 
L 297.331384 -142.709685 
L 297.421173 -143.543815 
L 297.546398 -144.377945 
L 297.697185 -145.212074 
L 297.863028 -146.046204 
L 298.033173 -146.880334 
L 298.196991 -147.714463 
L 298.344331 -148.548593 
L 298.465833 -149.382723 
L 298.553199 -150.216852 
L 298.599405 -151.050982 
L 298.598862 -151.885112 
L 298.547517 -152.719241 
L 298.442902 -153.553371 
L 298.284142 -154.387501 
L 298.071912 -155.22163 
L 297.808364 -156.05576 
L 297.497023 -156.88989 
L 297.142658 -157.724019 
L 296.751125 -158.558149 
L 296.329204 -159.392279 
L 295.884402 -160.226408 
L 295.424762 -161.060538 
L 294.958651 -161.894668 
L 294.494549 -162.728797 
L 294.040844 -163.562927 
L 293.605634 -164.397057 
L 293.196553 -165.231186 
L 292.820622 -166.065316 
L 292.484131 -166.899446 
L 292.192564 -167.733575 
L 291.950562 -168.567705 
L 291.761925 -169.401835 
L 291.629648 -170.235964 
L 291.555982 -171.070094 
L 291.542512 -171.904224 
L 291.59024 -172.738353 
L 291.699662 -173.572483 
L 291.87082 -174.406613 
L 292.103342 -175.240742 
L 292.39644 -176.074872 
L 292.748886 -176.909002 
L 293.158962 -177.743132 
L 293.624389 -178.577261 
L 294.142248 -179.411391 
L 294.708915 -180.245521 
L 295.320005 -181.07965 
L 295.970346 -181.91378 
L 296.654001 -182.74791 
L 297.364324 -183.582039 
L 298.094068 -184.416169 
L 298.835537 -185.250299 
L 299.580773 -186.084428 
L 300.321768 -186.918558 
L 301.050697 -187.752688 
L 301.760138 -188.586817 
L 302.443292 -189.420947 
L 303.094167 -190.255077 
L 303.707724 -191.089206 
L 304.279988 -191.923336 
L 304.808097 -192.757466 
L 305.290314 -193.591595 
L 305.725982 -194.425725 
L 306.115449 -195.259855 
L 306.459952 -196.093984 
L 306.761483 -196.928114 
L 307.022633 -197.762244 
L 307.246444 -198.596373 
L 307.436249 -199.430503 
L 309.038751 -199.430503 
L 309.038751 -199.430503 
L 309.228556 -198.596373 
L 309.452367 -197.762244 
L 309.713517 -196.928114 
L 310.015048 -196.093984 
L 310.359551 -195.259855 
L 310.749018 -194.425725 
L 311.184686 -193.591595 
L 311.666903 -192.757466 
L 312.195012 -191.923336 
L 312.767276 -191.089206 
L 313.380833 -190.255077 
L 314.031708 -189.420947 
L 314.714862 -188.586817 
L 315.424303 -187.752688 
L 316.153232 -186.918558 
L 316.894227 -186.084428 
L 317.639463 -185.250299 
L 318.380932 -184.416169 
L 319.110676 -183.582039 
L 319.820999 -182.74791 
L 320.504654 -181.91378 
L 321.154995 -181.07965 
L 321.766085 -180.245521 
L 322.332752 -179.411391 
L 322.850611 -178.577261 
L 323.316038 -177.743132 
L 323.726114 -176.909002 
L 324.07856 -176.074872 
L 324.371658 -175.240742 
L 324.60418 -174.406613 
L 324.775338 -173.572483 
L 324.88476 -172.738353 
L 324.932488 -171.904224 
L 324.919018 -171.070094 
L 324.845352 -170.235964 
L 324.713075 -169.401835 
L 324.524438 -168.567705 
L 324.282436 -167.733575 
L 323.990869 -166.899446 
L 323.654378 -166.065316 
L 323.278447 -165.231186 
L 322.869366 -164.397057 
L 322.434156 -163.562927 
L 321.980451 -162.728797 
L 321.516349 -161.894668 
L 321.050238 -161.060538 
L 320.590598 -160.226408 
L 320.145796 -159.392279 
L 319.723875 -158.558149 
L 319.332342 -157.724019 
L 318.977977 -156.88989 
L 318.666636 -156.05576 
L 318.403088 -155.22163 
L 318.190858 -154.387501 
L 318.032098 -153.553371 
L 317.927483 -152.719241 
L 317.876138 -151.885112 
L 317.875595 -151.050982 
L 317.921801 -150.216852 
L 318.009167 -149.382723 
L 318.130669 -148.548593 
L 318.278009 -147.714463 
L 318.441827 -146.880334 
L 318.611972 -146.046204 
L 318.777815 -145.212074 
L 318.928602 -144.377945 
L 319.053827 -143.543815 
L 319.143616 -142.709685 
L 319.18909 -141.875556 
L 319.182702 -141.041426 
L 319.118522 -140.207296 
L 318.992457 -139.373167 
L 318.802389 -138.539037 
L 318.548235 -137.704907 
L 318.231907 -136.870778 
L 317.857201 -136.036648 
L 317.429595 -135.202518 
L 316.955994 -134.368389 
L 316.444414 -133.534259 
L 315.903648 -132.700129 
L 315.342904 -131.866 
L 314.771463 -131.03187 
L 314.198351 -130.19774 
L 313.632049 -129.363611 
L 313.080253 -128.529481 
L 312.549682 -127.695351 
L 312.045956 -126.861222 
L 311.573522 -126.027092 
L 311.135634 -125.192962 
L 310.734396 -124.358833 
L 310.370827 -123.524703 
L 310.044976 -122.690573 
L 309.75605 -121.856444 
L 309.502555 -121.022314 
L 309.282454 -120.188184 
L 309.093304 -119.354055 
L 308.932402 -118.519925 
L 308.796905 -117.685795 
L 308.683942 -116.851666 
z
" style="stroke: #303030; stroke-width: 1.5"/>
    </defs>
    <g clip-path="url(#p61c2eb901a)">
     <use xlink:href="#mc9d8b2fd43" x="0" y="360" style="fill: #158b6a; stroke: #303030; stroke-width: 1.5"/>
    </g>
   </g>
   <g id="FillBetweenPolyCollection_4">
    <defs>
     <path id="m9c6495fc7a" d="M 411.229544 -127.058 
L 410.815456 -127.058 
L 410.749412 -129.165609 
L 410.66688 -131.273219 
L 410.565258 -133.380828 
L 410.441975 -135.488438 
L 410.294639 -137.596047 
L 410.1212 -139.703657 
L 409.920133 -141.811266 
L 409.690621 -143.918876 
L 409.432729 -146.026485 
L 409.147546 -148.134095 
L 408.837294 -150.241704 
L 408.505358 -152.349314 
L 408.156263 -154.456923 
L 407.79555 -156.564533 
L 407.429586 -158.672142 
L 407.065286 -160.779752 
L 406.709775 -162.887362 
L 406.370019 -164.994971 
L 406.05243 -167.102581 
L 405.7625 -169.21019 
L 405.504486 -171.3178 
L 405.281166 -173.425409 
L 405.09371 -175.533019 
L 404.941652 -177.640628 
L 404.822986 -179.748238 
L 404.734371 -181.855847 
L 404.671415 -183.963457 
L 404.629023 -186.071066 
L 404.601776 -188.178676 
L 404.58429 -190.286285 
L 404.571551 -192.393895 
L 404.559178 -194.501504 
L 404.543612 -196.609114 
L 404.522225 -198.716723 
L 404.49334 -200.824333 
L 404.456193 -202.931942 
L 404.410842 -205.039552 
L 404.358045 -207.147162 
L 404.299125 -209.254771 
L 404.235845 -211.362381 
L 404.170299 -213.46999 
L 404.104824 -215.5776 
L 404.041942 -217.685209 
L 403.984312 -219.792819 
L 403.934708 -221.900428 
L 403.89599 -224.008038 
L 403.871081 -226.115647 
L 403.862924 -228.223257 
L 403.874432 -230.330866 
L 403.908407 -232.438476 
L 403.967456 -234.546085 
L 404.053879 -236.653695 
L 404.169553 -238.761304 
L 404.315814 -240.868914 
L 404.493338 -242.976523 
L 404.702048 -245.084133 
L 404.941025 -247.191743 
L 405.208474 -249.299352 
L 405.501704 -251.406962 
L 405.817172 -253.514571 
L 406.150556 -255.622181 
L 406.496885 -257.72979 
L 406.850704 -259.8374 
L 407.206269 -261.945009 
L 407.557775 -264.052619 
L 407.899585 -266.160228 
L 408.226461 -268.267838 
L 408.533777 -270.375447 
L 408.817701 -272.483057 
L 409.075333 -274.590666 
L 409.304804 -276.698276 
L 409.505304 -278.805885 
L 409.677069 -280.913495 
L 409.821303 -283.021104 
L 409.94006 -285.128714 
L 410.03608 -287.236323 
L 410.112604 -289.343933 
L 410.173167 -291.451543 
L 410.221391 -293.559152 
L 410.260789 -295.666762 
L 410.294595 -297.774371 
L 410.325618 -299.881981 
L 410.356147 -301.98959 
L 410.387885 -304.0972 
L 410.421947 -306.204809 
L 410.458874 -308.312419 
L 410.498706 -310.420028 
L 410.541061 -312.527638 
L 410.585246 -314.635247 
L 410.630365 -316.742857 
L 410.675429 -318.850466 
L 410.719453 -320.958076 
L 410.761535 -323.065685 
L 410.800914 -325.173295 
L 410.837011 -327.280904 
L 410.869442 -329.388514 
L 410.898015 -331.496123 
L 410.922713 -333.603733 
L 410.943668 -335.711343 
L 411.101332 -335.711343 
L 411.101332 -335.711343 
L 411.122287 -333.603733 
L 411.146985 -331.496123 
L 411.175558 -329.388514 
L 411.207989 -327.280904 
L 411.244086 -325.173295 
L 411.283465 -323.065685 
L 411.325547 -320.958076 
L 411.369571 -318.850466 
L 411.414635 -316.742857 
L 411.459754 -314.635247 
L 411.503939 -312.527638 
L 411.546294 -310.420028 
L 411.586126 -308.312419 
L 411.623053 -306.204809 
L 411.657115 -304.0972 
L 411.688853 -301.98959 
L 411.719382 -299.881981 
L 411.750405 -297.774371 
L 411.784211 -295.666762 
L 411.823609 -293.559152 
L 411.871833 -291.451543 
L 411.932396 -289.343933 
L 412.00892 -287.236323 
L 412.10494 -285.128714 
L 412.223697 -283.021104 
L 412.367931 -280.913495 
L 412.539696 -278.805885 
L 412.740196 -276.698276 
L 412.969667 -274.590666 
L 413.227299 -272.483057 
L 413.511223 -270.375447 
L 413.818539 -268.267838 
L 414.145415 -266.160228 
L 414.487225 -264.052619 
L 414.838731 -261.945009 
L 415.194296 -259.8374 
L 415.548115 -257.72979 
L 415.894444 -255.622181 
L 416.227828 -253.514571 
L 416.543296 -251.406962 
L 416.836526 -249.299352 
L 417.103975 -247.191743 
L 417.342952 -245.084133 
L 417.551662 -242.976523 
L 417.729186 -240.868914 
L 417.875447 -238.761304 
L 417.991121 -236.653695 
L 418.077544 -234.546085 
L 418.136593 -232.438476 
L 418.170568 -230.330866 
L 418.182076 -228.223257 
L 418.173919 -226.115647 
L 418.14901 -224.008038 
L 418.110292 -221.900428 
L 418.060688 -219.792819 
L 418.003058 -217.685209 
L 417.940176 -215.5776 
L 417.874701 -213.46999 
L 417.809155 -211.362381 
L 417.745875 -209.254771 
L 417.686955 -207.147162 
L 417.634158 -205.039552 
L 417.588807 -202.931942 
L 417.55166 -200.824333 
L 417.522775 -198.716723 
L 417.501388 -196.609114 
L 417.485822 -194.501504 
L 417.473449 -192.393895 
L 417.46071 -190.286285 
L 417.443224 -188.178676 
L 417.415977 -186.071066 
L 417.373585 -183.963457 
L 417.310629 -181.855847 
L 417.222014 -179.748238 
L 417.103348 -177.640628 
L 416.95129 -175.533019 
L 416.763834 -173.425409 
L 416.540514 -171.3178 
L 416.2825 -169.21019 
L 415.99257 -167.102581 
L 415.674981 -164.994971 
L 415.335225 -162.887362 
L 414.979714 -160.779752 
L 414.615414 -158.672142 
L 414.24945 -156.564533 
L 413.888737 -154.456923 
L 413.539642 -152.349314 
L 413.207706 -150.241704 
L 412.897454 -148.134095 
L 412.612271 -146.026485 
L 412.354379 -143.918876 
L 412.124867 -141.811266 
L 411.9238 -139.703657 
L 411.750361 -137.596047 
L 411.603025 -135.488438 
L 411.479742 -133.380828 
L 411.37812 -131.273219 
L 411.295588 -129.165609 
L 411.229544 -127.058 
z
" style="stroke: #303030; stroke-width: 1.5"/>
    </defs>
    <g clip-path="url(#p61c2eb901a)">
     <use xlink:href="#m9c6495fc7a" x="0" y="360" style="fill: #ba611b; stroke: #303030; stroke-width: 1.5"/>
    </g>
   </g>
   <g id="FillBetweenPolyCollection_5">
    <defs>
     <path id="mf17d3208b8" d="M 514.173071 -154.530021 
L 513.441929 -154.530021 
L 513.356384 -155.934673 
L 513.25647 -157.339326 
L 513.1412 -158.743978 
L 513.009849 -160.148631 
L 512.862016 -161.553283 
L 512.697683 -162.957935 
L 512.517259 -164.362588 
L 512.321597 -165.76724 
L 512.111993 -167.171892 
L 511.890149 -168.576545 
L 511.658113 -169.981197 
L 511.418181 -171.385849 
L 511.172792 -172.790502 
L 510.924388 -174.195154 
L 510.67528 -175.599806 
L 510.427516 -177.004459 
L 510.182768 -178.409111 
L 509.942237 -179.813763 
L 509.706615 -181.218416 
L 509.476073 -182.623068 
L 509.250309 -184.02772 
L 509.02864 -185.432373 
L 508.810131 -186.837025 
L 508.593758 -188.241677 
L 508.378589 -189.64633 
L 508.163954 -191.050982 
L 507.949614 -192.455635 
L 507.735881 -193.860287 
L 507.523702 -195.264939 
L 507.314681 -196.669592 
L 507.11104 -198.074244 
L 506.915517 -199.478896 
L 506.731216 -200.883549 
L 506.561403 -202.288201 
L 506.40928 -203.692853 
L 506.277747 -205.097506 
L 506.169167 -206.502158 
L 506.085157 -207.90681 
L 506.026426 -209.311463 
L 505.992655 -210.716115 
L 505.982449 -212.120767 
L 505.993346 -213.52542 
L 506.021892 -214.930072 
L 506.06378 -216.334724 
L 506.11403 -217.739377 
L 506.167212 -219.144029 
L 506.217699 -220.548682 
L 506.259918 -221.953334 
L 506.288618 -223.357986 
L 506.299111 -224.762639 
L 506.287492 -226.167291 
L 506.25083 -227.571943 
L 506.187319 -228.976596 
L 506.09638 -230.381248 
L 505.97872 -231.7859 
L 505.836344 -233.190553 
L 505.672514 -234.595205 
L 505.491669 -235.999857 
L 505.299289 -237.40451 
L 505.101732 -238.809162 
L 504.906024 -240.213814 
L 504.71963 -241.618467 
L 504.5502 -243.023119 
L 504.405296 -244.427771 
L 504.292131 -245.832424 
L 504.217298 -247.237076 
L 504.186537 -248.641729 
L 504.204511 -250.046381 
L 504.274638 -251.451033 
L 504.398958 -252.855686 
L 504.578061 -254.260338 
L 504.811065 -255.66499 
L 505.095655 -257.069643 
L 505.42818 -258.474295 
L 505.803794 -259.878947 
L 506.216648 -261.2836 
L 506.660105 -262.688252 
L 507.126989 -264.092904 
L 507.609837 -265.497557 
L 508.101146 -266.902209 
L 508.593618 -268.306861 
L 509.080371 -269.711514 
L 509.555125 -271.116166 
L 510.012344 -272.520818 
L 510.447352 -273.925471 
L 510.856383 -275.330123 
L 511.236619 -276.734775 
L 511.586162 -278.139428 
L 511.903995 -279.54408 
L 512.189905 -280.948733 
L 512.444387 -282.353385 
L 512.668535 -283.758037 
L 512.863928 -285.16269 
L 513.032509 -286.567342 
L 513.176477 -287.971994 
L 513.298181 -289.376647 
L 513.400023 -290.781299 
L 513.484387 -292.185951 
L 513.553569 -293.590604 
L 514.061431 -293.590604 
L 514.061431 -293.590604 
L 514.130613 -292.185951 
L 514.214977 -290.781299 
L 514.316819 -289.376647 
L 514.438523 -287.971994 
L 514.582491 -286.567342 
L 514.751072 -285.16269 
L 514.946465 -283.758037 
L 515.170613 -282.353385 
L 515.425095 -280.948733 
L 515.711005 -279.54408 
L 516.028838 -278.139428 
L 516.378381 -276.734775 
L 516.758617 -275.330123 
L 517.167648 -273.925471 
L 517.602656 -272.520818 
L 518.059875 -271.116166 
L 518.534629 -269.711514 
L 519.021382 -268.306861 
L 519.513854 -266.902209 
L 520.005163 -265.497557 
L 520.488011 -264.092904 
L 520.954895 -262.688252 
L 521.398352 -261.2836 
L 521.811206 -259.878947 
L 522.18682 -258.474295 
L 522.519345 -257.069643 
L 522.803935 -255.66499 
L 523.036939 -254.260338 
L 523.216042 -252.855686 
L 523.340362 -251.451033 
L 523.410489 -250.046381 
L 523.428463 -248.641729 
L 523.397702 -247.237076 
L 523.322869 -245.832424 
L 523.209704 -244.427771 
L 523.0648 -243.023119 
L 522.89537 -241.618467 
L 522.708976 -240.213814 
L 522.513268 -238.809162 
L 522.315711 -237.40451 
L 522.123331 -235.999857 
L 521.942486 -234.595205 
L 521.778656 -233.190553 
L 521.63628 -231.7859 
L 521.51862 -230.381248 
L 521.427681 -228.976596 
L 521.36417 -227.571943 
L 521.327508 -226.167291 
L 521.315889 -224.762639 
L 521.326382 -223.357986 
L 521.355082 -221.953334 
L 521.397301 -220.548682 
L 521.447788 -219.144029 
L 521.50097 -217.739377 
L 521.55122 -216.334724 
L 521.593108 -214.930072 
L 521.621654 -213.52542 
L 521.632551 -212.120767 
L 521.622345 -210.716115 
L 521.588574 -209.311463 
L 521.529843 -207.90681 
L 521.445833 -206.502158 
L 521.337253 -205.097506 
L 521.20572 -203.692853 
L 521.053597 -202.288201 
L 520.883784 -200.883549 
L 520.699483 -199.478896 
L 520.50396 -198.074244 
L 520.300319 -196.669592 
L 520.091298 -195.264939 
L 519.879119 -193.860287 
L 519.665386 -192.455635 
L 519.451046 -191.050982 
L 519.236411 -189.64633 
L 519.021242 -188.241677 
L 518.804869 -186.837025 
L 518.58636 -185.432373 
L 518.364691 -184.02772 
L 518.138927 -182.623068 
L 517.908385 -181.218416 
L 517.672763 -179.813763 
L 517.432232 -178.409111 
L 517.187484 -177.004459 
L 516.93972 -175.599806 
L 516.690612 -174.195154 
L 516.442208 -172.790502 
L 516.196819 -171.385849 
L 515.956887 -169.981197 
L 515.724851 -168.576545 
L 515.503007 -167.171892 
L 515.293403 -165.76724 
L 515.097741 -164.362588 
L 514.917317 -162.957935 
L 514.752984 -161.553283 
L 514.605151 -160.148631 
L 514.4738 -158.743978 
L 514.35853 -157.339326 
L 514.258616 -155.934673 
L 514.173071 -154.530021 
z
" style="stroke: #303030; stroke-width: 1.5"/>
    </defs>
    <g clip-path="url(#p61c2eb901a)">
     <use xlink:href="#mf17d3208b8" x="0" y="360" style="fill: #c282b5; stroke: #303030; stroke-width: 1.5"/>
    </g>
   </g>
   <g id="matplotlib.axis_1">
    <g id="xtick_1">
     <g id="line2d_1">
      <defs>
       <path id="mf7393a9b42" d="M 0 0 
L 0 3.5 
" style="stroke: #000000; stroke-width: 0.8"/>
      </defs>
      <g>
       <use xlink:href="#mf7393a9b42" x="102.6675" y="307.550464" style="stroke: #000000; stroke-width: 0.8"/>
      </g>
     </g>
     <g id="text_1">
      <!-- Feng Cha -->
      <g transform="translate(83.839703 344.464498) rotate(-30) scale(0.1 -0.1)">
       <defs>
        <path id="DejaVuSans-46" d="M 628 4666 
L 3309 4666 
L 3309 4134 
L 1259 4134 
L 1259 2759 
L 3109 2759 
L 3109 2228 
L 1259 2228 
L 1259 0 
L 628 0 
L 628 4666 
z
" transform="scale(0.015625)"/>
        <path id="DejaVuSans-65" d="M 3597 1894 
L 3597 1613 
L 953 1613 
Q 991 1019 1311 708 
Q 1631 397 2203 397 
Q 2534 397 2845 478 
Q 3156 559 3463 722 
L 3463 178 
Q 3153 47 2828 -22 
Q 2503 -91 2169 -91 
Q 1331 -91 842 396 
Q 353 884 353 1716 
Q 353 2575 817 3079 
Q 1281 3584 2069 3584 
Q 2775 3584 3186 3129 
Q 3597 2675 3597 1894 
z
M 3022 2063 
Q 3016 2534 2758 2815 
Q 2500 3097 2075 3097 
Q 1594 3097 1305 2825 
Q 1016 2553 972 2059 
L 3022 2063 
z
" transform="scale(0.015625)"/>
        <path id="DejaVuSans-6e" d="M 3513 2113 
L 3513 0 
L 2938 0 
L 2938 2094 
Q 2938 2591 2744 2837 
Q 2550 3084 2163 3084 
Q 1697 3084 1428 2787 
Q 1159 2491 1159 1978 
L 1159 0 
L 581 0 
L 581 3500 
L 1159 3500 
L 1159 2956 
Q 1366 3272 1645 3428 
Q 1925 3584 2291 3584 
Q 2894 3584 3203 3211 
Q 3513 2838 3513 2113 
z
" transform="scale(0.015625)"/>
        <path id="DejaVuSans-67" d="M 2906 1791 
Q 2906 2416 2648 2759 
Q 2391 3103 1925 3103 
Q 1463 3103 1205 2759 
Q 947 2416 947 1791 
Q 947 1169 1205 825 
Q 1463 481 1925 481 
Q 2391 481 2648 825 
Q 2906 1169 2906 1791 
z
M 3481 434 
Q 3481 -459 3084 -895 
Q 2688 -1331 1869 -1331 
Q 1566 -1331 1297 -1286 
Q 1028 -1241 775 -1147 
L 775 -588 
Q 1028 -725 1275 -790 
Q 1522 -856 1778 -856 
Q 2344 -856 2625 -561 
Q 2906 -266 2906 331 
L 2906 616 
Q 2728 306 2450 153 
Q 2172 0 1784 0 
Q 1141 0 747 490 
Q 353 981 353 1791 
Q 353 2603 747 3093 
Q 1141 3584 1784 3584 
Q 2172 3584 2450 3431 
Q 2728 3278 2906 2969 
L 2906 3500 
L 3481 3500 
L 3481 434 
z
" transform="scale(0.015625)"/>
        <path id="DejaVuSans-20" transform="scale(0.015625)"/>
        <path id="DejaVuSans-43" d="M 4122 4306 
L 4122 3641 
Q 3803 3938 3442 4084 
Q 3081 4231 2675 4231 
Q 1875 4231 1450 3742 
Q 1025 3253 1025 2328 
Q 1025 1406 1450 917 
Q 1875 428 2675 428 
Q 3081 428 3442 575 
Q 3803 722 4122 1019 
L 4122 359 
Q 3791 134 3420 21 
Q 3050 -91 2638 -91 
Q 1578 -91 968 557 
Q 359 1206 359 2328 
Q 359 3453 968 4101 
Q 1578 4750 2638 4750 
Q 3056 4750 3426 4639 
Q 3797 4528 4122 4306 
z
" transform="scale(0.015625)"/>
        <path id="DejaVuSans-68" d="M 3513 2113 
L 3513 0 
L 2938 0 
L 2938 2094 
Q 2938 2591 2744 2837 
Q 2550 3084 2163 3084 
Q 1697 3084 1428 2787 
Q 1159 2491 1159 1978 
L 1159 0 
L 581 0 
L 581 4863 
L 1159 4863 
L 1159 2956 
Q 1366 3272 1645 3428 
Q 1925 3584 2291 3584 
Q 2894 3584 3203 3211 
Q 3513 2838 3513 2113 
z
" transform="scale(0.015625)"/>
        <path id="DejaVuSans-61" d="M 2194 1759 
Q 1497 1759 1228 1600 
Q 959 1441 959 1056 
Q 959 750 1161 570 
Q 1363 391 1709 391 
Q 2188 391 2477 730 
Q 2766 1069 2766 1631 
L 2766 1759 
L 2194 1759 
z
M 3341 1997 
L 3341 0 
L 2766 0 
L 2766 531 
Q 2569 213 2275 61 
Q 1981 -91 1556 -91 
Q 1019 -91 701 211 
Q 384 513 384 1019 
Q 384 1609 779 1909 
Q 1175 2209 1959 2209 
L 2766 2209 
L 2766 2266 
Q 2766 2663 2505 2880 
Q 2244 3097 1772 3097 
Q 1472 3097 1187 3025 
Q 903 2953 641 2809 
L 641 3341 
Q 956 3463 1253 3523 
Q 1550 3584 1831 3584 
Q 2591 3584 2966 3190 
Q 3341 2797 3341 1997 
z
" transform="scale(0.015625)"/>
       </defs>
       <use xlink:href="#DejaVuSans-46"/>
       <use xlink:href="#DejaVuSans-65" transform="translate(52.019531 0)"/>
       <use xlink:href="#DejaVuSans-6e" transform="translate(113.542969 0)"/>
       <use xlink:href="#DejaVuSans-67" transform="translate(176.921875 0)"/>
       <use xlink:href="#DejaVuSans-20" transform="translate(240.398438 0)"/>
       <use xlink:href="#DejaVuSans-43" transform="translate(272.185547 0)"/>
       <use xlink:href="#DejaVuSans-68" transform="translate(342.009766 0)"/>
       <use xlink:href="#DejaVuSans-61" transform="translate(405.388672 0)"/>
      </g>
     </g>
    </g>
    <g id="xtick_2">
     <g id="line2d_2">
      <g>
       <use xlink:href="#mf7393a9b42" x="205.4525" y="307.550464" style="stroke: #000000; stroke-width: 0.8"/>
      </g>
     </g>
     <g id="text_2">
      <!-- Sharetea -->
      <g transform="translate(187.322936 343.658248) rotate(-30) scale(0.1 -0.1)">
       <defs>
        <path id="DejaVuSans-53" d="M 3425 4513 
L 3425 3897 
Q 3066 4069 2747 4153 
Q 2428 4238 2131 4238 
Q 1616 4238 1336 4038 
Q 1056 3838 1056 3469 
Q 1056 3159 1242 3001 
Q 1428 2844 1947 2747 
L 2328 2669 
Q 3034 2534 3370 2195 
Q 3706 1856 3706 1288 
Q 3706 609 3251 259 
Q 2797 -91 1919 -91 
Q 1588 -91 1214 -16 
Q 841 59 441 206 
L 441 856 
Q 825 641 1194 531 
Q 1563 422 1919 422 
Q 2459 422 2753 634 
Q 3047 847 3047 1241 
Q 3047 1584 2836 1778 
Q 2625 1972 2144 2069 
L 1759 2144 
Q 1053 2284 737 2584 
Q 422 2884 422 3419 
Q 422 4038 858 4394 
Q 1294 4750 2059 4750 
Q 2388 4750 2728 4690 
Q 3069 4631 3425 4513 
z
" transform="scale(0.015625)"/>
        <path id="DejaVuSans-72" d="M 2631 2963 
Q 2534 3019 2420 3045 
Q 2306 3072 2169 3072 
Q 1681 3072 1420 2755 
Q 1159 2438 1159 1844 
L 1159 0 
L 581 0 
L 581 3500 
L 1159 3500 
L 1159 2956 
Q 1341 3275 1631 3429 
Q 1922 3584 2338 3584 
Q 2397 3584 2469 3576 
Q 2541 3569 2628 3553 
L 2631 2963 
z
" transform="scale(0.015625)"/>
        <path id="DejaVuSans-74" d="M 1172 4494 
L 1172 3500 
L 2356 3500 
L 2356 3053 
L 1172 3053 
L 1172 1153 
Q 1172 725 1289 603 
Q 1406 481 1766 481 
L 2356 481 
L 2356 0 
L 1766 0 
Q 1100 0 847 248 
Q 594 497 594 1153 
L 594 3053 
L 172 3053 
L 172 3500 
L 594 3500 
L 594 4494 
L 1172 4494 
z
" transform="scale(0.015625)"/>
       </defs>
       <use xlink:href="#DejaVuSans-53"/>
       <use xlink:href="#DejaVuSans-68" transform="translate(63.476562 0)"/>
       <use xlink:href="#DejaVuSans-61" transform="translate(126.855469 0)"/>
       <use xlink:href="#DejaVuSans-72" transform="translate(188.134766 0)"/>
       <use xlink:href="#DejaVuSans-65" transform="translate(226.998047 0)"/>
       <use xlink:href="#DejaVuSans-74" transform="translate(288.521484 0)"/>
       <use xlink:href="#DejaVuSans-65" transform="translate(327.730469 0)"/>
       <use xlink:href="#DejaVuSans-61" transform="translate(389.253906 0)"/>
      </g>
     </g>
    </g>
    <g id="xtick_3">
     <g id="line2d_3">
      <g>
       <use xlink:href="#mf7393a9b42" x="308.2375" y="307.550464" style="stroke: #000000; stroke-width: 0.8"/>
      </g>
     </g>
     <g id="text_3">
      <!-- Bear Cup -->
      <g transform="translate(289.655302 344.180904) rotate(-30) scale(0.1 -0.1)">
       <defs>
        <path id="DejaVuSans-42" d="M 1259 2228 
L 1259 519 
L 2272 519 
Q 2781 519 3026 730 
Q 3272 941 3272 1375 
Q 3272 1813 3026 2020 
Q 2781 2228 2272 2228 
L 1259 2228 
z
M 1259 4147 
L 1259 2741 
L 2194 2741 
Q 2656 2741 2882 2914 
Q 3109 3088 3109 3444 
Q 3109 3797 2882 3972 
Q 2656 4147 2194 4147 
L 1259 4147 
z
M 628 4666 
L 2241 4666 
Q 2963 4666 3353 4366 
Q 3744 4066 3744 3513 
Q 3744 3084 3544 2831 
Q 3344 2578 2956 2516 
Q 3422 2416 3680 2098 
Q 3938 1781 3938 1306 
Q 3938 681 3513 340 
Q 3088 0 2303 0 
L 628 0 
L 628 4666 
z
" transform="scale(0.015625)"/>
        <path id="DejaVuSans-75" d="M 544 1381 
L 544 3500 
L 1119 3500 
L 1119 1403 
Q 1119 906 1312 657 
Q 1506 409 1894 409 
Q 2359 409 2629 706 
Q 2900 1003 2900 1516 
L 2900 3500 
L 3475 3500 
L 3475 0 
L 2900 0 
L 2900 538 
Q 2691 219 2414 64 
Q 2138 -91 1772 -91 
Q 1169 -91 856 284 
Q 544 659 544 1381 
z
M 1991 3584 
L 1991 3584 
z
" transform="scale(0.015625)"/>
        <path id="DejaVuSans-70" d="M 1159 525 
L 1159 -1331 
L 581 -1331 
L 581 3500 
L 1159 3500 
L 1159 2969 
Q 1341 3281 1617 3432 
Q 1894 3584 2278 3584 
Q 2916 3584 3314 3078 
Q 3713 2572 3713 1747 
Q 3713 922 3314 415 
Q 2916 -91 2278 -91 
Q 1894 -91 1617 61 
Q 1341 213 1159 525 
z
M 3116 1747 
Q 3116 2381 2855 2742 
Q 2594 3103 2138 3103 
Q 1681 3103 1420 2742 
Q 1159 2381 1159 1747 
Q 1159 1113 1420 752 
Q 1681 391 2138 391 
Q 2594 391 2855 752 
Q 3116 1113 3116 1747 
z
" transform="scale(0.015625)"/>
       </defs>
       <use xlink:href="#DejaVuSans-42"/>
       <use xlink:href="#DejaVuSans-65" transform="translate(68.603516 0)"/>
       <use xlink:href="#DejaVuSans-61" transform="translate(130.126953 0)"/>
       <use xlink:href="#DejaVuSans-72" transform="translate(191.40625 0)"/>
       <use xlink:href="#DejaVuSans-20" transform="translate(232.519531 0)"/>
       <use xlink:href="#DejaVuSans-43" transform="translate(264.306641 0)"/>
       <use xlink:href="#DejaVuSans-75" transform="translate(334.130859 0)"/>
       <use xlink:href="#DejaVuSans-70" transform="translate(397.509766 0)"/>
      </g>
     </g>
    </g>
    <g id="xtick_4">
     <g id="line2d_4">
      <g>
       <use xlink:href="#mf7393a9b42" x="411.0225" y="307.550464" style="stroke: #000000; stroke-width: 0.8"/>
      </g>
     </g>
     <g id="text_4">
      <!-- Wushiland -->
      <g transform="translate(389.980925 347.020748) rotate(-30) scale(0.1 -0.1)">
       <defs>
        <path id="DejaVuSans-57" d="M 213 4666 
L 850 4666 
L 1831 722 
L 2809 4666 
L 3519 4666 
L 4500 722 
L 5478 4666 
L 6119 4666 
L 4947 0 
L 4153 0 
L 3169 4050 
L 2175 0 
L 1381 0 
L 213 4666 
z
" transform="scale(0.015625)"/>
        <path id="DejaVuSans-73" d="M 2834 3397 
L 2834 2853 
Q 2591 2978 2328 3040 
Q 2066 3103 1784 3103 
Q 1356 3103 1142 2972 
Q 928 2841 928 2578 
Q 928 2378 1081 2264 
Q 1234 2150 1697 2047 
L 1894 2003 
Q 2506 1872 2764 1633 
Q 3022 1394 3022 966 
Q 3022 478 2636 193 
Q 2250 -91 1575 -91 
Q 1294 -91 989 -36 
Q 684 19 347 128 
L 347 722 
Q 666 556 975 473 
Q 1284 391 1588 391 
Q 1994 391 2212 530 
Q 2431 669 2431 922 
Q 2431 1156 2273 1281 
Q 2116 1406 1581 1522 
L 1381 1569 
Q 847 1681 609 1914 
Q 372 2147 372 2553 
Q 372 3047 722 3315 
Q 1072 3584 1716 3584 
Q 2034 3584 2315 3537 
Q 2597 3491 2834 3397 
z
" transform="scale(0.015625)"/>
        <path id="DejaVuSans-69" d="M 603 3500 
L 1178 3500 
L 1178 0 
L 603 0 
L 603 3500 
z
M 603 4863 
L 1178 4863 
L 1178 4134 
L 603 4134 
L 603 4863 
z
" transform="scale(0.015625)"/>
        <path id="DejaVuSans-6c" d="M 603 4863 
L 1178 4863 
L 1178 0 
L 603 0 
L 603 4863 
z
" transform="scale(0.015625)"/>
        <path id="DejaVuSans-64" d="M 2906 2969 
L 2906 4863 
L 3481 4863 
L 3481 0 
L 2906 0 
L 2906 525 
Q 2725 213 2448 61 
Q 2172 -91 1784 -91 
Q 1150 -91 751 415 
Q 353 922 353 1747 
Q 353 2572 751 3078 
Q 1150 3584 1784 3584 
Q 2172 3584 2448 3432 
Q 2725 3281 2906 2969 
z
M 947 1747 
Q 947 1113 1208 752 
Q 1469 391 1925 391 
Q 2381 391 2643 752 
Q 2906 1113 2906 1747 
Q 2906 2381 2643 2742 
Q 2381 3103 1925 3103 
Q 1469 3103 1208 2742 
Q 947 2381 947 1747 
z
" transform="scale(0.015625)"/>
       </defs>
       <use xlink:href="#DejaVuSans-57"/>
       <use xlink:href="#DejaVuSans-75" transform="translate(95.251953 0)"/>
       <use xlink:href="#DejaVuSans-73" transform="translate(158.630859 0)"/>
       <use xlink:href="#DejaVuSans-68" transform="translate(210.730469 0)"/>
       <use xlink:href="#DejaVuSans-69" transform="translate(274.109375 0)"/>
       <use xlink:href="#DejaVuSans-6c" transform="translate(301.892578 0)"/>
       <use xlink:href="#DejaVuSans-61" transform="translate(329.675781 0)"/>
       <use xlink:href="#DejaVuSans-6e" transform="translate(390.955078 0)"/>
       <use xlink:href="#DejaVuSans-64" transform="translate(454.333984 0)"/>
      </g>
     </g>
    </g>
    <g id="xtick_5">
     <g id="line2d_5">
      <g>
       <use xlink:href="#mf7393a9b42" x="513.8075" y="307.550464" style="stroke: #000000; stroke-width: 0.8"/>
      </g>
     </g>
     <g id="text_5">
      <!-- Sunright -->
      <g transform="translate(496.776029 342.390279) rotate(-30) scale(0.1 -0.1)">
       <use xlink:href="#DejaVuSans-53"/>
       <use xlink:href="#DejaVuSans-75" transform="translate(63.476562 0)"/>
       <use xlink:href="#DejaVuSans-6e" transform="translate(126.855469 0)"/>
       <use xlink:href="#DejaVuSans-72" transform="translate(190.234375 0)"/>
       <use xlink:href="#DejaVuSans-69" transform="translate(231.347656 0)"/>
       <use xlink:href="#DejaVuSans-67" transform="translate(259.130859 0)"/>
       <use xlink:href="#DejaVuSans-68" transform="translate(322.607422 0)"/>
       <use xlink:href="#DejaVuSans-74" transform="translate(385.986328 0)"/>
      </g>
     </g>
    </g>
   </g>
   <g id="matplotlib.axis_2">
    <g id="ytick_1">
     <g id="line2d_6">
      <defs>
       <path id="m0ef26dd847" d="M 0 0 
L -3.5 0 
" style="stroke: #000000; stroke-width: 0.8"/>
      </defs>
      <g>
       <use xlink:href="#m0ef26dd847" x="51.275" y="293.413399" style="stroke: #000000; stroke-width: 0.8"/>
      </g>
     </g>
     <g id="text_6">
      <!-- 400 -->
      <g transform="translate(25.1875 297.212618) scale(0.1 -0.1)">
       <defs>
        <path id="DejaVuSans-34" d="M 2419 4116 
L 825 1625 
L 2419 1625 
L 2419 4116 
z
M 2253 4666 
L 3047 4666 
L 3047 1625 
L 3713 1625 
L 3713 1100 
L 3047 1100 
L 3047 0 
L 2419 0 
L 2419 1100 
L 313 1100 
L 313 1709 
L 2253 4666 
z
" transform="scale(0.015625)"/>
        <path id="DejaVuSans-30" d="M 2034 4250 
Q 1547 4250 1301 3770 
Q 1056 3291 1056 2328 
Q 1056 1369 1301 889 
Q 1547 409 2034 409 
Q 2525 409 2770 889 
Q 3016 1369 3016 2328 
Q 3016 3291 2770 3770 
Q 2525 4250 2034 4250 
z
M 2034 4750 
Q 2819 4750 3233 4129 
Q 3647 3509 3647 2328 
Q 3647 1150 3233 529 
Q 2819 -91 2034 -91 
Q 1250 -91 836 529 
Q 422 1150 422 2328 
Q 422 3509 836 4129 
Q 1250 4750 2034 4750 
z
" transform="scale(0.015625)"/>
       </defs>
       <use xlink:href="#DejaVuSans-34"/>
       <use xlink:href="#DejaVuSans-30" transform="translate(63.623047 0)"/>
       <use xlink:href="#DejaVuSans-30" transform="translate(127.246094 0)"/>
      </g>
     </g>
    </g>
    <g id="ytick_2">
     <g id="line2d_7">
      <g>
       <use xlink:href="#m0ef26dd847" x="51.275" y="241.096551" style="stroke: #000000; stroke-width: 0.8"/>
      </g>
     </g>
     <g id="text_7">
      <!-- 450 -->
      <g transform="translate(25.1875 244.89577) scale(0.1 -0.1)">
       <defs>
        <path id="DejaVuSans-35" d="M 691 4666 
L 3169 4666 
L 3169 4134 
L 1269 4134 
L 1269 2991 
Q 1406 3038 1543 3061 
Q 1681 3084 1819 3084 
Q 2600 3084 3056 2656 
Q 3513 2228 3513 1497 
Q 3513 744 3044 326 
Q 2575 -91 1722 -91 
Q 1428 -91 1123 -41 
Q 819 9 494 109 
L 494 744 
Q 775 591 1075 516 
Q 1375 441 1709 441 
Q 2250 441 2565 725 
Q 2881 1009 2881 1497 
Q 2881 1984 2565 2268 
Q 2250 2553 1709 2553 
Q 1456 2553 1204 2497 
Q 953 2441 691 2322 
L 691 4666 
z
" transform="scale(0.015625)"/>
       </defs>
       <use xlink:href="#DejaVuSans-34"/>
       <use xlink:href="#DejaVuSans-35" transform="translate(63.623047 0)"/>
       <use xlink:href="#DejaVuSans-30" transform="translate(127.246094 0)"/>
      </g>
     </g>
    </g>
    <g id="ytick_3">
     <g id="line2d_8">
      <g>
       <use xlink:href="#m0ef26dd847" x="51.275" y="188.779704" style="stroke: #000000; stroke-width: 0.8"/>
      </g>
     </g>
     <g id="text_8">
      <!-- 500 -->
      <g transform="translate(25.1875 192.578923) scale(0.1 -0.1)">
       <use xlink:href="#DejaVuSans-35"/>
       <use xlink:href="#DejaVuSans-30" transform="translate(63.623047 0)"/>
       <use xlink:href="#DejaVuSans-30" transform="translate(127.246094 0)"/>
      </g>
     </g>
    </g>
    <g id="ytick_4">
     <g id="line2d_9">
      <g>
       <use xlink:href="#m0ef26dd847" x="51.275" y="136.462856" style="stroke: #000000; stroke-width: 0.8"/>
      </g>
     </g>
     <g id="text_9">
      <!-- 550 -->
      <g transform="translate(25.1875 140.262075) scale(0.1 -0.1)">
       <use xlink:href="#DejaVuSans-35"/>
       <use xlink:href="#DejaVuSans-35" transform="translate(63.623047 0)"/>
       <use xlink:href="#DejaVuSans-30" transform="translate(127.246094 0)"/>
      </g>
     </g>
    </g>
    <g id="ytick_5">
     <g id="line2d_10">
      <g>
       <use xlink:href="#m0ef26dd847" x="51.275" y="84.146008" style="stroke: #000000; stroke-width: 0.8"/>
      </g>
     </g>
     <g id="text_10">
      <!-- 600 -->
      <g transform="translate(25.1875 87.945227) scale(0.1 -0.1)">
       <defs>
        <path id="DejaVuSans-36" d="M 2113 2584 
Q 1688 2584 1439 2293 
Q 1191 2003 1191 1497 
Q 1191 994 1439 701 
Q 1688 409 2113 409 
Q 2538 409 2786 701 
Q 3034 994 3034 1497 
Q 3034 2003 2786 2293 
Q 2538 2584 2113 2584 
z
M 3366 4563 
L 3366 3988 
Q 3128 4100 2886 4159 
Q 2644 4219 2406 4219 
Q 1781 4219 1451 3797 
Q 1122 3375 1075 2522 
Q 1259 2794 1537 2939 
Q 1816 3084 2150 3084 
Q 2853 3084 3261 2657 
Q 3669 2231 3669 1497 
Q 3669 778 3244 343 
Q 2819 -91 2113 -91 
Q 1303 -91 875 529 
Q 447 1150 447 2328 
Q 447 3434 972 4092 
Q 1497 4750 2381 4750 
Q 2619 4750 2861 4703 
Q 3103 4656 3366 4563 
z
" transform="scale(0.015625)"/>
       </defs>
       <use xlink:href="#DejaVuSans-36"/>
       <use xlink:href="#DejaVuSans-30" transform="translate(63.623047 0)"/>
       <use xlink:href="#DejaVuSans-30" transform="translate(127.246094 0)"/>
      </g>
     </g>
    </g>
    <g id="ytick_6">
     <g id="line2d_11">
      <g>
       <use xlink:href="#m0ef26dd847" x="51.275" y="31.829161" style="stroke: #000000; stroke-width: 0.8"/>
      </g>
     </g>
     <g id="text_11">
      <!-- 650 -->
      <g transform="translate(25.1875 35.628379) scale(0.1 -0.1)">
       <use xlink:href="#DejaVuSans-36"/>
       <use xlink:href="#DejaVuSans-35" transform="translate(63.623047 0)"/>
       <use xlink:href="#DejaVuSans-30" transform="translate(127.246094 0)"/>
      </g>
     </g>
    </g>
    <g id="text_12">
     <!-- turb_raw -->
     <g transform="translate(18.829688 181.242419) rotate(-90) scale(0.1 -0.1)">
      <defs>
       <path id="DejaVuSans-62" d="M 3116 1747 
Q 3116 2381 2855 2742 
Q 2594 3103 2138 3103 
Q 1681 3103 1420 2742 
Q 1159 2381 1159 1747 
Q 1159 1113 1420 752 
Q 1681 391 2138 391 
Q 2594 391 2855 752 
Q 3116 1113 3116 1747 
z
M 1159 2969 
Q 1341 3281 1617 3432 
Q 1894 3584 2278 3584 
Q 2916 3584 3314 3078 
Q 3713 2572 3713 1747 
Q 3713 922 3314 415 
Q 2916 -91 2278 -91 
Q 1894 -91 1617 61 
Q 1341 213 1159 525 
L 1159 0 
L 581 0 
L 581 4863 
L 1159 4863 
L 1159 2969 
z
" transform="scale(0.015625)"/>
       <path id="DejaVuSans-5f" d="M 3263 -1063 
L 3263 -1509 
L -63 -1509 
L -63 -1063 
L 3263 -1063 
z
" transform="scale(0.015625)"/>
       <path id="DejaVuSans-77" d="M 269 3500 
L 844 3500 
L 1563 769 
L 2278 3500 
L 2956 3500 
L 3675 769 
L 4391 3500 
L 4966 3500 
L 4050 0 
L 3372 0 
L 2619 2869 
L 1863 0 
L 1184 0 
L 269 3500 
z
" transform="scale(0.015625)"/>
      </defs>
      <use xlink:href="#DejaVuSans-74"/>
      <use xlink:href="#DejaVuSans-75" transform="translate(39.208984 0)"/>
      <use xlink:href="#DejaVuSans-72" transform="translate(102.587891 0)"/>
      <use xlink:href="#DejaVuSans-62" transform="translate(143.701172 0)"/>
      <use xlink:href="#DejaVuSans-5f" transform="translate(207.177734 0)"/>
      <use xlink:href="#DejaVuSans-72" transform="translate(257.177734 0)"/>
      <use xlink:href="#DejaVuSans-61" transform="translate(298.291016 0)"/>
      <use xlink:href="#DejaVuSans-77" transform="translate(359.570312 0)"/>
     </g>
    </g>
   </g>
   <g id="line2d_12">
    <path d="M 102.6675 253.652595 
L 102.6675 226.447834 
" clip-path="url(#p61c2eb901a)" style="fill: none; stroke: #303030; stroke-width: 1.5; stroke-linecap: square"/>
   </g>
   <g id="line2d_13">
    <path d="M 102.6675 243.973978 
L 102.6675 235.864867 
" clip-path="url(#p61c2eb901a)" style="fill: none; stroke: #303030; stroke-width: 4.5; stroke-linecap: square"/>
   </g>
   <g id="line2d_14">
    <path d="M 205.4525 274.579334 
L 205.4525 224.35516 
" clip-path="url(#p61c2eb901a)" style="fill: none; stroke: #303030; stroke-width: 1.5; stroke-linecap: square"/>
   </g>
   <g id="line2d_15">
    <path d="M 205.4525 260.715369 
L 205.4525 235.080114 
" clip-path="url(#p61c2eb901a)" style="fill: none; stroke: #303030; stroke-width: 4.5; stroke-linecap: square"/>
   </g>
   <g id="line2d_16">
    <path d="M 308.2375 226.447834 
L 308.2375 177.269997 
" clip-path="url(#p61c2eb901a)" style="fill: none; stroke: #303030; stroke-width: 1.5; stroke-linecap: square"/>
   </g>
   <g id="line2d_17">
    <path d="M 308.2375 216.507633 
L 308.2375 184.071187 
" clip-path="url(#p61c2eb901a)" style="fill: none; stroke: #303030; stroke-width: 4.5; stroke-linecap: square"/>
   </g>
   <g id="line2d_18">
    <path d="M 411.0225 198.196736 
L 411.0225 59.033922 
" clip-path="url(#p61c2eb901a)" style="fill: none; stroke: #303030; stroke-width: 1.5; stroke-linecap: square"/>
   </g>
   <g id="line2d_19">
    <path d="M 411.0225 177.269997 
L 411.0225 120.506218 
" clip-path="url(#p61c2eb901a)" style="fill: none; stroke: #303030; stroke-width: 4.5; stroke-linecap: square"/>
   </g>
   <g id="line2d_20">
    <path d="M 513.8075 178.316334 
L 513.8075 93.563041 
" clip-path="url(#p61c2eb901a)" style="fill: none; stroke: #303030; stroke-width: 1.5; stroke-linecap: square"/>
   </g>
   <g id="line2d_21">
    <path d="M 513.8075 152.942663 
L 513.8075 108.473343 
" clip-path="url(#p61c2eb901a)" style="fill: none; stroke: #303030; stroke-width: 4.5; stroke-linecap: square"/>
   </g>
   <g id="patch_3">
    <path d="M 51.275 307.550464 
L 51.275 10.8 
" style="fill: none; stroke: #000000; stroke-width: 0.8; stroke-linejoin: miter; stroke-linecap: square"/>
   </g>
   <g id="patch_4">
    <path d="M 565.2 307.550464 
L 565.2 10.8 
" style="fill: none; stroke: #000000; stroke-width: 0.8; stroke-linejoin: miter; stroke-linecap: square"/>
   </g>
   <g id="patch_5">
    <path d="M 51.275 307.550464 
L 565.2 307.550464 
" style="fill: none; stroke: #000000; stroke-width: 0.8; stroke-linejoin: miter; stroke-linecap: square"/>
   </g>
   <g id="patch_6">
    <path d="M 51.275 10.8 
L 565.2 10.8 
" style="fill: none; stroke: #000000; stroke-width: 0.8; stroke-linejoin: miter; stroke-linecap: square"/>
   </g>
   <g id="PathCollection_1">
    <defs>
     <path id="m87df3fc2b1" d="M 0 1.5 
C 0.397805 1.5 0.77937 1.341951 1.06066 1.06066 
C 1.341951 0.77937 1.5 0.397805 1.5 0 
C 1.5 -0.397805 1.341951 -0.77937 1.06066 -1.06066 
C 0.77937 -1.341951 0.397805 -1.5 0 -1.5 
C -0.397805 -1.5 -0.77937 -1.341951 -1.06066 -1.06066 
C -1.341951 -0.77937 -1.5 -0.397805 -1.5 0 
C -1.5 0.397805 -1.341951 0.77937 -1.06066 1.06066 
C -0.77937 1.341951 -0.397805 1.5 0 1.5 
z
" style="stroke: #303030"/>
    </defs>
    <g clip-path="url(#p61c2eb901a)">
     <use xlink:href="#m87df3fc2b1" x="102.6675" y="240.573383" style="fill: #ffffff; stroke: #303030"/>
    </g>
   </g>
   <g id="PathCollection_2">
    <g clip-path="url(#p61c2eb901a)">
     <use xlink:href="#m87df3fc2b1" x="205.4525" y="245.281899" style="fill: #ffffff; stroke: #303030"/>
    </g>
   </g>
   <g id="PathCollection_3">
    <g clip-path="url(#p61c2eb901a)">
     <use xlink:href="#m87df3fc2b1" x="308.2375" y="192.965052" style="fill: #ffffff; stroke: #303030"/>
    </g>
   </g>
   <g id="PathCollection_4">
    <g clip-path="url(#p61c2eb901a)">
     <use xlink:href="#m87df3fc2b1" x="411.0225" y="146.403057" style="fill: #ffffff; stroke: #303030"/>
    </g>
   </g>
   <g id="PathCollection_5">
    <g clip-path="url(#p61c2eb901a)">
     <use xlink:href="#m87df3fc2b1" x="513.8075" y="130.708003" style="fill: #ffffff; stroke: #303030"/>
    </g>
   </g>
  </g>
 </g>
 <defs>
  <clipPath id="p61c2eb901a">
   <rect x="51.275" y="10.8" width="513.925" height="296.750464"/>
  </clipPath>
 </defs>
</svg>
